<svg width="276" height="276" viewBox="0 0 276 276" fill="none" xmlns="http://www.w3.org/2000/svg">
<g clip-path="url(#clip0_10107_3168)">
<path d="M33.7258 144.004C33.8643 143.494 34.4184 143.216 34.9264 143.401C36.1269 143.818 37.3274 144.143 38.5741 144.143C40.0979 144.143 40.5596 143.54 40.5596 142.613C40.5596 139.878 33.4949 141.454 33.4949 134.917C33.4949 131.671 36.4501 129.585 40.0979 129.585C41.6678 129.585 43.2377 129.91 44.7615 130.559L43.8842 133.34C43.7456 133.804 43.2377 134.082 42.776 133.943C41.9448 133.665 41.1599 133.572 40.2364 133.572C38.9897 133.572 38.4356 134.175 38.4356 134.917C38.4356 137.374 45.4541 136.354 45.4541 142.613C45.5002 145.905 42.5913 148.13 38.6665 148.13C36.6348 148.13 34.834 147.667 33.0332 146.925L33.7258 144.004Z" fill="#1B365D"/>
<path d="M48.4085 137.049C48.4085 133.201 51.0866 129.631 55.7964 129.631C60.5985 129.631 63.2304 133.387 63.2304 137.049V139.507C63.2304 140.017 62.8149 140.388 62.3532 140.388H53.1183V140.666C53.1183 142.103 53.4415 144.143 56.3967 144.143C57.9205 144.143 59.1672 143.865 60.5523 143.494C61.0141 143.355 61.5221 143.633 61.6144 144.143L62.3532 146.971C60.2754 147.62 58.5207 148.13 56.3967 148.13C50.671 148.13 48.3623 144.421 48.3623 140.666V137.049H48.4085ZM58.5207 137.142V136.725C58.5207 135.149 57.9205 133.665 55.8426 133.665C53.7648 133.665 53.1183 135.241 53.1183 136.725V137.142H58.5207Z" fill="#1B365D"/>
<path d="M66.1857 137.049C66.1857 133.201 68.8639 129.631 73.5736 129.631C78.3758 129.631 81.0078 133.387 81.0078 137.049V139.507C81.0078 140.017 80.5921 140.388 80.1304 140.388H70.8956V140.666C70.8956 142.103 71.2187 144.143 74.1739 144.143C75.6977 144.143 76.9444 143.865 78.3296 143.494C78.7913 143.355 79.2993 143.633 79.3916 144.143L80.1304 146.971C78.0526 147.667 76.2979 148.176 74.1739 148.176C68.4484 148.176 66.1396 144.467 66.1396 140.712V137.049H66.1857ZM76.2979 137.142V136.725C76.2979 135.149 75.6977 133.665 73.6198 133.665C71.542 133.665 70.8956 135.241 70.8956 136.725V137.142H76.2979Z" fill="#1B365D"/>
<path d="M84.5174 144.05C84.6558 143.54 85.2099 143.262 85.6717 143.448C86.8723 143.865 88.0266 144.143 89.2733 144.143C90.7971 144.143 91.2588 143.54 91.2588 142.613C91.2588 139.878 84.2403 141.454 84.2403 134.917C84.2403 131.671 87.1954 129.585 90.8433 129.585C92.4131 129.585 93.9831 129.91 95.5068 130.559L94.6756 133.387C94.5372 133.897 94.0292 134.129 93.5213 133.99C92.6902 133.711 91.8591 133.572 90.9817 133.572C89.735 133.572 89.1809 134.175 89.1809 134.917C89.1809 137.374 96.1994 136.354 96.1994 142.613C96.1994 145.951 93.2905 148.13 89.3657 148.13C87.3339 148.13 85.5794 147.713 83.7324 146.925L84.5174 144.05Z" fill="#1B365D"/>
<path d="M99.3398 125.134C99.3398 123.697 100.494 122.584 102.018 122.584C103.542 122.584 104.696 123.697 104.696 125.134C104.696 126.572 103.542 127.684 102.018 127.684C100.448 127.684 99.3398 126.572 99.3398 125.134ZM100.54 130.049H104.373V146.786C104.373 147.249 104.003 147.667 103.496 147.667H99.663V130.976C99.6169 130.466 100.032 130.049 100.54 130.049Z" fill="#1B365D"/>
<path d="M108.436 130.049H111.668C112.129 130.049 112.545 130.42 112.591 130.883L112.684 131.579C114.115 130.28 115.731 129.631 117.301 129.631C120.903 129.631 122.934 131.81 122.934 135.659V146.832C122.934 147.296 122.565 147.713 122.057 147.713H118.224V136.169C118.224 134.268 117.67 133.619 116.285 133.619C115.131 133.619 114.207 134.129 113.191 135.149V146.739C113.191 147.249 112.776 147.667 112.268 147.667H108.482V130.049H108.436Z" fill="#1B365D"/>
<path d="M129.075 151.561C129.029 151.005 129.445 150.541 129.952 150.541H134.662C135.863 150.541 136.509 149.66 136.509 148.501V146.183C135.262 147.249 134.062 147.62 132.723 147.62C128.752 147.62 126.305 144.931 126.305 140.295V136.91C126.305 132.228 128.752 129.585 132.723 129.585C134.293 129.585 135.586 130.141 136.971 131.486L137.063 130.837C137.109 130.373 137.479 130.049 137.941 130.049H141.219V148.362C141.219 152.071 138.91 154.436 134.662 154.436H129.352L129.075 151.561ZM131.107 139.785C131.107 142.52 131.753 143.679 133.554 143.679C134.616 143.679 135.493 143.123 136.555 142.242V135.149C135.493 134.175 134.616 133.572 133.554 133.572C131.753 133.572 131.107 134.778 131.107 137.467V139.785Z" fill="#1B365D"/>
<path d="M173.772 137.049C173.772 133.201 176.45 129.631 181.206 129.631C186.008 129.631 188.64 133.387 188.64 137.049V139.507C188.64 140.017 188.225 140.388 187.763 140.388H178.482V140.666C178.482 142.103 178.805 144.143 181.761 144.143C183.284 144.143 184.53 143.865 185.916 143.494C186.378 143.355 186.886 143.633 187.025 144.143L187.763 146.971C185.685 147.667 183.931 148.176 181.806 148.176C176.081 148.176 173.772 144.467 173.772 140.712V137.049ZM183.884 137.142V136.725C183.884 135.149 183.284 133.665 181.206 133.665C179.129 133.665 178.482 135.241 178.482 136.725V137.142H183.884Z" fill="#1B365D"/>
<path d="M196.721 130.513L199.076 134.453L201.754 130.049H205.309C206.002 130.049 206.464 130.837 206.049 131.44L201.754 138.394L206.649 146.322C207.018 146.925 206.603 147.713 205.863 147.713H202.17L198.984 142.428L196.028 147.25C195.844 147.528 195.566 147.667 195.243 147.667H190.58L196.259 138.487L191.134 130.049H195.936C196.259 130.049 196.537 130.234 196.721 130.513Z" fill="#1B365D"/>
<path d="M172.388 147.018L171.648 143.819C171.417 143.865 171.14 143.865 170.909 143.865C169.709 143.865 169.109 143.17 169.109 141.871V125.505C169.109 125.274 169.016 125.042 168.832 124.903C166.061 122.585 160.798 122.724 160.798 122.724C156.457 122.724 153.917 125.181 153.917 128.797V130.049H151.101V132.599C151.101 132.831 151.285 133.063 151.516 133.109L153.871 133.433V147.667H157.704C158.166 147.667 158.581 147.296 158.581 146.786V133.433H161.86V130.049H158.581V128.936C158.581 127.36 159.273 126.664 161.074 126.664C162.091 126.664 163.244 126.804 164.353 127.035V140.202V142.335C164.353 145.72 166.477 147.806 170.633 147.806C171.048 147.806 171.464 147.76 171.833 147.713C172.202 147.713 172.433 147.342 172.388 147.018Z" fill="#1B365D"/>
<path d="M220.038 149.429C220.085 149.476 220.085 149.476 220.131 149.523C220.131 149.476 220.085 149.429 220.038 149.429C220.085 149.382 220.038 149.382 220.038 149.429Z" fill="#FA4616"/>
<path d="M233.893 156.059C233.799 156.105 233.707 156.151 233.615 156.198C233.245 156.383 232.876 156.383 232.461 156.29C231.907 156.105 231.306 156.059 230.706 156.059C229.782 156.105 228.905 156.012 228.028 155.827C227.659 155.734 227.289 155.688 226.874 155.641C226.042 155.549 225.211 155.363 224.426 155.085C224.242 155.039 224.056 154.992 223.872 154.9V156.059C223.872 156.244 223.919 156.383 223.964 156.522C224.103 156.522 224.242 156.569 224.381 156.615C224.934 156.708 225.488 156.893 225.997 157.171H235.231C235.277 157.171 235.324 157.171 235.324 157.171C235.416 157.125 235.508 157.125 235.647 157.079C236.108 156.893 236.386 156.429 236.294 155.919L236.2 155.27C235.97 155.317 235.693 155.409 235.462 155.456C234.908 155.595 234.4 155.78 233.893 156.059Z" fill="#FA4616"/>
<path d="M231.398 134.639C231.306 134.593 231.214 134.5 231.167 134.407C231.167 134.407 231.167 134.361 231.121 134.314C231.075 134.361 231.028 134.407 231.028 134.407C231.028 134.454 230.983 134.546 230.983 134.639C230.983 134.824 230.936 134.964 230.844 135.103C230.798 135.195 230.798 135.288 230.844 135.427C230.89 135.427 230.89 135.381 230.936 135.381C231.167 135.335 231.352 135.242 231.537 135.149C231.582 135.149 231.582 135.103 231.629 135.103C231.676 135.056 231.676 135.01 231.629 134.917C231.629 134.824 231.537 134.732 231.398 134.639Z" fill="#FA4616"/>
<path d="M235.092 133.804C234.814 133.665 234.491 133.619 234.215 133.526C233.845 133.433 233.522 133.294 233.199 133.063C232.922 132.877 232.83 132.645 232.83 132.321C232.83 132.182 232.83 132.043 232.83 131.95C232.83 131.625 232.691 131.347 232.413 131.162C232.045 130.93 231.628 130.791 231.213 130.698C230.382 130.513 229.644 130.698 228.997 131.301C228.628 131.672 228.35 132.089 228.212 132.599C228.027 133.433 227.842 134.268 227.658 135.102C227.566 135.705 227.566 136.262 227.704 136.864C227.797 137.189 227.842 137.56 227.889 137.884C227.981 138.533 228.027 139.182 228.073 139.831C228.12 140.341 228.212 140.805 228.258 141.269C228.304 141.547 228.304 141.825 228.258 142.103C228.258 142.289 228.304 142.474 228.35 142.613C228.443 142.567 228.535 142.567 228.628 142.567C228.859 142.521 229.043 142.474 229.227 142.289C229.644 141.918 230.012 141.593 230.428 141.222C230.705 140.944 230.936 140.62 231.029 140.249C231.075 140.017 231.26 139.785 231.491 139.692C231.675 139.6 231.859 139.461 232.09 139.414C232.691 139.182 233.199 138.858 233.614 138.348C234.03 137.838 234.446 137.328 234.677 136.725C234.814 136.354 235.045 136.03 235.415 135.844C235.507 135.798 235.554 135.752 235.646 135.705L235.692 134.361C235.507 134.082 235.323 133.943 235.092 133.804ZM233.984 136.308C233.892 136.447 233.845 136.586 233.707 136.725C233.337 137.142 232.922 137.467 232.368 137.56C231.814 137.652 231.398 138.023 231.075 138.487C230.936 138.719 230.798 138.951 230.659 139.136C230.336 139.692 230.012 140.249 229.55 140.666C229.366 140.805 229.182 140.851 228.951 140.898C228.859 140.898 228.766 140.851 228.674 140.759C228.535 140.481 228.443 140.202 228.581 139.878C228.628 139.739 228.674 139.6 228.72 139.461C228.766 139.275 228.812 139.043 228.904 138.858C229.043 138.533 229.135 138.209 229.135 137.838C229.135 137.282 229.227 136.771 229.458 136.262C229.597 135.937 229.644 135.566 229.644 135.241C229.644 134.917 229.644 134.639 229.644 134.314C229.644 133.758 229.828 133.248 230.151 132.738C230.336 132.506 230.521 132.321 230.705 132.089C230.89 131.903 231.029 131.903 231.26 132.089C231.398 132.228 231.583 132.367 231.722 132.506C231.906 132.692 231.998 132.923 231.998 133.155C231.998 133.248 231.998 133.387 232.045 133.48C232.045 133.758 232.182 133.943 232.413 134.082C232.691 134.268 232.968 134.407 233.245 134.593C233.383 134.685 233.522 134.778 233.661 134.871C234.123 135.288 234.215 135.844 233.984 136.308Z" fill="#FA4616"/>
<path d="M233.2 135.102C232.922 134.871 232.599 134.639 232.322 134.407C232.045 134.221 231.86 133.943 231.814 133.619C231.814 133.48 231.814 133.341 231.768 133.201C231.768 133.062 231.721 132.923 231.583 132.831C231.398 132.691 231.214 132.506 231.028 132.321C230.891 132.46 230.799 132.599 230.66 132.738C230.244 133.248 230.013 133.851 230.059 134.5C230.059 134.731 230.059 134.963 230.059 135.241C230.059 135.705 230.013 136.169 229.828 136.586C229.69 136.864 229.644 137.189 229.598 137.513C229.598 137.652 229.551 137.791 229.551 137.93C229.551 138.255 229.459 138.579 229.274 138.858C229.136 139.09 229.044 139.321 228.997 139.553C228.997 139.692 228.951 139.785 228.858 139.878C228.721 140.11 228.766 140.341 228.951 140.573C229.228 140.48 229.505 140.388 229.644 140.11C229.828 139.785 230.013 139.414 230.151 139.043C230.29 138.672 230.475 138.301 230.705 137.977C231.075 137.467 231.583 137.096 232.229 136.957C232.783 136.818 233.153 136.493 233.476 136.076C233.66 135.844 233.66 135.612 233.523 135.38C233.431 135.334 233.337 135.195 233.2 135.102ZM231.86 135.241C231.721 135.288 231.629 135.38 231.49 135.427C231.398 135.473 231.259 135.52 231.167 135.566C231.075 135.612 230.936 135.612 230.844 135.566C230.799 135.52 230.752 135.473 230.752 135.427C230.752 135.288 230.752 135.149 230.799 135.01C230.891 134.917 230.891 134.778 230.891 134.639C230.891 134.546 230.891 134.453 230.936 134.407C230.936 134.36 230.983 134.314 230.983 134.268C231.028 134.221 231.028 134.175 231.075 134.175C231.167 134.129 231.259 134.175 231.306 134.268C231.306 134.268 231.306 134.314 231.352 134.314C231.398 134.407 231.445 134.453 231.537 134.5C231.721 134.592 231.814 134.731 231.906 134.917C231.952 135.056 231.952 135.195 231.86 135.241Z" fill="#FA4616"/>
<path d="M222.069 150.356C222.486 150.773 223.178 150.773 223.594 150.681C223.178 150.541 222.762 150.402 222.347 150.17C222.3 150.124 222.208 150.124 222.208 150.124C222.163 150.17 222.116 150.124 222.069 150.124C221.932 150.031 221.839 149.939 221.701 149.892C221.47 149.753 221.285 149.614 221.054 149.475C220.915 149.382 220.915 149.29 220.915 149.29C220.684 149.104 220.546 148.872 220.269 148.826C220.177 149.011 220.13 149.243 220.038 149.475C220.085 149.522 220.085 149.568 220.13 149.568C220.222 149.707 220.361 149.846 220.5 149.985L220.639 150.078L220.684 150.124L221.192 149.661C221.239 149.614 221.516 149.707 222.069 150.356Z" fill="#FA4616"/>
<path d="M237.447 149.197C236.708 149.382 235.969 149.568 235.231 149.753C234.861 149.846 234.492 149.892 234.122 149.892C233.938 149.892 233.707 149.939 233.523 149.939C233.523 149.939 233.523 149.939 233.476 149.939C233.476 149.939 233.523 149.892 233.523 149.846C233.292 149.846 233.106 149.8 232.922 149.8C232.229 149.8 231.583 149.8 230.891 149.8C230.474 149.8 230.059 149.846 229.644 149.939C229.367 149.985 229.043 150.078 228.766 150.124C228.627 150.17 228.443 150.17 228.304 150.17C227.566 150.124 226.781 150.078 226.042 150.031C225.441 149.985 224.887 149.892 224.334 149.8C224.103 149.753 223.825 149.707 223.594 149.661C223.04 149.475 222.579 149.15 222.21 148.733C222.117 148.64 221.979 148.501 221.886 148.362L221.748 148.177C221.471 147.899 221.286 147.62 220.962 147.389C220.87 147.435 220.778 147.481 220.731 147.574C220.594 147.806 220.502 148.038 220.408 148.27C220.731 148.409 220.962 148.64 221.101 149.011C221.101 149.011 221.193 149.058 221.286 149.151C221.471 149.336 221.655 149.429 221.84 149.521C222.256 149.707 222.672 149.892 223.087 150.031C223.271 150.124 223.457 150.17 223.641 150.263C223.918 150.356 224.195 150.449 224.472 150.541C225.026 150.773 225.627 150.82 226.226 150.773C226.55 150.727 226.873 150.727 227.196 150.773C227.797 150.82 228.396 150.866 229.044 150.866C230.013 150.866 231.028 150.82 231.998 150.82C232.322 150.82 232.691 150.727 233.014 150.634C233.292 150.541 233.568 150.495 233.846 150.495C234.261 150.449 234.677 150.495 235.092 150.495C235.231 150.495 235.415 150.495 235.554 150.495L235.415 149.753C236.431 149.336 236.893 150.356 236.893 150.356C237.54 150.031 238.186 149.429 238.832 148.687C238.74 148.733 238.601 148.826 238.509 148.872C238.094 149.011 237.771 149.104 237.447 149.197Z" fill="#FA4616"/>
<path d="M234.353 152.489C233.938 152.674 233.476 152.767 233.015 152.813C232.692 152.859 232.369 152.859 232.045 152.952C231.353 153.045 230.614 153.045 229.921 152.906C229.737 152.859 229.506 152.813 229.32 152.813C228.582 152.813 227.889 152.813 227.15 152.813C226.919 152.813 226.688 152.813 226.459 152.813C225.858 152.813 225.304 152.628 224.749 152.396C224.473 152.303 224.15 152.164 223.872 152.025V153.091C224.242 153.23 224.657 153.369 225.073 153.462C226.504 153.787 227.936 153.972 229.367 154.018C230.152 154.065 230.937 154.018 231.721 153.787C231.952 153.74 232.183 153.694 232.369 153.648C232.784 153.555 233.153 153.555 233.523 153.694C233.985 153.833 234.447 153.833 234.908 153.74C235.231 153.694 235.554 153.601 235.877 153.555L235.647 152.025C235.462 152.071 235.324 152.118 235.139 152.164C234.908 152.303 234.631 152.396 234.353 152.489Z" fill="#FA4616"/>
<path d="M233.198 151.098C232.921 151.237 232.598 151.329 232.275 151.376C231.49 151.469 230.659 151.469 229.874 151.376C228.997 151.283 228.119 151.237 227.242 151.144C226.872 151.098 226.549 151.098 226.18 151.144C225.672 151.19 225.21 151.19 224.749 151.051C224.471 150.959 224.195 150.866 223.917 150.773V151.747C224.102 151.793 224.24 151.886 224.426 151.932C225.348 152.303 226.318 152.489 227.334 152.349C228.258 152.257 229.228 152.257 230.15 152.535C230.751 152.72 231.351 152.72 231.952 152.628C232.32 152.581 232.69 152.535 233.06 152.489C233.521 152.442 233.937 152.349 234.353 152.164C234.676 152.025 235.046 151.932 235.369 151.839C235.461 151.793 235.599 151.793 235.692 151.747L235.553 150.773C235.091 150.773 234.629 150.819 234.168 150.819C233.799 150.912 233.475 150.959 233.198 151.098Z" fill="#FA4616"/>
<path d="M233.384 154.297C233.061 154.204 232.692 154.158 232.369 154.25C232.23 154.297 232.045 154.297 231.907 154.343C231.167 154.482 230.475 154.529 229.737 154.529C228.49 154.482 227.289 154.39 226.089 154.158C225.442 154.065 224.842 153.926 224.195 153.694C224.103 153.648 224.011 153.601 223.872 153.555V154.529C223.964 154.575 224.011 154.575 224.103 154.621C224.796 154.899 225.442 155.131 226.181 155.27C226.782 155.363 227.381 155.456 228.028 155.549C228.952 155.641 229.875 155.688 230.844 155.641C231.398 155.641 231.952 155.641 232.507 155.827C232.922 155.966 233.245 155.873 233.615 155.688C233.707 155.641 233.799 155.595 233.893 155.549C234.261 155.363 234.677 155.178 235.139 155.085C235.508 154.992 235.877 154.899 236.2 154.807L236.108 154.158C235.785 154.25 235.462 154.297 235.139 154.39C234.492 154.482 233.938 154.436 233.384 154.297Z" fill="#FA4616"/>
<path d="M227.15 125.737C227.15 125.784 227.196 125.83 227.196 125.83C227.335 125.784 227.473 125.737 227.612 125.691C228.673 125.366 229.736 125.227 230.798 125.274C230.89 124.903 230.982 124.578 231.074 124.346C230.751 124.254 230.428 124.207 230.105 124.115C229.828 124.022 229.505 123.929 229.228 123.836C228.628 123.605 228.074 123.744 227.566 124.161C227.104 124.532 226.596 124.81 226.135 125.135C226.411 125.83 227.15 125.737 227.15 125.737Z" fill="#FA4616"/>
<path d="M222.671 135.242C222.763 134.314 222.994 133.433 223.548 132.692C223.825 132.321 224.103 131.903 224.379 131.533C224.657 131.162 224.794 130.744 224.841 130.327C224.887 129.724 225.164 129.261 225.58 128.843C226.042 128.334 226.596 127.916 227.196 127.545C227.842 127.128 228.489 126.989 229.273 127.174C230.013 127.314 230.752 127.499 231.49 127.592C231.813 127.638 232.136 127.731 232.459 127.916C232.598 128.009 232.783 128.055 232.968 128.102C233.152 128.148 233.337 128.148 233.476 128.148C233.845 128.148 234.169 128.194 234.537 128.194C235.092 128.241 235.461 128.473 235.692 128.936C235.83 129.214 236.015 129.493 236.246 129.724C236.615 130.095 236.985 130.42 237.447 130.744C237.816 131.023 238.185 131.254 238.462 131.579C238.462 131.579 238.601 131.718 238.693 131.857C238.785 132.135 238.878 132.413 238.924 132.692C239.063 133.433 239.108 134.129 239.063 134.871C239.016 135.149 239.063 135.427 239.063 135.705C239.063 135.844 239.063 135.983 239.063 136.123C239.063 136.447 238.971 136.725 238.832 136.957C238.648 137.282 238.416 137.606 238.185 137.931C238.555 138.812 238.74 139.646 238.647 140.434C238.601 140.62 238.555 140.851 238.509 141.037C238.693 140.851 238.785 140.62 238.785 140.341C238.785 139.878 238.879 139.414 239.016 138.997C239.155 138.626 239.247 138.209 239.339 137.838C239.57 136.771 239.478 136.911 240.125 136.03C240.402 135.659 240.448 135.242 240.402 134.824C240.355 134.546 240.309 134.268 240.263 133.99C240.217 133.248 239.801 132.599 239.57 131.903L239.431 131.533C239.431 131.486 239.386 131.44 239.386 131.44C239.247 131.115 239.016 130.883 238.785 130.652C238.462 130.327 238.186 130.003 238.093 129.539C238.047 129.168 237.816 128.89 237.493 128.658C237.308 128.519 237.124 128.38 236.938 128.241C236.477 127.777 235.923 127.453 235.276 127.314C234.86 127.221 234.492 127.035 234.075 126.85C232.414 126.943 230.567 127.128 230.613 126.525C230.613 126.294 230.659 126.062 230.705 125.784C230.289 125.784 229.827 125.784 229.412 125.876C228.719 126.015 228.027 126.154 227.381 126.34C227.426 127.174 226.365 127.731 225.21 128.055C225.21 128.055 225.164 128.055 225.164 128.102C224.702 128.426 224.287 128.843 224.009 129.307C223.825 129.632 223.594 129.91 223.41 130.188C223.086 130.605 222.855 131.069 222.717 131.579C222.579 132.043 222.394 132.506 222.117 132.877C222.025 133.016 221.931 133.155 221.886 133.294C221.655 133.712 221.516 134.175 221.424 134.639C221.378 134.871 221.378 135.149 221.332 135.381C221.332 135.473 221.378 135.566 221.332 135.705C221.285 136.123 221.285 136.586 221.285 137.003C221.285 137.282 221.332 137.513 221.471 137.699C221.563 137.838 221.655 137.931 221.702 138.07C221.886 138.348 222.025 138.58 222.162 138.858C222.44 137.699 222.671 136.771 222.855 136.123C222.717 135.937 222.671 135.612 222.671 135.242Z" fill="#FA4616"/>
<path d="M224.333 142.845C224.518 143.216 224.749 143.587 224.934 143.958C225.026 144.143 225.165 144.282 225.349 144.375C225.441 144.422 225.58 144.468 225.672 144.514C226.042 144.653 226.319 144.839 226.596 145.163C226.734 145.302 226.873 145.395 227.057 145.488C227.196 145.534 227.335 145.627 227.474 145.673C227.519 145.72 227.611 145.766 227.658 145.812C227.75 146.044 227.934 146.091 228.165 146.091C228.351 146.091 228.535 146.091 228.72 146.091C229.228 146.044 229.736 145.998 230.243 145.952C230.705 145.905 231.075 145.766 231.398 145.395L231.444 145.349C231.906 144.885 232.46 144.653 233.061 144.561C233.291 144.561 233.522 144.514 233.753 144.468C233.984 144.422 234.215 144.375 234.399 144.236C234.722 144.051 235 143.865 235.323 143.633L235.368 142.521C235.045 142.845 234.677 143.031 234.261 143.031C233.799 143.031 233.384 143.123 232.967 143.309C232.276 143.587 231.629 143.912 230.936 144.236C230.566 144.422 230.198 144.561 229.828 144.7C229.782 144.746 229.644 144.746 229.644 144.793C229.644 144.932 229.551 144.932 229.459 144.978C229.366 145.024 229.274 145.071 229.182 145.117C228.858 145.302 228.535 145.302 228.212 145.163C227.889 144.978 227.519 144.885 227.15 144.793C227.057 144.746 226.965 144.746 226.827 144.7C226.596 144.607 226.411 144.468 226.319 144.236C226.042 143.68 225.719 143.077 225.533 142.474C225.441 142.057 225.21 141.64 224.887 141.315C224.564 140.991 224.38 140.573 224.287 140.11C224.195 139.739 224.102 139.414 224.01 139.043C223.872 138.58 223.687 138.163 223.594 137.699C223.549 137.374 223.41 137.096 223.271 136.865C223.271 136.818 223.225 136.818 223.225 136.772L223.502 140.62C223.779 140.991 223.964 141.362 224.056 141.825C224.056 142.289 224.149 142.567 224.333 142.845Z" fill="#FA4616"/>
<path d="M219.023 145.952C219.208 146.23 219.347 146.508 219.531 146.786C219.578 146.833 219.578 146.879 219.623 146.972C219.623 146.972 219.716 146.972 219.809 147.064C219.901 147.203 219.993 147.343 220.085 147.435C220.177 147.343 220.224 147.25 220.316 147.203C220.408 147.157 220.5 147.157 220.639 147.111C220.5 146.972 220.363 146.833 220.224 146.694L220.132 146.554C219.901 146.276 219.485 145.488 219.485 145.488C219.393 145.303 219.3 145.117 219.208 144.932C218.977 144.514 218.746 144.144 218.516 143.726C218.423 143.587 218.33 143.402 218.238 143.263C218.285 144.051 218.423 144.793 218.561 145.442C218.746 145.627 218.885 145.766 219.023 145.952Z" fill="#FA4616"/>
<path d="M227.612 123.466C227.936 123.234 228.304 123.141 228.721 123.141C229.044 123.141 229.367 123.234 229.644 123.327C230.198 123.558 230.752 123.697 231.353 123.79C231.629 123.28 231.814 122.77 231.999 122.353C231.629 122.353 231.214 122.353 230.844 122.307C230.521 122.307 230.244 122.353 229.921 122.446C229.459 122.631 228.997 122.677 228.535 122.585C228.351 122.538 228.167 122.538 227.981 122.585C227.427 122.677 226.827 122.724 226.273 122.909C226.134 122.956 226.042 123.002 225.903 123.002C225.95 123.605 225.997 124.254 226.042 124.671C226.32 124.486 226.55 124.3 226.827 124.068C227.058 123.883 227.335 123.651 227.612 123.466Z" fill="#FA4616"/>
<path d="M236.939 127.916C237.077 128.056 237.215 128.148 237.4 128.287C237.031 127.731 236.753 127.36 236.661 127.175C236.43 126.896 235.692 126.85 234.814 126.85C235.045 126.943 235.276 126.989 235.507 127.082C236.015 127.221 236.522 127.499 236.939 127.916Z" fill="#FA4616"/>
<path d="M228.858 122.353C228.951 122.353 229.089 122.353 229.181 122.306C229.598 122.121 230.013 122.075 230.428 122.028C230.52 122.028 230.659 122.028 230.751 122.028C230.89 122.028 231.075 122.028 231.213 122.028C231.49 122.028 231.768 122.028 232.091 122.028C232.183 121.704 232.275 121.379 232.322 121.055C231.952 121.055 231.537 121.147 231.167 121.24C231.075 121.287 231.029 121.287 230.936 121.287C230.428 121.379 229.921 121.426 229.367 121.379C228.997 121.333 228.674 121.333 228.304 121.333C227.981 121.333 227.657 121.287 227.334 121.287C227.15 121.287 226.919 121.287 226.735 121.24C226.504 121.24 226.319 121.24 226.088 121.24C225.996 121.24 225.903 121.24 225.811 121.24C225.811 121.472 225.811 121.611 225.811 121.518C225.811 121.518 225.811 122.075 225.857 122.77C226.18 122.631 226.504 122.585 226.827 122.492C227.52 122.353 228.166 122.26 228.858 122.353Z" fill="#FA4616"/>
<path d="M234.677 144.792C234.4 144.978 234.03 145.071 233.707 145.117C233.476 145.117 233.291 145.163 233.06 145.163C232.6 145.21 232.183 145.349 231.815 145.627C231.629 145.766 231.445 145.905 231.306 146.044C231.121 146.183 230.937 146.23 230.752 146.276C229.968 146.369 229.136 146.415 228.351 146.369C228.12 146.369 227.89 146.276 227.704 146.23C227.612 146.183 227.52 146.137 227.473 146.044C227.381 145.905 227.289 145.859 227.15 145.859C226.782 145.812 226.55 145.627 226.319 145.395C226.181 145.256 225.996 145.117 225.812 145.024C225.673 144.978 225.534 144.885 225.396 144.839C225.027 144.7 224.749 144.422 224.565 144.097C224.426 143.819 224.242 143.541 224.057 143.309C223.919 143.077 223.78 142.845 223.688 142.613L223.826 144.839C223.872 144.885 223.964 144.978 224.011 145.024C224.242 145.349 224.565 145.581 224.98 145.72C225.627 145.905 226.181 146.23 226.643 146.693C226.874 146.925 227.105 147.064 227.428 147.111C227.567 147.111 227.704 147.157 227.843 147.203C227.982 147.203 228.166 147.25 228.305 147.203C228.536 147.157 228.767 147.111 228.997 147.111C229.228 147.064 229.459 147.064 229.69 147.111C229.598 147.157 229.506 147.203 229.414 147.25C229.69 147.296 229.968 147.296 230.244 147.296C230.659 147.25 231.075 147.157 231.491 147.111C231.86 147.064 232.183 147.018 232.553 146.925C232.876 146.879 233.199 146.693 233.476 146.508C233.707 146.322 233.938 146.137 234.169 145.952C234.446 145.673 234.77 145.488 235.138 145.395L235.185 144.514C235.046 144.561 234.862 144.7 234.677 144.792Z" fill="#FA4616"/>
<path d="M219.346 142.242C219.716 142.567 219.993 142.984 220.177 143.448C220.269 143.726 220.455 143.958 220.593 144.19C220.686 144.329 220.778 144.421 220.87 144.514C220.962 144.607 221.054 144.746 221.146 144.839C221.24 144.931 221.332 145.024 221.424 145.117C221.563 145.256 221.747 145.395 221.886 145.534C221.978 145.627 222.07 145.72 222.209 145.766C222.209 145.766 222.394 145.905 222.486 145.998C222.717 146.229 222.901 146.461 223.132 146.693C223.318 146.925 223.594 147.018 223.872 147.064C224.009 147.11 224.195 147.11 224.379 147.11C224.795 147.157 225.21 147.25 225.58 147.389C225.995 147.574 226.41 147.806 226.827 148.084C227.057 148.223 227.288 148.316 227.565 148.362C227.75 148.362 227.934 148.409 228.073 148.409C228.674 148.409 229.32 148.455 229.966 148.455C230.197 148.455 230.428 148.409 230.658 148.316C231.167 148.13 231.629 148.084 232.136 148.177C232.46 148.223 232.783 148.223 233.106 148.13C233.29 148.084 233.429 148.084 233.613 148.038C234.03 147.991 234.399 147.899 234.815 147.713C235.276 147.528 235.785 147.389 236.245 147.296C236.384 147.296 236.476 147.25 236.615 147.203C236.846 147.11 237.077 146.971 237.216 146.786C237.308 146.647 237.446 146.508 237.539 146.322C237.769 146.044 238 145.766 238.278 145.534C238.646 145.21 239.108 144.978 239.524 144.746C239.755 144.653 239.94 144.468 240.078 144.282C240.217 144.097 240.309 143.958 240.448 143.772C240.724 143.309 241.002 142.845 241.278 142.381C241.464 142.103 241.602 141.779 241.648 141.454C241.74 140.944 241.926 140.527 242.249 140.11C242.341 140.017 242.433 139.878 242.479 139.785C242.618 139.414 242.757 139.09 242.895 138.719C242.895 138.672 242.895 138.672 242.941 138.626C242.802 138.07 242.572 137.467 242.295 136.725C242.295 136.725 242.249 136.771 242.249 136.818C242.064 137.003 241.879 137.189 241.695 137.374C241.417 137.652 241.233 137.977 241.233 138.394C241.186 138.904 241.094 139.414 240.91 139.924C240.679 140.481 240.448 141.037 240.217 141.64C239.894 142.428 239.432 143.17 238.785 143.772C238.323 144.19 237.862 144.607 237.4 145.024C237.031 145.349 236.615 145.58 236.153 145.673C235.877 145.72 235.599 145.812 235.368 145.905C235.092 145.998 234.861 146.137 234.676 146.322C234.491 146.508 234.306 146.647 234.075 146.832C233.613 147.203 233.106 147.389 232.506 147.435C231.721 147.481 230.936 147.574 230.151 147.62C230.012 147.62 229.828 147.667 229.689 147.667C229.412 147.667 229.089 147.667 228.811 147.574C228.766 147.574 228.674 147.574 228.627 147.574C228.304 147.667 228.027 147.667 227.704 147.62C227.565 147.574 227.473 147.574 227.334 147.528C226.965 147.481 226.641 147.296 226.365 147.064C226.226 146.925 226.042 146.786 225.856 146.647C225.533 146.415 225.164 146.276 224.749 146.137C224.379 146.044 224.056 145.859 223.825 145.58L223.872 146.415C223.872 146.415 222.301 145.349 221.794 143.448C221.47 143.077 221.146 142.66 220.823 142.335C220.455 142.01 220.224 141.593 220.085 141.13C219.946 140.712 219.808 140.295 219.577 139.924C219.3 139.414 219.162 138.904 219.207 138.348C219.207 137.745 219.069 137.189 218.931 136.632C218.608 138.116 218.422 139.507 218.33 140.759C218.469 141.037 218.653 141.315 218.792 141.64C218.884 141.732 219.115 142.01 219.346 142.242Z" fill="#FA4616"/>
<path d="M240.771 134.036C240.771 134.268 240.817 134.5 240.817 134.732C240.863 135.381 240.725 135.937 240.309 136.493L240.263 136.54C239.986 136.911 239.754 137.328 239.662 137.838C239.662 137.931 239.617 138.023 239.617 138.07C239.525 138.394 239.431 138.765 239.339 139.09C239.155 139.553 239.016 140.063 239.063 140.573C239.063 140.944 238.924 141.222 238.693 141.5C238.509 141.686 238.323 141.825 238.139 142.011C237.447 143.309 236.292 144.607 235.646 145.256C235.83 145.21 235.969 145.163 236.153 145.117C236.431 145.07 236.662 144.978 236.893 144.792C237.261 144.514 237.677 144.236 238.047 143.911C238.785 143.262 239.386 142.474 239.801 141.547C239.94 141.176 240.078 140.805 240.217 140.481C240.54 139.739 240.771 138.997 240.817 138.162C240.817 137.838 240.955 137.606 241.186 137.374C241.372 137.142 241.556 136.957 241.787 136.772C241.926 136.633 242.018 136.447 242.063 136.262C241.695 135.473 241.278 134.639 240.817 133.804C240.725 133.851 240.771 133.943 240.771 134.036Z" fill="#FA4616"/>
<path d="M219.347 135.52C219.347 135.613 219.347 135.659 219.347 135.752C219.347 135.752 219.347 136.03 219.347 136.123C219.392 136.308 219.392 136.494 219.486 136.633C219.623 137.096 219.67 137.56 219.67 138.07C219.67 138.58 219.809 139.044 220.04 139.507C220.224 139.878 220.363 140.249 220.455 140.62C220.593 141.13 220.824 141.547 221.194 141.918C221.333 142.057 221.47 142.196 221.564 142.335C221.517 141.964 221.563 141.547 221.656 141.084C221.748 140.62 221.84 140.156 221.932 139.693C221.84 139.554 221.748 139.368 221.701 139.229C221.564 138.905 221.378 138.534 221.147 138.255C220.824 137.792 220.732 137.328 220.778 136.772C220.824 136.494 220.824 136.216 220.824 135.937C220.824 135.891 220.824 135.845 220.824 135.752C220.824 135.752 220.824 135.659 220.824 135.52C220.824 135.335 220.871 135.196 220.871 135.056C220.871 134.871 220.917 134.825 220.917 134.825C220.963 134.686 221.009 134.5 221.055 134.315C221.101 134.129 221.194 133.805 221.194 133.805C221.286 133.434 221.425 133.109 221.656 132.785C221.979 132.321 222.21 131.811 222.348 131.255C222.441 130.884 222.578 130.559 222.809 130.235C223.04 129.91 223.318 129.539 223.548 129.215C223.687 129.029 223.826 128.844 223.965 128.658C224.102 128.519 224.195 128.38 224.333 128.241C222.902 128.566 221.517 128.658 221.517 128.658C220.455 130.884 219.716 132.97 219.208 134.825C219.255 134.917 219.255 134.964 219.3 135.056C219.3 135.149 219.347 135.335 219.347 135.52Z" fill="#FA4616"/>
<path d="M219.162 144.143C219.3 144.422 219.438 144.746 219.577 145.024C219.669 145.163 219.716 145.349 219.808 145.488C219.946 145.72 220.039 145.905 220.177 146.137C220.177 146.137 220.269 146.276 220.455 146.508C220.592 146.647 220.731 146.786 220.87 146.925L221.146 147.203C221.377 147.435 221.655 147.667 221.886 147.899L222.024 148.038C222.44 148.409 222.809 148.733 223.271 149.011C223.641 149.197 224.009 149.29 224.425 149.336C225.026 149.429 225.625 149.522 226.226 149.614C226.596 149.661 226.919 149.707 227.288 149.753C227.981 149.846 228.674 149.8 229.366 149.614C229.874 149.475 230.382 149.382 230.936 149.429C231.536 149.475 232.183 149.475 232.783 149.522C232.922 149.522 233.06 149.568 233.245 149.568C233.476 149.568 233.707 149.614 233.938 149.614C234.122 149.614 234.306 149.614 234.491 149.614C234.722 149.661 234.999 149.614 235.23 149.522C235.969 149.29 236.662 149.058 237.4 148.826C237.677 148.733 238 148.594 238.278 148.502C238.646 148.316 239.016 148.084 239.247 147.713C239.57 147.296 239.847 146.925 240.171 146.508C240.448 146.137 240.724 145.812 241.002 145.442C242.156 143.263 242.988 140.898 243.033 139.553C243.033 139.507 243.033 139.414 243.033 139.368C242.895 139.832 242.664 140.249 242.341 140.666C242.202 140.852 242.11 141.037 242.11 141.223C242.11 141.269 242.064 141.362 242.064 141.408C241.926 141.872 241.787 142.335 241.509 142.753C241.186 143.216 240.91 143.726 240.632 144.236C240.356 144.792 239.94 145.21 239.339 145.534C238.832 145.812 238.417 146.137 238.047 146.554C237.862 146.74 237.677 146.925 237.493 147.111C237.216 147.389 236.938 147.528 236.569 147.574C235.969 147.621 235.368 147.806 234.815 148.038C234.537 148.131 234.261 148.223 233.938 148.316C233.198 148.502 232.506 148.641 231.767 148.502C231.629 148.455 231.49 148.502 231.351 148.594C231.259 148.641 231.167 148.641 231.075 148.687C230.613 148.78 230.105 148.872 229.597 148.872C228.95 148.826 228.304 148.872 227.658 148.872C227.196 148.872 226.734 148.733 226.365 148.502C225.764 148.131 225.118 147.899 224.471 147.76C224.287 147.713 224.148 147.667 223.964 147.621C223.641 147.528 223.318 147.389 223.087 147.111L222.994 146.972C222.809 146.74 222.625 146.508 222.486 146.322C222.347 146.137 222.209 146.091 222.209 146.091C222.024 145.952 221.839 145.812 221.655 145.673L221.516 145.581C221.193 145.21 220.87 144.885 220.5 144.514C220.316 144.283 220.131 144.051 219.993 143.772C219.9 143.633 219.854 143.448 219.762 143.309C219.716 143.216 219.669 143.17 219.623 143.123C219.3 142.892 219.115 142.567 218.839 142.335C218.745 142.242 218.653 142.103 218.608 141.964C218.514 141.779 218.422 141.64 218.33 141.454C218.33 141.872 218.33 142.289 218.33 142.66C218.469 142.845 218.608 143.077 218.7 143.309C218.792 143.494 219.023 143.819 219.162 144.143Z" fill="#FA4616"/>
<path d="M219.484 147.342C219.392 147.25 219.347 147.203 219.347 147.203C219.161 146.925 219.024 146.693 218.885 146.461C219.069 147.064 219.253 147.621 219.439 148.084C219.531 147.991 219.623 147.899 219.715 147.852C219.623 147.667 219.531 147.528 219.484 147.342Z" fill="#FA4616"/>
<path d="M219.901 148.084C219.715 148.084 219.623 148.177 219.484 148.27C219.578 148.455 219.623 148.641 219.715 148.78C219.715 148.733 219.762 148.687 219.762 148.641C219.808 148.409 219.854 148.27 219.901 148.084Z" fill="#FA4616"/>
<path d="M237.308 133.804C237.308 133.526 237.169 133.341 236.938 133.202C236.754 133.062 236.523 132.97 236.337 132.877C236.153 132.784 235.969 132.738 235.784 132.691C235.414 132.552 235.045 132.321 234.814 131.95C234.537 131.579 234.306 131.161 234.075 130.744C233.936 130.466 233.752 130.281 233.429 130.142C233.059 129.956 232.69 129.771 232.367 129.492C232.182 129.353 231.952 129.261 231.674 129.261C231.49 129.261 231.304 129.261 231.12 129.261C230.474 129.353 229.874 129.4 229.226 129.492C229.134 129.492 229.089 129.492 228.997 129.539C228.719 129.585 228.488 129.771 228.396 130.049C228.257 130.373 228.073 130.698 227.888 130.976C227.749 131.115 227.657 131.301 227.518 131.486C227.242 131.857 226.919 132.181 226.549 132.413C226.457 132.506 226.318 132.599 226.226 132.691C225.948 133.062 225.672 133.433 225.394 133.804C225.256 133.99 225.21 134.175 225.21 134.407C225.21 134.685 225.21 134.917 225.164 135.195C225.164 135.566 225.21 135.891 225.394 136.215C225.672 136.679 225.81 137.142 225.856 137.652C225.903 138.023 226.041 138.394 226.226 138.719C226.502 139.136 226.641 139.646 226.688 140.156C226.688 140.48 226.78 140.759 226.964 141.037C227.149 141.361 227.287 141.686 227.242 142.057C227.242 142.242 227.287 142.428 227.38 142.613C227.426 142.706 227.518 142.799 227.518 142.891C227.518 143.216 227.749 143.401 227.98 143.587C228.119 143.679 228.257 143.726 228.396 143.726C228.442 143.726 228.488 143.726 228.58 143.726C228.719 143.772 228.858 143.726 228.95 143.633C229.32 143.401 229.688 143.216 230.012 142.984C230.658 142.52 231.304 142.149 232.044 141.918C232.459 141.779 232.829 141.593 233.198 141.315C233.66 141.037 233.983 140.619 234.122 140.11C234.306 139.46 234.629 138.95 235.137 138.487C235.23 138.394 235.368 138.301 235.46 138.162L235.553 135.937C235.368 136.122 235.23 136.4 235.137 136.632C234.814 137.513 234.259 138.255 233.568 138.904C233.29 139.136 233.013 139.368 232.69 139.507C232.413 139.646 232.136 139.785 231.905 139.878C231.721 139.97 231.582 140.11 231.49 140.341C231.398 140.573 231.259 140.805 231.028 140.99C230.566 141.408 230.058 141.779 229.55 142.149C229.273 142.335 228.997 142.474 228.673 142.567C228.58 142.567 228.535 142.613 228.442 142.66C228.165 142.845 227.98 142.706 227.934 142.428C227.888 142.196 227.888 141.964 227.888 141.686C227.888 141.454 227.888 141.269 227.888 141.037C227.888 140.805 227.842 140.573 227.796 140.295C227.703 139.739 227.611 139.136 227.565 138.58C227.518 138.301 227.518 137.977 227.472 137.699C227.426 137.374 227.426 137.05 227.334 136.725C227.056 135.937 227.056 135.149 227.195 134.314C227.242 133.897 227.334 133.48 227.426 133.109C227.518 132.738 227.565 132.367 227.657 131.996C227.703 131.718 227.842 131.486 227.98 131.254C228.349 130.744 228.811 130.327 229.412 130.002C229.827 129.771 230.289 129.724 230.751 129.817C231.398 129.91 232.044 130.095 232.598 130.512C232.967 130.791 233.152 131.115 233.152 131.579C233.152 131.718 233.152 131.811 233.106 131.95C233.059 132.274 233.198 132.46 233.475 132.599C233.66 132.691 233.844 132.738 234.075 132.784C234.398 132.877 234.768 132.97 235.137 133.062C235.414 133.155 235.599 133.294 235.784 133.48V133.155C236.2 133.943 236.615 134.685 237.03 135.427C237.169 135.01 237.261 134.546 237.353 134.082C237.308 134.222 237.308 133.99 237.308 133.804Z" fill="#FA4616"/>
<path d="M227.058 120.869C227.058 120.869 227.058 120.916 227.011 120.962C227.197 120.962 227.428 121.008 227.612 121.008C228.304 121.008 228.951 121.008 229.643 121.008C230.058 121.008 230.475 120.962 230.89 120.869C231.167 120.823 231.49 120.73 231.768 120.684C231.952 120.638 232.136 120.638 232.322 120.638C232.322 120.406 232.322 120.128 232.322 119.942C231.075 119.849 229.829 119.942 228.581 119.988C228.258 119.988 227.935 120.081 227.657 120.174C227.428 120.267 227.103 120.313 226.827 120.313C226.504 120.313 226.226 120.313 225.903 120.313C225.857 120.545 225.857 120.777 225.811 120.962C225.949 120.962 226.088 120.916 226.226 120.916C226.55 120.869 226.78 120.869 227.058 120.869Z" fill="#FA4616"/>
<path d="M227.427 119.71C227.703 119.571 228.026 119.478 228.304 119.478C229.135 119.386 229.92 119.386 230.752 119.478C231.259 119.525 231.767 119.571 232.321 119.617C232.229 119.2 232.09 118.829 231.859 118.505C231.398 118.458 230.936 118.412 230.521 118.273C229.967 118.134 229.412 118.087 228.812 118.18C228.35 118.226 227.934 118.273 227.472 118.366C227.149 118.412 226.826 118.505 226.503 118.644C226.272 119.107 226.134 119.571 226.042 120.035C226.226 120.035 226.365 120.035 226.549 120.035C226.826 119.896 227.104 119.849 227.427 119.71Z" fill="#FA4616"/>
<path d="M228.535 117.856C229.273 117.763 229.966 117.763 230.705 117.902C230.889 117.948 231.12 117.948 231.306 117.948H231.351C230.705 117.346 229.735 117.067 228.766 117.067C227.842 117.067 227.195 117.531 226.733 118.134C227.011 118.041 227.288 117.995 227.565 117.948C227.888 117.948 228.212 117.902 228.535 117.856Z" fill="#FA4616"/>
<path d="M238.278 137.143C238.556 136.772 238.648 136.354 238.601 135.844C238.556 135.52 238.556 135.195 238.556 134.871C238.601 134.083 238.463 133.295 238.278 132.506C238.232 132.275 238.139 132.089 238.002 131.95C237.908 131.857 237.863 131.764 237.724 131.811C237.724 131.811 237.724 131.811 237.679 131.764C237.679 131.718 237.724 131.718 237.771 131.672C237.632 131.579 237.54 131.486 237.401 131.394C236.893 131.023 236.385 130.605 235.969 130.095C235.693 129.771 235.462 129.446 235.278 129.075C235.139 128.797 234.908 128.658 234.585 128.612C234.4 128.612 234.169 128.612 233.984 128.565C233.707 128.565 233.43 128.565 233.153 128.519C232.875 128.473 232.552 128.426 232.322 128.241C231.998 128.009 231.629 127.916 231.26 127.87C231.029 127.824 230.752 127.777 230.521 127.777C229.967 127.685 229.413 127.592 228.905 127.499C228.535 127.453 228.166 127.499 227.842 127.685C227.243 128.009 226.735 128.426 226.227 128.89C225.765 129.307 225.441 129.817 225.396 130.466C225.349 130.791 225.257 131.115 225.118 131.394C224.981 131.672 224.795 131.904 224.657 132.135C224.426 132.46 224.195 132.784 223.964 133.109C223.733 133.434 223.595 133.758 223.502 134.175C223.41 134.5 223.364 134.825 223.318 135.149C223.271 135.473 223.271 135.798 223.41 136.076C223.502 136.308 223.595 136.54 223.687 136.725C223.826 137.096 223.918 137.421 224.057 137.792C224.149 138.116 224.241 138.441 224.38 138.812C224.519 139.229 224.703 139.692 224.75 140.156C224.795 140.527 224.981 140.852 225.257 141.13C225.627 141.501 225.858 141.918 225.996 142.428C226.134 143.031 226.412 143.541 226.689 144.097C226.781 144.283 226.92 144.375 227.104 144.422C227.151 144.422 227.243 144.468 227.289 144.468C227.658 144.561 227.981 144.653 228.351 144.839C228.397 144.839 228.443 144.885 228.49 144.885C228.813 144.839 229.09 144.839 229.367 144.653C229.644 144.468 229.967 144.329 230.337 144.236C230.337 144.283 230.29 144.283 230.29 144.329C230.382 144.283 230.429 144.283 230.474 144.236C230.705 144.051 230.983 143.912 231.214 143.726C232.137 143.077 233.153 142.567 234.307 142.521C234.538 142.521 234.769 142.428 234.953 142.242C235.139 142.103 235.278 141.918 235.462 141.779L235.601 138.997C235.231 139.322 235 139.739 234.861 140.203C234.63 140.944 234.215 141.501 233.568 141.872C233.153 142.15 232.691 142.382 232.184 142.428C231.814 142.474 231.445 142.613 231.121 142.799C230.66 143.077 230.245 143.309 229.783 143.587C229.413 143.772 229.043 143.958 228.628 144.004C228.397 144.051 228.167 144.004 227.981 143.819C227.889 143.726 227.75 143.68 227.658 143.587C227.519 143.494 227.427 143.355 227.382 143.216C227.335 143.077 227.335 142.938 227.243 142.799C227.104 142.567 227.012 142.289 227.012 142.011C227.012 141.686 226.92 141.408 226.781 141.13C226.596 140.852 226.504 140.527 226.458 140.156C226.412 139.692 226.319 139.229 226.042 138.858C225.811 138.487 225.672 138.07 225.627 137.606C225.58 137.143 225.441 136.679 225.212 136.262C225.026 135.891 224.934 135.52 224.981 135.103C224.981 134.825 224.981 134.593 225.026 134.314C225.026 133.99 225.118 133.712 225.304 133.434C225.627 133.016 225.95 132.553 226.273 132.135C226.458 131.904 226.689 131.672 226.873 131.394C227.104 131.115 227.289 130.837 227.474 130.513C227.613 130.281 227.75 130.003 227.889 129.725C228.167 129.215 228.582 128.89 229.182 128.797C229.828 128.705 230.521 128.658 231.167 128.612C231.352 128.612 231.537 128.612 231.722 128.612C232.137 128.658 232.507 128.844 232.83 129.122C233.014 129.261 233.199 129.4 233.43 129.539C233.568 129.632 233.753 129.725 233.892 129.817C234.076 129.956 234.215 130.142 234.354 130.327C234.492 130.513 234.63 130.698 234.769 130.884C234.816 130.976 234.908 131.069 235 131.162C235.278 131.533 235.601 131.764 236.016 131.904C236.293 132.043 236.616 132.135 236.893 132.228C237.078 132.321 237.262 132.414 237.448 132.553C237.724 132.784 237.908 133.109 237.955 133.48C238.002 133.804 237.955 134.083 237.908 134.407C237.771 134.917 237.679 135.381 237.493 135.891C237.493 135.937 237.448 136.03 237.448 136.076C237.679 136.54 237.908 136.957 238.139 137.374C238.186 137.282 238.278 137.235 238.325 137.143C238.186 137.328 238.232 137.235 238.278 137.143Z" fill="#FA4616"/>
<g opacity="0.75">
<path d="M226.826 120.313C227.104 120.313 227.38 120.267 227.658 120.174C227.981 120.035 228.257 119.988 228.581 119.988C229.828 119.942 231.075 119.896 232.321 119.942C232.321 119.803 232.275 119.71 232.275 119.571C231.767 119.525 231.259 119.478 230.705 119.432C229.874 119.339 229.089 119.339 228.257 119.432C227.934 119.478 227.658 119.525 227.38 119.664C227.104 119.803 226.78 119.896 226.457 119.896C226.273 119.896 226.134 119.896 225.949 119.896C225.903 120.035 225.903 120.127 225.856 120.267C226.226 120.313 226.549 120.313 226.826 120.313Z" fill="#FA4616"/>
</g>
<g opacity="0.75">
<path d="M222.163 138.951C222.025 138.673 221.84 138.394 221.702 138.163C221.609 138.023 221.517 137.931 221.471 137.792C221.332 137.56 221.286 137.328 221.286 137.096C221.286 136.679 221.286 136.215 221.332 135.798C221.332 135.705 221.286 135.613 221.332 135.473C221.379 135.242 221.379 134.964 221.424 134.732C221.517 134.268 221.655 133.804 221.886 133.387C221.979 133.248 222.025 133.109 222.118 132.97C222.394 132.553 222.579 132.135 222.717 131.672C222.856 131.162 223.087 130.698 223.41 130.281C223.641 130.003 223.826 129.678 224.011 129.4C224.334 128.936 224.703 128.519 225.165 128.195C225.165 128.195 225.211 128.195 225.211 128.148C224.934 128.241 224.657 128.287 224.38 128.38C224.241 128.519 224.103 128.658 224.011 128.797C223.872 128.983 223.733 129.168 223.594 129.354C223.363 129.678 223.087 130.049 222.856 130.374C222.625 130.698 222.486 131.023 222.394 131.394C222.256 131.95 222.025 132.46 221.702 132.924C221.517 133.248 221.332 133.573 221.24 133.944C221.24 133.944 221.148 134.268 221.101 134.453C221.056 134.639 221.009 134.824 220.962 134.964C220.962 134.964 220.917 135.01 220.917 135.195C220.917 135.334 220.917 135.473 220.87 135.659C220.87 135.798 220.87 135.891 220.87 135.891C220.87 135.937 220.917 136.03 220.87 136.076C220.87 136.354 220.87 136.633 220.825 136.911C220.778 137.467 220.87 137.931 221.193 138.394C221.424 138.719 221.563 139.043 221.748 139.368C221.84 139.553 221.887 139.692 221.979 139.832C222.025 139.507 222.071 139.229 222.163 138.951Z" fill="#FA4616"/>
</g>
<path d="M224.102 156.754C224.148 156.8 224.195 156.847 224.24 156.893C224.425 157.078 224.702 157.171 224.979 157.171H225.164H225.395C224.933 157.032 224.518 156.893 224.102 156.754Z" fill="#FA4616"/>
<g opacity="0.75">
<path d="M241.695 136.726C241.51 136.911 241.28 137.143 241.094 137.328C240.91 137.56 240.771 137.838 240.726 138.116C240.679 138.951 240.448 139.693 240.125 140.434C239.986 140.805 239.848 141.176 239.709 141.501C239.34 142.428 238.74 143.216 237.955 143.865C237.585 144.19 237.216 144.468 236.801 144.746C236.57 144.885 236.339 144.978 236.061 145.071C235.877 145.117 235.738 145.163 235.554 145.21C235.276 145.488 235.138 145.627 235.138 145.627V145.303C234.769 145.395 234.445 145.627 234.169 145.859C233.938 146.044 233.707 146.23 233.476 146.415C233.198 146.647 232.922 146.786 232.552 146.832C232.183 146.879 231.86 146.972 231.49 147.018C231.075 147.064 230.66 147.157 230.243 147.203C229.967 147.25 229.69 147.25 229.412 147.157C229.505 147.111 229.551 147.064 229.69 147.018C229.459 146.972 229.228 146.972 228.997 147.018C228.766 147.064 228.535 147.111 228.304 147.111C228.165 147.111 227.981 147.111 227.842 147.111C227.704 147.111 227.566 147.064 227.427 147.018C227.104 146.972 226.873 146.832 226.642 146.601C226.181 146.137 225.627 145.813 224.98 145.627C224.564 145.534 224.241 145.303 224.01 144.932C223.964 144.839 223.872 144.793 223.825 144.746L223.872 145.349C224.103 145.627 224.426 145.813 224.795 145.905C225.165 145.998 225.58 146.137 225.903 146.415C226.087 146.554 226.226 146.693 226.411 146.832C226.688 147.064 226.965 147.25 227.381 147.296C227.519 147.296 227.612 147.343 227.75 147.389C228.073 147.482 228.351 147.482 228.674 147.343C228.719 147.343 228.813 147.296 228.858 147.343C229.136 147.482 229.412 147.482 229.736 147.435C229.874 147.435 230.059 147.389 230.198 147.389C230.983 147.343 231.768 147.25 232.552 147.203C233.153 147.157 233.66 146.972 234.122 146.601C234.307 146.462 234.538 146.276 234.723 146.091C234.907 145.905 235.138 145.766 235.415 145.673C235.693 145.581 235.924 145.488 236.2 145.442C236.662 145.349 237.077 145.117 237.447 144.793C237.908 144.375 238.37 144.004 238.832 143.541C239.478 142.938 239.94 142.196 240.264 141.408C240.495 140.852 240.726 140.295 240.957 139.693C241.141 139.229 241.28 138.719 241.28 138.163C241.28 137.745 241.464 137.421 241.741 137.143C241.926 136.957 242.11 136.772 242.295 136.586C242.295 136.586 242.341 136.54 242.341 136.494C242.249 136.308 242.157 136.076 242.064 135.891C241.926 136.401 241.834 136.586 241.695 136.726Z" fill="#FA4616"/>
</g>
<g opacity="0.75">
<path d="M229.412 125.969C229.828 125.877 230.29 125.877 230.705 125.877C230.752 125.691 230.797 125.506 230.844 125.367C229.782 125.274 228.719 125.459 227.658 125.784C227.519 125.83 227.381 125.877 227.242 125.923C227.334 126.108 227.381 126.294 227.381 126.433C228.073 126.247 228.719 126.108 229.412 125.969Z" fill="#FA4616"/>
</g>
<g opacity="0.75">
<path d="M228.766 118.134C229.366 118.041 229.92 118.087 230.474 118.226C230.936 118.366 231.351 118.412 231.813 118.458C231.674 118.273 231.537 118.087 231.351 117.948H231.306C231.12 117.948 230.889 117.902 230.705 117.902C229.966 117.763 229.273 117.763 228.535 117.856C228.212 117.902 227.889 117.948 227.565 117.948C227.288 117.995 227.011 118.041 226.734 118.134C226.641 118.273 226.549 118.412 226.457 118.551C226.78 118.412 227.103 118.319 227.427 118.273C227.889 118.226 228.351 118.18 228.766 118.134Z" fill="#FA4616"/>
</g>
<g opacity="0.75">
<path d="M229.275 123.883C229.551 123.976 229.828 124.115 230.151 124.161C230.475 124.254 230.798 124.3 231.121 124.393C231.214 124.115 231.259 123.976 231.259 123.976C231.306 123.929 231.306 123.883 231.352 123.836C230.798 123.744 230.197 123.605 229.643 123.373C229.367 123.234 229.044 123.187 228.72 123.187C228.304 123.187 227.935 123.28 227.612 123.512C227.334 123.744 227.058 123.929 226.78 124.161C226.549 124.346 226.273 124.578 225.995 124.764C225.995 124.81 225.995 124.856 225.995 124.903C226.042 125.042 226.042 125.135 226.088 125.227C226.596 124.903 227.058 124.578 227.52 124.254C228.12 123.79 228.627 123.697 229.275 123.883Z" fill="#FA4616"/>
</g>
<g opacity="0.75">
<path d="M227.935 122.585C228.119 122.538 228.304 122.585 228.489 122.585C228.951 122.631 229.459 122.631 229.874 122.446C230.152 122.353 230.475 122.306 230.798 122.306C231.167 122.306 231.583 122.306 231.952 122.353C231.999 122.214 232.044 122.121 232.044 121.982C231.768 121.982 231.49 121.982 231.167 121.982C231.029 121.982 230.844 121.982 230.706 121.982C230.613 121.982 230.475 121.982 230.382 121.982C229.966 122.075 229.551 122.121 229.136 122.26C229.043 122.306 228.905 122.306 228.812 122.306C228.119 122.214 227.428 122.306 226.78 122.492C226.457 122.585 226.088 122.677 225.811 122.77C225.811 122.863 225.811 122.956 225.811 123.002C225.949 122.956 226.042 122.909 226.18 122.909C226.735 122.77 227.334 122.677 227.935 122.585Z" fill="#FA4616"/>
</g>
<path d="M235.645 157.125C235.553 157.171 235.46 157.171 235.322 157.218C235.46 157.171 235.553 157.125 235.645 157.125Z" fill="#FA4616"/>
<g opacity="0.75">
<path d="M220.27 148.733C220.547 148.78 220.686 149.011 220.917 149.197C220.917 149.197 220.87 149.29 221.054 149.382C221.285 149.521 221.516 149.661 221.702 149.8C221.84 149.892 221.932 149.985 222.071 150.031C222.117 150.078 222.163 150.124 222.209 150.031C222.209 150.031 222.302 150.031 222.348 150.078C222.717 150.31 223.179 150.449 223.594 150.588C223.78 150.541 223.872 150.541 223.872 150.541V150.68C224.148 150.773 224.426 150.866 224.703 150.959C225.165 151.098 225.672 151.098 226.134 151.051C226.504 151.005 226.827 151.005 227.196 151.051C228.073 151.144 228.95 151.191 229.828 151.283C230.613 151.376 231.444 151.376 232.229 151.283C232.552 151.237 232.875 151.191 233.153 151.005C233.429 150.866 233.752 150.773 234.076 150.773C234.538 150.773 235 150.727 235.462 150.727L235.415 150.402C235.276 150.402 235.092 150.402 234.953 150.402C234.538 150.356 234.122 150.356 233.707 150.402C233.429 150.402 233.153 150.495 232.875 150.541C232.552 150.634 232.229 150.727 231.86 150.727C230.891 150.773 229.874 150.773 228.905 150.773C228.304 150.773 227.704 150.68 227.058 150.68C226.735 150.68 226.411 150.68 226.087 150.68C225.488 150.727 224.887 150.68 224.333 150.449C224.056 150.356 223.78 150.263 223.502 150.171C223.318 150.078 223.132 150.031 222.948 149.939C222.533 149.753 222.117 149.568 221.702 149.429C221.516 149.336 221.285 149.243 221.148 149.058C221.054 148.965 220.962 148.919 220.962 148.919C220.825 148.594 220.594 148.362 220.27 148.177C220.363 147.945 220.455 147.713 220.594 147.481C220.639 147.389 220.731 147.389 220.825 147.296C221.101 147.528 221.332 147.806 221.609 148.084L221.747 148.27C221.886 148.409 221.978 148.501 222.071 148.641C222.486 149.058 222.902 149.382 223.455 149.568C223.686 149.661 223.964 149.707 224.195 149.707C224.749 149.8 225.349 149.892 225.903 149.939C226.642 149.985 227.427 150.031 228.165 150.078C228.304 150.078 228.488 150.031 228.627 150.031C228.905 149.985 229.228 149.892 229.505 149.846C229.92 149.753 230.336 149.707 230.752 149.707C231.444 149.707 232.091 149.707 232.783 149.707C232.968 149.707 233.198 149.753 233.384 149.753C233.337 149.8 233.337 149.8 233.337 149.846C233.337 149.846 233.337 149.846 233.384 149.846C233.568 149.846 233.799 149.8 233.983 149.8C234.353 149.8 234.723 149.753 235.092 149.661C235.83 149.475 236.57 149.29 237.308 149.104C237.632 149.011 237.955 148.919 238.278 148.78C238.417 148.733 238.509 148.687 238.601 148.594C239.386 147.667 240.171 146.508 240.818 145.302C240.54 145.673 240.264 145.998 239.986 146.369C239.663 146.786 239.386 147.157 239.063 147.574C238.785 147.899 238.462 148.177 238.094 148.362C237.816 148.501 237.539 148.594 237.216 148.687C236.477 148.919 235.785 149.151 235.046 149.382C234.815 149.475 234.584 149.475 234.307 149.475C234.122 149.475 233.938 149.475 233.752 149.475C233.521 149.475 233.292 149.475 233.061 149.429C232.922 149.429 232.783 149.382 232.599 149.382C231.998 149.336 231.351 149.336 230.752 149.29C230.243 149.29 229.689 149.336 229.181 149.475C228.488 149.661 227.797 149.707 227.104 149.614C226.735 149.568 226.411 149.521 226.042 149.475C225.441 149.382 224.841 149.29 224.241 149.197C223.825 149.151 223.455 149.058 223.087 148.872C222.625 148.641 222.255 148.27 221.84 147.899L221.702 147.76C221.424 147.528 221.193 147.296 220.962 147.064L220.686 146.786C220.547 146.647 220.408 146.508 220.27 146.369C220.085 146.137 219.993 145.998 219.993 145.998C219.854 145.766 219.762 145.581 219.624 145.349C219.531 145.21 219.485 145.024 219.393 144.885C219.254 144.607 219.115 144.282 218.977 144.004C218.792 143.633 218.608 143.309 218.422 142.938C218.33 142.706 218.193 142.474 218.054 142.289C218.054 142.567 218.099 142.845 218.099 143.077C218.193 143.216 218.285 143.355 218.377 143.541C218.608 143.958 218.839 144.329 219.07 144.746C219.162 144.932 219.254 145.117 219.346 145.302C219.346 145.302 219.762 146.091 219.993 146.369L220.085 146.508C220.224 146.647 220.363 146.786 220.5 146.925C220.363 146.971 220.27 146.971 220.177 147.018C220.085 147.064 220.039 147.157 219.947 147.25C219.854 147.111 219.762 147.018 219.67 146.879C219.577 146.74 219.485 146.786 219.485 146.786C219.439 146.693 219.393 146.647 219.393 146.601C219.208 146.322 219.07 146.044 218.884 145.766C218.747 145.581 218.608 145.395 218.469 145.256C218.561 145.627 218.608 145.952 218.7 146.276C218.839 146.508 219.023 146.786 219.162 147.018C219.162 147.018 219.208 147.064 219.3 147.157C219.393 147.342 219.439 147.481 219.485 147.621C219.393 147.713 219.3 147.806 219.208 147.852C219.254 147.899 219.254 147.991 219.3 148.038C219.393 147.945 219.531 147.899 219.716 147.852C219.67 148.038 219.624 148.223 219.577 148.362C219.577 148.409 219.531 148.455 219.531 148.501C219.67 148.733 219.762 148.965 219.901 149.151C220.132 149.151 220.224 148.965 220.27 148.733Z" fill="#FA4616"/>
</g>
<g opacity="0.75">
<path d="M236.94 128.287C237.124 128.426 237.309 128.565 237.494 128.704C237.817 128.936 238.002 129.214 238.094 129.585C238.186 130.049 238.464 130.373 238.787 130.698C239.018 130.93 239.249 131.162 239.386 131.486C239.386 131.532 239.386 131.532 239.433 131.579L239.572 131.95C239.848 132.645 240.218 133.294 240.264 134.036C240.264 134.314 240.356 134.592 240.403 134.871C240.495 135.334 240.403 135.705 240.125 136.076C239.525 136.957 239.617 136.818 239.341 137.884C239.249 138.301 239.155 138.672 239.018 139.043C238.832 139.461 238.74 139.924 238.787 140.388C238.787 140.666 238.695 140.898 238.509 141.083C238.417 141.361 238.278 141.64 238.14 141.871C238.325 141.732 238.509 141.547 238.695 141.361C238.924 141.083 239.063 140.805 239.063 140.434C239.063 139.924 239.202 139.414 239.341 138.951C239.479 138.626 239.525 138.301 239.617 137.931C239.617 137.838 239.664 137.745 239.664 137.699C239.756 137.235 239.941 136.771 240.264 136.401L240.31 136.354C240.726 135.844 240.865 135.242 240.818 134.592C240.772 134.361 240.772 134.129 240.772 133.897C240.772 133.804 240.772 133.712 240.726 133.665C240.31 132.877 239.848 132.135 239.386 131.393C238.601 130.142 237.863 128.982 237.355 128.194C237.216 128.055 237.078 127.963 236.893 127.823C236.478 127.453 236.016 127.174 235.416 127.035C235.185 126.989 234.954 126.896 234.723 126.803C234.492 126.803 234.261 126.803 234.03 126.85C234.4 127.035 234.815 127.221 235.231 127.313C235.924 127.499 236.431 127.823 236.94 128.287Z" fill="#FA4616"/>
</g>
<g opacity="0.75">
<path d="M234.261 152.21C233.846 152.396 233.429 152.488 232.968 152.535C232.599 152.581 232.229 152.627 231.86 152.674C231.259 152.767 230.66 152.72 230.059 152.581C229.136 152.303 228.212 152.303 227.242 152.396C226.226 152.535 225.257 152.349 224.333 151.978C224.148 151.932 224.01 151.839 223.825 151.793V152.164C224.103 152.303 224.379 152.396 224.703 152.535C225.257 152.72 225.811 152.906 226.411 152.952C226.642 152.952 226.873 152.952 227.104 152.952C227.842 152.952 228.535 152.952 229.274 152.952C229.459 152.952 229.69 152.998 229.874 153.045C230.567 153.184 231.306 153.184 231.998 153.091C232.321 153.045 232.645 152.998 232.968 152.952C233.429 152.906 233.891 152.813 234.307 152.627C234.584 152.488 234.861 152.442 235.138 152.349C235.323 152.303 235.462 152.257 235.646 152.21L235.6 151.932C235.507 151.978 235.369 151.978 235.276 152.025C234.953 151.978 234.63 152.071 234.261 152.21Z" fill="#FA4616"/>
</g>
<g opacity="0.75">
<path d="M233.568 153.787C233.198 153.648 232.782 153.648 232.414 153.74C232.183 153.787 231.952 153.833 231.766 153.88C230.982 154.065 230.197 154.111 229.412 154.111C227.98 154.065 226.549 153.88 225.117 153.555C224.702 153.462 224.287 153.323 223.917 153.184V153.509C224.009 153.555 224.102 153.601 224.24 153.648C224.841 153.88 225.487 154.019 226.134 154.111C227.334 154.343 228.581 154.436 229.782 154.482C230.52 154.482 231.259 154.436 231.952 154.297C232.091 154.25 232.275 154.25 232.414 154.204C232.782 154.158 233.106 154.158 233.429 154.25C233.983 154.436 234.537 154.436 235.091 154.297C235.414 154.204 235.738 154.158 236.061 154.065L235.969 153.601C235.645 153.694 235.322 153.74 234.999 153.787C234.537 153.926 234.03 153.972 233.568 153.787Z" fill="#FA4616"/>
</g>
<g opacity="0.75">
<path d="M226.735 121.24C226.919 121.24 227.15 121.24 227.335 121.287C227.658 121.287 227.981 121.333 228.304 121.333C228.674 121.333 228.997 121.333 229.367 121.379C229.875 121.426 230.429 121.379 230.936 121.287C231.03 121.287 231.075 121.24 231.167 121.24C231.537 121.101 231.952 121.055 232.322 121.055C232.322 120.916 232.368 120.777 232.368 120.637C232.183 120.637 231.999 120.684 231.814 120.684C231.537 120.73 231.214 120.823 230.936 120.869C230.521 120.962 230.106 121.008 229.69 121.008C228.997 121.008 228.351 121.008 227.658 121.008C227.474 121.008 227.289 120.962 227.058 120.962C227.104 120.916 227.104 120.916 227.104 120.869C226.827 120.869 226.55 120.869 226.32 120.916C226.181 120.916 226.042 120.962 225.903 120.962C225.903 121.055 225.903 121.147 225.903 121.24C225.997 121.24 226.089 121.24 226.181 121.24C226.32 121.24 226.504 121.24 226.735 121.24Z" fill="#FA4616"/>
</g>
<g opacity="0.75">
<path d="M234.86 142.335C234.676 142.521 234.445 142.613 234.214 142.613C233.06 142.66 232.044 143.17 231.12 143.819C230.89 144.004 230.613 144.143 230.382 144.329C230.336 144.375 230.289 144.375 230.197 144.421C230.197 144.375 230.243 144.329 230.243 144.329C229.92 144.421 229.596 144.56 229.273 144.746C228.997 144.931 228.719 144.931 228.396 144.978C228.35 144.978 228.304 144.978 228.258 144.931C227.935 144.746 227.565 144.653 227.195 144.56C227.15 144.56 227.058 144.514 227.011 144.514C226.827 144.468 226.688 144.329 226.596 144.19C226.318 143.633 226.042 143.123 225.903 142.521C225.764 142.011 225.533 141.593 225.164 141.222C224.887 140.944 224.702 140.62 224.657 140.249C224.563 139.785 224.426 139.368 224.287 138.904C224.148 138.58 224.103 138.255 223.964 137.884C223.872 137.513 223.733 137.189 223.594 136.818C223.502 136.586 223.41 136.354 223.317 136.169C223.179 135.844 223.179 135.566 223.225 135.242C223.271 134.917 223.363 134.593 223.409 134.268C223.502 133.897 223.641 133.526 223.872 133.202C224.103 132.877 224.332 132.553 224.563 132.228C224.749 131.996 224.887 131.718 225.025 131.486C225.21 131.208 225.303 130.884 225.303 130.559C225.348 129.91 225.672 129.446 226.134 128.983C226.641 128.519 227.195 128.148 227.749 127.777C228.073 127.592 228.443 127.499 228.812 127.592C229.365 127.685 229.92 127.777 230.428 127.87C230.659 127.916 230.936 127.963 231.167 127.963C231.537 128.009 231.905 128.102 232.228 128.334C232.506 128.519 232.783 128.565 233.06 128.612C233.337 128.658 233.614 128.658 233.891 128.658C234.075 128.658 234.306 128.658 234.492 128.704C234.815 128.704 235.046 128.89 235.184 129.168C235.369 129.539 235.599 129.864 235.877 130.188C236.292 130.698 236.801 131.069 237.308 131.486C237.447 131.579 237.539 131.672 237.677 131.764C237.631 131.811 237.631 131.811 237.585 131.857L237.631 131.904C237.77 131.904 237.862 131.95 237.908 132.043C238.047 132.228 238.139 132.413 238.185 132.599C238.37 133.387 238.509 134.129 238.462 134.963C238.462 135.288 238.462 135.613 238.508 135.937C238.554 136.401 238.462 136.818 238.185 137.235C238.139 137.328 238.093 137.374 238.047 137.467C238.001 137.56 237.954 137.606 237.862 137.699C237.908 137.838 238.001 137.977 238.047 138.116C238.278 137.792 238.462 137.467 238.693 137.143C238.832 136.864 238.924 136.586 238.924 136.308C238.924 136.169 238.924 136.03 238.924 135.891C238.924 135.613 238.924 135.334 238.924 135.056C238.971 134.314 238.97 133.573 238.785 132.877C238.739 132.599 238.647 132.321 238.554 132.043C238.462 131.904 238.324 131.764 238.324 131.764C238.047 131.44 237.677 131.162 237.308 130.93C236.893 130.605 236.476 130.281 236.108 129.91C235.877 129.678 235.692 129.4 235.553 129.122C235.322 128.658 234.907 128.38 234.398 128.38C234.03 128.38 233.707 128.334 233.337 128.334C233.152 128.334 232.968 128.334 232.829 128.287C232.645 128.241 232.506 128.194 232.32 128.102C232.044 127.916 231.721 127.777 231.351 127.777C230.613 127.731 229.874 127.545 229.136 127.36C228.396 127.221 227.704 127.314 227.058 127.731C226.457 128.102 225.903 128.519 225.441 129.029C225.072 129.446 224.794 129.91 224.702 130.513C224.657 130.976 224.518 131.347 224.24 131.718C223.964 132.089 223.733 132.506 223.409 132.877C222.855 133.619 222.624 134.5 222.532 135.427C222.485 135.752 222.532 136.076 222.671 136.401C222.809 135.844 222.902 135.566 222.902 135.566L222.994 137.096C222.994 137.143 223.04 137.143 223.04 137.189C223.179 137.467 223.317 137.745 223.363 138.023C223.455 138.487 223.64 138.951 223.779 139.368C223.917 139.693 224.009 140.063 224.056 140.434C224.148 140.898 224.332 141.315 224.657 141.64C224.98 141.964 225.164 142.335 225.303 142.799C225.441 143.448 225.764 144.004 226.087 144.56C226.18 144.792 226.41 144.931 226.596 145.024C226.688 145.071 226.78 145.117 226.919 145.117C227.288 145.21 227.657 145.302 227.981 145.488C228.304 145.673 228.627 145.627 228.95 145.441C229.042 145.395 229.136 145.349 229.228 145.302C229.273 145.256 229.412 145.256 229.412 145.117C229.412 145.071 229.504 145.071 229.596 145.024C229.966 144.885 230.336 144.7 230.705 144.56C231.398 144.236 232.044 143.958 232.737 143.633C233.152 143.448 233.568 143.355 234.03 143.355C234.492 143.355 234.86 143.17 235.138 142.845L235.184 142.057C235.184 142.011 234.999 142.196 234.86 142.335Z" fill="#FA4616"/>
</g>
<g opacity="0.75">
<path d="M224.471 144.097C224.656 144.468 224.933 144.7 225.302 144.839C225.441 144.885 225.58 144.978 225.718 145.024C225.903 145.117 226.087 145.21 226.226 145.395C226.457 145.673 226.733 145.859 227.057 145.859C227.195 145.859 227.288 145.951 227.38 146.044C227.426 146.137 227.519 146.183 227.611 146.23C227.842 146.276 228.073 146.369 228.257 146.369C229.042 146.415 229.874 146.369 230.658 146.276C230.889 146.23 231.075 146.183 231.212 146.044C231.398 145.905 231.582 145.766 231.721 145.627C232.09 145.349 232.506 145.163 232.967 145.163C233.198 145.163 233.383 145.117 233.613 145.117C233.983 145.071 234.306 144.978 234.584 144.792C234.768 144.653 234.953 144.561 235.138 144.422L235.184 143.773C234.86 143.958 234.584 144.143 234.261 144.375C234.075 144.514 233.844 144.561 233.613 144.607C233.383 144.653 233.152 144.653 232.921 144.7C232.275 144.746 231.721 145.024 231.306 145.488L231.259 145.534C230.982 145.905 230.566 146.044 230.105 146.091C229.596 146.137 229.089 146.183 228.58 146.23C228.396 146.23 228.212 146.23 228.027 146.23C227.796 146.23 227.611 146.183 227.519 145.951C227.473 145.905 227.426 145.812 227.334 145.812C227.195 145.72 227.057 145.673 226.919 145.627C226.733 145.581 226.596 145.442 226.457 145.302C226.226 144.978 225.903 144.792 225.533 144.653C225.441 144.607 225.302 144.561 225.21 144.514C225.025 144.422 224.887 144.282 224.794 144.097C224.61 143.726 224.379 143.355 224.195 142.984C224.056 142.706 223.964 142.428 223.872 142.15C223.778 141.686 223.594 141.269 223.317 140.944L223.455 142.753C223.547 142.984 223.686 143.216 223.825 143.448C224.148 143.541 224.332 143.819 224.471 144.097Z" fill="#FA4616"/>
</g>
<g opacity="0.75">
<path d="M219.531 139.739C219.715 140.11 219.9 140.527 220.039 140.944C220.177 141.408 220.408 141.825 220.777 142.15C221.147 142.474 221.47 142.891 221.748 143.262C221.654 142.984 221.609 142.66 221.609 142.335C221.47 142.196 221.378 142.057 221.239 141.918C220.87 141.547 220.639 141.13 220.501 140.62C220.408 140.249 220.224 139.878 220.085 139.507C219.854 139.043 219.715 138.58 219.715 138.07C219.715 137.606 219.623 137.096 219.531 136.632C219.484 136.447 219.439 136.308 219.392 136.122C219.392 136.03 219.392 135.752 219.392 135.752C219.392 135.659 219.392 135.566 219.392 135.52C219.392 135.334 219.347 135.195 219.347 135.195C219.3 135.102 219.3 135.056 219.253 134.963C219.208 135.056 219.208 135.195 219.161 135.288C219.069 135.659 218.977 136.076 218.885 136.447C219.024 137.05 219.161 137.606 219.161 138.162C219.116 138.719 219.253 139.229 219.531 139.739Z" fill="#FA4616"/>
</g>
<g opacity="0.75">
<path d="M233.798 155.456C233.705 155.502 233.613 155.549 233.521 155.595C233.151 155.78 232.828 155.827 232.413 155.734C231.859 155.595 231.304 155.549 230.75 155.549C229.827 155.549 228.858 155.549 227.934 155.456C227.334 155.363 226.733 155.27 226.087 155.178C225.349 155.085 224.702 154.807 224.009 154.529C223.917 154.482 223.87 154.482 223.778 154.436V154.899C223.963 154.946 224.148 154.992 224.332 155.085C225.118 155.363 225.948 155.502 226.78 155.641C227.149 155.688 227.519 155.734 227.934 155.827C228.811 156.012 229.735 156.058 230.613 156.058C231.212 156.058 231.813 156.105 232.367 156.29C232.783 156.429 233.151 156.383 233.521 156.198C233.613 156.151 233.705 156.105 233.798 156.058C234.306 155.78 234.814 155.595 235.368 155.456C235.599 155.409 235.877 155.317 236.106 155.27L236.014 154.714C235.646 154.807 235.276 154.899 234.953 154.992C234.629 155.085 234.214 155.27 233.798 155.456Z" fill="#FA4616"/>
</g>
<path d="M220.502 149.939C220.363 149.8 220.271 149.66 220.132 149.521C220.41 149.985 220.594 150.17 220.594 150.17L220.733 150.078L220.686 150.031L220.502 149.939Z" fill="#FA4616"/>
<g opacity="0.75">
<path d="M223.963 156.569C224.01 156.661 224.055 156.708 224.102 156.8C224.517 156.893 224.979 157.032 225.349 157.218H225.995C225.487 156.939 224.979 156.754 224.378 156.661C224.241 156.615 224.102 156.569 223.963 156.569Z" fill="#FA4616"/>
</g>
<g opacity="0.75">
<path d="M218.792 142.103C219.07 142.382 219.254 142.706 219.577 142.892C219.623 142.938 219.669 143.031 219.716 143.077C219.808 143.216 219.854 143.402 219.947 143.541C220.085 143.819 220.223 144.051 220.454 144.282C220.778 144.653 221.101 144.978 221.471 145.349L221.608 145.441C221.794 145.581 221.978 145.72 222.162 145.859C222.162 145.859 222.255 145.905 222.44 146.091C222.624 146.276 222.763 146.508 222.948 146.74L223.04 146.879C223.271 147.157 223.548 147.296 223.917 147.389C224.103 147.435 224.24 147.481 224.426 147.528C225.118 147.667 225.718 147.945 226.318 148.27C226.733 148.501 227.15 148.641 227.611 148.641C228.258 148.641 228.905 148.594 229.551 148.641C230.058 148.687 230.52 148.548 231.028 148.455C231.12 148.455 231.213 148.409 231.306 148.362C231.443 148.27 231.582 148.27 231.721 148.27C232.459 148.409 233.198 148.223 233.891 148.084C234.169 147.991 234.492 147.945 234.768 147.806C235.322 147.574 235.922 147.389 236.523 147.342C236.893 147.342 237.216 147.157 237.447 146.879C237.631 146.693 237.816 146.508 238 146.322C238.37 145.905 238.832 145.581 239.294 145.302C239.848 145.024 240.263 144.561 240.586 144.004C240.863 143.494 241.141 142.984 241.464 142.521C241.74 142.103 241.879 141.64 242.018 141.176C242.063 141.13 242.063 141.037 242.063 140.991C242.063 140.759 242.157 140.573 242.294 140.434C242.572 140.017 242.803 139.6 242.987 139.136C242.987 138.951 242.941 138.765 242.895 138.533C242.895 138.58 242.895 138.58 242.849 138.626C242.71 138.997 242.572 139.322 242.433 139.693C242.387 139.832 242.294 139.924 242.202 140.017C241.879 140.388 241.695 140.852 241.603 141.362C241.556 141.686 241.417 142.011 241.233 142.289C240.955 142.752 240.679 143.216 240.402 143.68C240.309 143.865 240.171 144.004 240.032 144.19C239.893 144.375 239.709 144.514 239.478 144.653C239.016 144.885 238.601 145.117 238.231 145.441C237.954 145.673 237.723 145.952 237.492 146.23C237.4 146.369 237.261 146.508 237.169 146.693C237.03 146.879 236.799 147.018 236.57 147.111C236.476 147.157 236.339 147.157 236.2 147.203C235.692 147.296 235.23 147.435 234.768 147.621C234.398 147.76 233.983 147.899 233.568 147.945C233.383 147.991 233.245 147.991 233.06 148.038C232.737 148.084 232.414 148.13 232.091 148.084C231.582 147.991 231.075 148.084 230.613 148.223C230.382 148.316 230.151 148.362 229.92 148.362C229.32 148.362 228.674 148.362 228.027 148.316C227.842 148.316 227.657 148.27 227.519 148.27C227.242 148.223 227.011 148.13 226.78 147.991C226.41 147.713 225.995 147.481 225.533 147.296C225.164 147.157 224.749 147.064 224.332 147.018C224.148 147.018 224.009 146.971 223.825 146.971C223.548 146.925 223.271 146.786 223.086 146.601C222.902 146.369 222.671 146.137 222.44 145.905C222.348 145.812 222.162 145.673 222.162 145.673C222.07 145.581 221.931 145.488 221.839 145.441C221.7 145.302 221.516 145.21 221.377 145.024C221.285 144.932 221.193 144.839 221.101 144.746C221.009 144.607 220.916 144.514 220.823 144.422C220.731 144.329 220.639 144.19 220.547 144.097C220.408 143.865 220.223 143.633 220.131 143.355C219.947 142.892 219.669 142.474 219.299 142.15C219.023 141.918 218.839 141.64 218.653 141.362C218.515 141.083 218.33 140.805 218.192 140.481C218.192 140.713 218.192 140.944 218.146 141.13C218.238 141.315 218.33 141.454 218.422 141.64C218.608 141.872 218.7 142.011 218.792 142.103Z" fill="#FA4616"/>
</g>
<g opacity="0.55">
<path d="M235.184 138.626C234.723 139.043 234.353 139.6 234.169 140.249C234.03 140.759 233.707 141.176 233.245 141.454C232.876 141.686 232.506 141.918 232.091 142.057C231.352 142.289 230.659 142.66 230.059 143.123C229.735 143.355 229.367 143.587 228.997 143.772C228.858 143.865 228.766 143.865 228.627 143.865C228.582 143.865 228.535 143.865 228.443 143.865C228.258 143.865 228.166 143.819 228.027 143.726C227.75 143.541 227.565 143.355 227.565 143.031C227.565 142.938 227.473 142.845 227.427 142.752C227.334 142.567 227.289 142.381 227.289 142.196C227.289 141.825 227.197 141.501 227.011 141.176C226.827 140.898 226.78 140.62 226.735 140.295C226.688 139.785 226.549 139.322 226.273 138.858C226.042 138.533 225.95 138.162 225.903 137.792C225.811 137.282 225.672 136.772 225.442 136.354C225.257 136.03 225.164 135.705 225.211 135.334C225.211 135.056 225.211 134.824 225.257 134.546C225.257 134.314 225.349 134.129 225.442 133.944C225.719 133.573 225.995 133.202 226.273 132.831C226.365 132.738 226.457 132.599 226.596 132.553C226.966 132.274 227.289 131.95 227.565 131.625C227.704 131.486 227.796 131.301 227.935 131.115C228.166 130.837 228.351 130.513 228.443 130.188C228.535 129.91 228.766 129.725 229.044 129.678C229.136 129.678 229.181 129.632 229.275 129.632C229.921 129.539 230.521 129.493 231.167 129.4C231.352 129.4 231.537 129.354 231.721 129.4C231.952 129.4 232.229 129.493 232.414 129.632C232.737 129.91 233.106 130.095 233.476 130.281C233.753 130.42 233.938 130.605 234.122 130.884C234.353 131.301 234.631 131.672 234.861 132.089C235.092 132.414 235.461 132.645 235.831 132.831C236.016 132.923 236.2 132.97 236.385 133.016C236.57 133.109 236.801 133.202 236.985 133.341C237.216 133.48 237.355 133.712 237.355 133.944C237.355 134.129 237.355 134.361 237.355 134.546C237.262 135.01 237.169 135.473 237.032 135.891C237.124 136.076 237.262 136.308 237.355 136.493C237.355 136.447 237.4 136.354 237.4 136.308C237.539 135.798 237.678 135.334 237.816 134.824C237.909 134.546 237.909 134.222 237.862 133.897C237.816 133.526 237.678 133.202 237.355 132.97C237.169 132.831 236.985 132.738 236.801 132.645C236.523 132.506 236.2 132.414 235.923 132.321C235.508 132.182 235.138 131.95 234.907 131.579C234.861 131.486 234.768 131.394 234.676 131.301C234.537 131.115 234.4 130.93 234.261 130.744C234.122 130.559 233.983 130.374 233.799 130.234C233.66 130.142 233.476 130.049 233.337 129.956C233.153 129.817 232.922 129.678 232.737 129.539C232.414 129.261 232.044 129.075 231.629 129.029C231.445 129.029 231.259 128.983 231.075 129.029C230.428 129.075 229.735 129.122 229.089 129.214C228.489 129.307 228.073 129.632 227.796 130.142C227.658 130.374 227.52 130.652 227.381 130.93C227.197 131.208 227.011 131.533 226.78 131.811C226.596 132.043 226.365 132.274 226.181 132.553C225.857 132.97 225.534 133.433 225.211 133.851C225.026 134.129 224.933 134.407 224.933 134.732C224.933 135.01 224.933 135.242 224.888 135.52C224.841 135.937 224.933 136.308 225.118 136.679C225.349 137.096 225.488 137.56 225.534 138.023C225.58 138.487 225.719 138.904 225.95 139.275C226.226 139.692 226.365 140.11 226.365 140.573C226.365 140.898 226.457 141.269 226.688 141.547C226.872 141.825 226.966 142.103 226.919 142.428C226.919 142.706 227.011 142.938 227.15 143.216C227.242 143.355 227.242 143.494 227.289 143.633C227.334 143.819 227.381 143.911 227.565 144.004C227.658 144.097 227.796 144.143 227.889 144.236C228.073 144.421 228.258 144.468 228.535 144.421C228.95 144.329 229.32 144.19 229.69 144.004C230.151 143.772 230.567 143.494 231.028 143.216C231.352 143.031 231.721 142.891 232.091 142.845C232.598 142.799 233.06 142.567 233.476 142.289C234.122 141.872 234.584 141.361 234.768 140.62C234.907 140.156 235.184 139.739 235.508 139.414L235.554 138.672C235.415 138.441 235.277 138.533 235.184 138.626Z" fill="#FA4616"/>
</g>
<g opacity="0.45">
<path d="M235.415 135.798C235.092 136.03 234.815 136.308 234.676 136.679C234.445 137.282 234.03 137.792 233.615 138.302C233.198 138.812 232.691 139.136 232.091 139.368C231.905 139.461 231.674 139.553 231.49 139.646C231.259 139.785 231.12 139.971 231.028 140.202C230.936 140.573 230.705 140.898 230.428 141.176C230.059 141.547 229.643 141.871 229.228 142.242C229.042 142.382 228.858 142.474 228.627 142.521C228.535 142.521 228.443 142.567 228.351 142.567C228.304 142.382 228.258 142.242 228.258 142.057C228.258 141.779 228.258 141.501 228.258 141.223C228.212 140.712 228.12 140.249 228.073 139.785C227.981 139.136 227.934 138.487 227.889 137.838C227.842 137.513 227.796 137.143 227.704 136.818C227.519 136.215 227.519 135.659 227.658 135.056C227.796 134.222 227.981 133.387 228.212 132.553C228.351 132.043 228.627 131.625 228.997 131.254C229.643 130.652 230.382 130.466 231.214 130.652C231.629 130.744 232.044 130.884 232.414 131.115C232.691 131.301 232.875 131.533 232.829 131.904C232.829 132.043 232.829 132.182 232.829 132.274C232.829 132.599 232.967 132.831 233.198 133.016C233.521 133.248 233.891 133.341 234.214 133.48C234.492 133.573 234.815 133.665 235.092 133.758C235.369 133.897 235.554 134.036 235.692 134.268V133.758C235.507 133.573 235.276 133.434 235.045 133.341C234.722 133.202 234.353 133.155 233.983 133.063C233.799 133.016 233.615 132.924 233.384 132.877C233.106 132.738 232.967 132.553 233.014 132.228C233.014 132.089 233.014 131.996 233.06 131.857C233.106 131.394 232.922 131.069 232.506 130.791C231.952 130.42 231.351 130.188 230.659 130.095C230.197 130.049 229.735 130.095 229.32 130.281C228.766 130.559 228.258 130.976 227.889 131.533C227.75 131.765 227.611 131.996 227.565 132.274C227.473 132.645 227.381 133.016 227.334 133.387C227.242 133.804 227.196 134.175 227.103 134.593C226.965 135.427 227.011 136.215 227.242 137.004C227.334 137.328 227.334 137.653 227.381 137.977C227.427 138.255 227.427 138.58 227.473 138.858C227.565 139.414 227.658 140.017 227.704 140.573C227.75 140.805 227.796 141.037 227.796 141.315C227.796 141.547 227.842 141.732 227.796 141.964C227.796 142.196 227.796 142.428 227.842 142.706C227.889 142.938 228.073 143.077 228.351 142.938C228.443 142.892 228.488 142.845 228.582 142.845C228.905 142.752 229.181 142.613 229.459 142.428C229.966 142.057 230.428 141.64 230.936 141.269C231.12 141.083 231.306 140.898 231.398 140.62C231.49 140.388 231.629 140.249 231.813 140.156C232.091 140.017 232.367 139.878 232.598 139.785C232.922 139.646 233.198 139.461 233.476 139.182C234.122 138.533 234.722 137.792 235.045 136.911C235.138 136.633 235.276 136.401 235.461 136.215V135.752C235.554 135.705 235.461 135.752 235.415 135.798Z" fill="#FA4616"/>
</g>
<g opacity="0.35">
<path d="M233.66 134.963C233.521 134.871 233.383 134.778 233.245 134.685C232.968 134.5 232.69 134.361 232.414 134.175C232.183 134.036 232.091 133.804 232.044 133.573C232.044 133.48 232.044 133.341 231.997 133.248C231.997 132.97 231.905 132.784 231.721 132.599C231.582 132.46 231.443 132.321 231.259 132.182C231.028 131.996 230.936 131.996 230.705 132.182C230.52 132.367 230.336 132.599 230.151 132.831C229.827 133.294 229.643 133.851 229.643 134.407C229.643 134.732 229.643 135.01 229.643 135.334C229.643 135.705 229.596 136.03 229.459 136.354C229.228 136.864 229.136 137.374 229.136 137.931C229.136 138.302 229.042 138.626 228.905 138.951C228.812 139.136 228.766 139.322 228.719 139.553C228.674 139.693 228.674 139.832 228.581 139.971C228.396 140.295 228.489 140.573 228.674 140.852C228.719 140.944 228.812 141.037 228.95 140.991C229.181 140.944 229.365 140.898 229.551 140.759C230.013 140.342 230.336 139.785 230.659 139.229C230.797 138.997 230.936 138.765 231.075 138.58C231.398 138.116 231.813 137.792 232.367 137.652C232.921 137.513 233.337 137.189 233.707 136.818C233.799 136.679 233.891 136.54 233.983 136.401C234.214 135.844 234.122 135.288 233.66 134.963ZM233.476 136.169C233.152 136.586 232.783 136.911 232.228 137.05C231.582 137.189 231.12 137.56 230.705 138.07C230.474 138.394 230.289 138.765 230.151 139.136C230.013 139.507 229.827 139.832 229.643 140.202C229.504 140.481 229.228 140.573 228.95 140.666C228.812 140.434 228.719 140.202 228.858 139.971C228.905 139.878 228.95 139.739 228.997 139.646C229.042 139.368 229.136 139.136 229.273 138.951C229.459 138.672 229.551 138.348 229.551 138.023C229.551 137.884 229.596 137.745 229.596 137.606C229.596 137.282 229.69 136.957 229.827 136.679C230.013 136.262 230.058 135.798 230.058 135.334C230.058 135.103 230.058 134.871 230.058 134.593C230.058 133.944 230.289 133.341 230.659 132.831C230.751 132.692 230.89 132.553 231.028 132.414C231.213 132.599 231.398 132.738 231.582 132.924C231.674 133.016 231.768 133.155 231.768 133.294C231.768 133.433 231.768 133.573 231.813 133.712C231.86 134.036 231.997 134.314 232.321 134.5C232.645 134.732 232.921 134.963 233.198 135.195C233.337 135.288 233.429 135.427 233.522 135.566C233.66 135.705 233.66 135.937 233.476 136.169Z" fill="#FA4616"/>
</g>
<g opacity="0.25">
<path d="M231.537 134.546C231.444 134.5 231.398 134.407 231.352 134.361C231.352 134.361 231.352 134.314 231.306 134.314C231.26 134.222 231.121 134.175 231.075 134.222C231.029 134.268 230.982 134.314 230.982 134.314C230.982 134.361 230.937 134.407 230.937 134.453C230.937 134.546 230.89 134.593 230.89 134.685C230.89 134.824 230.89 134.964 230.798 135.056C230.706 135.149 230.706 135.334 230.751 135.473C230.751 135.52 230.798 135.566 230.844 135.613C230.982 135.659 231.121 135.659 231.167 135.613C231.26 135.52 231.352 135.52 231.491 135.473C231.629 135.427 231.768 135.334 231.86 135.288C231.952 135.242 231.952 135.149 231.906 135.01C231.814 134.778 231.721 134.639 231.537 134.546ZM231.675 135.103C231.629 135.103 231.629 135.149 231.583 135.149C231.398 135.242 231.213 135.334 230.982 135.381C230.937 135.381 230.937 135.427 230.89 135.427C230.844 135.334 230.798 135.195 230.89 135.103C230.982 134.964 231.029 134.824 231.029 134.639C231.029 134.546 231.029 134.5 231.075 134.407C231.075 134.361 231.121 134.361 231.167 134.314C231.213 134.361 231.213 134.361 231.213 134.407C231.26 134.5 231.352 134.593 231.444 134.639C231.583 134.732 231.675 134.824 231.721 134.917C231.721 135.01 231.721 135.056 231.675 135.103Z" fill="#FA4616"/>
</g>
</g>
<defs>
<clipPath id="clip0_10107_3168">
<rect width="210" height="41" fill="white" transform="translate(33.0332 117.067)"/>
</clipPath>
</defs>
</svg>
