<svg width="276" height="276" viewBox="0 0 276 276" fill="none" xmlns="http://www.w3.org/2000/svg">
<g clip-path="url(#clip0_10107_3117)">
<path d="M87.7035 128.811H82.482H81.0654H71.1687V126.853C71.1687 124.147 72.616 123.052 75.9138 123.052C77.7927 123.052 79.5631 123.269 81.3397 123.645C82.118 123.81 82.8806 123.305 83.0386 122.529L84.0739 117.465C81.1801 116.717 78.5183 116.256 75.6237 116.256C67.2317 116.256 63.0644 120.402 63.0644 126.565V128.811H58.2627V132.629C58.2627 133.347 58.7926 133.957 59.5071 134.059L63.066 134.571V158.818H69.664C70.495 158.818 71.1687 158.148 71.1687 157.321V134.571H81.0654V158.818H87.6634C88.4944 158.818 89.1681 158.148 89.1681 157.321V130.269C89.1681 129.464 88.5124 128.811 87.7035 128.811Z" fill="#1B365D"/>
<path d="M112.261 130.597C110.12 128.754 108.094 128.063 105.779 128.063C98.9503 128.063 94.7256 132.613 94.7256 140.561V147.07C94.7256 154.96 98.9503 159.568 105.779 159.568C108.442 159.568 110.641 158.589 113.072 156.343L113.362 158.819H118.899C119.709 158.819 120.365 158.166 120.365 157.361V117.005H113.696C112.904 117.005 112.262 117.644 112.262 118.431L112.261 130.597ZM112.261 150.237C110.583 151.734 109.078 152.771 107.11 152.771C104.043 152.771 102.943 150.755 102.943 146.147V141.482C102.943 136.874 104.043 134.859 107.11 134.859C109.135 134.859 110.872 136.068 112.261 137.45V150.237Z" fill="#1B365D"/>
<path d="M138.652 128.063C130.491 128.063 125.919 134.168 125.919 140.734V146.838C125.919 153.231 129.854 159.567 139.694 159.567C142.882 159.567 145.584 158.906 148.612 157.969C149.351 157.741 149.783 156.972 149.583 156.228L148.259 151.273C145.191 152.137 142.76 152.771 139.635 152.771C134.542 152.771 134.022 149.315 134.022 146.838V146.378H149.937C150.747 146.378 151.442 145.745 151.442 144.88V140.734C151.442 134.456 146.87 128.063 138.652 128.063ZM143.341 140.849H134.022V140.1C134.022 137.508 135.121 134.859 138.71 134.859C142.298 134.859 143.341 137.45 143.341 140.1V140.849Z" fill="#1B365D"/>
<path d="M164.813 137.105C164.813 135.837 165.739 134.802 167.881 134.802C169.473 134.802 170.895 135.104 172.381 135.58C173.154 135.828 173.984 135.405 174.218 134.629L175.694 129.732C173.032 128.58 170.37 128.062 167.65 128.062C161.399 128.062 156.306 131.575 156.306 137.105C156.306 148.221 168.402 145.514 168.402 150.178C168.402 151.733 167.592 152.77 164.987 152.77C162.839 152.77 160.767 152.283 158.71 151.549C157.911 151.265 157.038 151.717 156.822 152.534L155.496 157.55C158.621 158.817 161.689 159.567 165.161 159.567C171.933 159.567 176.91 155.822 176.91 150.178C176.91 139.582 164.813 141.253 164.813 137.105Z" fill="#1B365D"/>
<path d="M201.077 115.567C200.631 115.576 200.189 115.605 199.753 115.65C201.343 118.517 202.286 122.083 202.286 125.95C202.286 129.311 201.573 132.445 200.343 135.09C198.111 139.889 194.173 143.076 189.688 143.078C192.594 146.327 196.756 148.364 201.381 148.364C202.047 148.364 202.703 148.321 203.347 148.239C206.862 145.027 209.244 140.048 209.625 134.37C209.661 133.841 209.68 133.306 209.68 132.767C209.679 125.253 206.18 118.745 201.077 115.567Z" fill="#1B365D"/>
<path d="M210.274 128.525L210.338 128.79C210.34 128.796 210.341 128.799 210.342 128.804C210.292 128.494 210.232 128.185 210.17 127.88C210.185 128.098 210.218 128.312 210.274 128.525Z" fill="#FA4616"/>
<path d="M214.7 140.933C215.084 140.259 215.484 139.597 216.05 139.052C216.268 138.841 216.392 138.583 216.415 138.28C216.426 138.119 216.447 137.96 216.452 137.799C216.47 137.284 216.544 136.777 216.694 136.284C216.93 135.516 217.158 134.744 217.427 133.987C217.753 133.07 217.908 132.138 217.824 131.168C217.798 130.87 217.778 130.573 217.761 130.276C217.752 130.108 217.748 129.939 217.758 129.771C217.762 129.71 217.814 129.652 217.845 129.593C217.844 129.334 217.768 129.065 217.613 128.853C217.503 128.704 217.465 128.566 217.446 128.397C217.43 128.246 217.393 128.096 217.356 127.948C217.344 127.9 217.312 127.836 217.273 127.819C217.07 127.732 216.867 127.64 216.623 127.618C216.606 127.809 216.591 127.988 216.575 128.173L216.562 128.506C216.535 128.579 216.529 128.663 216.483 128.702C216.336 128.825 216.372 128.975 216.402 129.123C216.425 129.235 216.473 129.342 216.495 129.454C216.545 129.709 216.625 129.964 216.621 130.219C216.617 130.543 216.633 130.86 216.687 131.179C216.727 131.42 216.761 131.664 216.779 131.908C216.838 132.676 216.797 133.44 216.596 134.187C216.427 134.815 216.225 135.434 216.036 136.056C215.871 136.596 215.588 137.063 215.167 137.443C214.827 137.748 214.596 138.121 214.448 138.549C214.112 139.523 213.684 140.453 213.126 141.323C212.625 142.104 212.1 142.869 211.519 143.595C211.024 144.211 210.517 144.816 209.951 145.371C209.379 145.931 208.674 146.323 208.085 146.862C207.942 146.993 207.739 147.059 207.56 147.149C207.376 147.241 207.211 147.355 207.056 147.485C208.785 146.904 210.384 146.047 211.804 144.964C212.136 144.581 212.467 144.196 212.786 143.802C213.512 142.904 214.131 141.935 214.7 140.933Z" fill="#FA4616"/>
<path d="M207.332 146.893C208.061 146.531 208.707 146.048 209.299 145.5C209.708 145.12 210.078 144.696 210.448 144.277C211.369 143.233 212.182 142.109 212.915 140.928C213.309 140.293 213.625 139.623 213.826 138.902C213.891 138.666 213.975 138.435 214.054 138.203C214.204 137.762 214.419 137.36 214.776 137.047C215.169 136.703 215.404 136.258 215.566 135.772C215.719 135.315 215.864 134.855 216.011 134.395C216.336 133.382 216.479 132.352 216.276 131.294C216.256 131.189 216.239 131.082 216.233 130.975C216.22 130.755 216.217 130.532 216.205 130.312C216.195 130.137 216.191 129.96 216.161 129.788C216.084 129.358 216.013 128.928 216.047 128.488C216.051 128.453 216.037 128.416 216.031 128.371L216.065 127.99C216.084 127.825 216.1 127.682 216.119 127.52C215.921 127.495 215.734 127.47 215.546 127.448C215.334 127.423 215.327 127.426 215.231 127.621C215.206 127.674 215.191 127.732 215.164 127.811C215.164 127.811 215.039 128.054 215.014 128.188C215.018 128.297 215.019 128.364 215.024 128.432C215.05 128.799 215.082 129.165 215.103 129.532C215.134 130.099 215.106 130.664 215.014 131.226C214.985 131.404 214.973 131.59 214.985 131.771C215.006 132.063 214.964 132.334 214.812 132.588C214.769 132.66 214.734 132.738 214.709 132.818C214.393 133.802 214.09 134.789 213.948 135.818C213.911 136.088 213.846 136.361 213.75 136.617C213.589 137.046 213.379 137.457 213.217 137.887C212.931 138.64 212.544 139.329 212.03 139.95C211.894 140.116 211.755 140.281 211.637 140.46C211.202 141.12 210.798 141.799 210.459 142.513C210.1 143.265 209.613 143.909 208.966 144.443C208.133 145.13 207.251 145.749 206.347 146.337C205.898 146.94 205.428 147.524 204.919 148.062C205.302 147.988 205.677 147.893 206.049 147.793C206.159 147.722 206.273 147.653 206.375 147.571C206.681 147.324 206.979 147.069 207.332 146.893Z" fill="#FA4616"/>
<path d="M215.237 141.096C214.911 141.696 214.552 142.277 214.12 142.809C214.113 142.819 214.105 142.827 214.098 142.837C214.991 141.836 215.762 140.727 216.39 139.529C215.932 139.998 215.55 140.52 215.237 141.096Z" fill="#FA4616"/>
<path d="M217.991 134.049C217.737 134.827 217.513 135.616 217.281 136.401C217.141 136.873 217.067 137.357 217.043 137.849C217.038 137.971 217.021 138.091 217.008 138.212C217.66 136.644 218.077 134.956 218.208 133.187C218.154 133.474 218.085 133.762 217.991 134.049Z" fill="#FA4616"/>
<path d="M215.174 123.08L215.221 123.212C215.245 123.278 215.256 123.332 215.284 123.376C215.284 123.376 215.527 123.628 215.545 123.764C215.566 123.92 215.583 124.048 215.604 124.204C215.784 124.113 215.957 124.024 216.131 123.936C215.639 123.069 215.072 122.252 214.435 121.493C214.477 121.582 214.522 121.669 214.563 121.757C214.768 122.195 214.968 122.634 215.174 123.08Z" fill="#FA4616"/>
<path d="M208.184 118.337C208.373 118.64 208.616 118.895 208.915 119.092C209.175 119.263 209.392 119.477 209.578 119.725C210.07 120.384 210.498 121.083 210.847 121.827C211.2 122.584 211.55 123.343 211.901 124.1C211.928 124.16 211.964 124.217 212.005 124.294L212.067 124.447C212.147 124.61 212.224 124.766 212.312 124.943C212.31 124.958 212.482 125.133 212.48 125.148C212.761 125.281 212.913 125.525 213.042 125.81C213.362 125.59 213.661 125.385 213.977 125.167C213.849 125.007 213.608 124.364 213.492 124.218C213.435 124.131 213.368 124.049 213.307 123.967L213.185 123.791C213.12 123.685 213.077 123.613 213.032 123.542C212.568 122.816 212.168 122.061 211.947 121.22C211.778 120.577 211.492 119.987 211.07 119.463C210.8 119.129 210.546 118.783 210.289 118.439C210.027 118.086 209.729 117.773 209.369 117.513C209.274 117.445 209.187 117.367 209.097 117.292C208.407 116.952 207.688 116.666 206.948 116.424C207.083 116.601 207.219 116.775 207.337 116.967C207.615 117.427 207.9 117.881 208.184 118.337Z" fill="#FA4616"/>
<path d="M211.129 118.994C211.69 119.667 212.118 120.413 212.414 121.236C212.476 121.409 212.544 121.583 212.633 121.741C212.944 122.296 213.266 122.845 213.585 123.394C213.619 123.452 213.664 123.504 213.707 123.563L213.818 123.746C213.917 123.9 213.998 124.027 214.092 124.174L214.431 124.861C214.689 124.708 214.937 124.56 215.187 124.412C215.168 124.282 215.151 124.166 215.13 124.027L215.005 123.727C214.95 123.592 214.907 123.488 214.852 123.353L214.775 123.179C214.744 123.1 214.726 123.041 214.7 122.986C214.485 122.52 214.273 122.053 214.05 121.59C213.84 121.153 213.608 120.731 213.353 120.325C212.439 119.429 211.431 118.629 210.327 117.964C210.436 118.09 210.549 118.212 210.647 118.349C210.804 118.567 210.957 118.788 211.129 118.994Z" fill="#FA4616"/>
<path d="M211.486 135.89C211.503 135.755 211.555 135.623 211.604 135.495C211.803 134.977 212.088 134.503 212.396 134.044C212.835 133.39 213.188 132.701 213.415 131.944C213.586 131.37 213.688 130.803 213.569 130.204C213.502 129.867 213.488 129.52 213.449 129.178C213.442 129.113 213.43 129.048 213.419 128.976L213.4 128.749C213.34 128.486 213.287 128.254 213.235 128.024L213.193 127.618C213.181 127.376 213.128 127.175 213.015 126.985C212.677 126.948 212.343 126.91 211.97 126.869C212.078 127.117 212.172 127.332 212.265 127.545L212.46 127.955C212.551 128.203 212.635 128.43 212.728 128.683C212.728 128.683 212.755 128.825 212.774 128.963C212.882 129.643 212.764 130.271 212.581 130.894C212.336 131.731 212.103 132.572 211.846 133.406C211.75 133.719 211.615 134.022 211.481 134.322C211.375 134.557 211.243 134.78 211.132 134.988C211.094 134.996 211.044 134.989 211.029 135.01C210.924 135.142 210.816 135.274 210.729 135.417C210.634 135.574 210.542 135.732 210.448 135.888C210.283 137.171 210.018 138.422 209.659 139.631C210.101 138.859 210.541 138.085 210.97 137.306C211.215 136.863 211.42 136.401 211.486 135.89Z" fill="#FA4616"/>
<path d="M208.703 144.096C209.133 143.696 209.504 143.249 209.766 142.719C209.942 142.363 210.103 141.997 210.29 141.646C210.659 140.954 211.075 140.297 211.642 139.74C212.173 139.218 212.584 138.613 212.843 137.909C212.948 137.622 213.068 137.339 213.199 137.062C213.44 136.552 213.603 136.023 213.656 135.459C213.691 135.078 213.79 134.708 213.922 134.345C214.029 134.05 214.128 133.752 214.216 133.452C214.325 133.084 214.448 132.723 214.66 132.397C214.77 132.227 214.79 132.038 214.752 131.844C214.666 131.406 214.705 130.976 214.801 130.545C214.83 130.412 214.845 130.271 214.835 130.137C214.79 129.564 214.735 128.993 214.681 128.421C214.672 128.331 214.65 128.243 214.631 128.143L214.569 127.732C214.547 127.567 214.529 127.434 214.51 127.294C214.21 127.223 213.922 127.156 213.621 127.085C213.59 127.287 213.547 127.463 213.595 127.651L213.691 128.067C213.741 128.326 213.788 128.564 213.832 128.79L213.838 128.996C213.854 129.289 213.865 129.557 213.887 129.823C213.891 129.866 213.946 129.904 213.985 129.954C213.966 130.288 213.948 130.64 213.925 130.99C213.918 131.096 213.905 131.204 213.88 131.308C213.793 131.664 213.704 132.02 213.607 132.374C213.565 132.529 213.519 132.686 213.448 132.829C213.174 133.376 212.9 133.925 212.606 134.462C212.305 135.01 212.033 135.56 212.01 136.204C212.003 136.397 211.935 136.597 211.86 136.778C211.512 137.616 211.073 138.404 210.546 139.145C210.076 139.806 209.614 140.473 209.151 141.139C208.557 142.726 207.801 144.215 206.89 145.57C207.23 145.313 207.568 145.052 207.903 144.788C208.178 144.569 208.445 144.337 208.703 144.096Z" fill="#FA4616"/>
<path d="M206.097 117.486C206.586 117.967 207.054 118.46 207.385 119.067C207.46 119.204 207.58 119.316 207.676 119.437C207.637 119.422 207.587 119.401 207.483 119.36C207.657 119.705 207.802 120.008 207.963 120.303C208.142 120.633 208.343 120.95 208.518 121.282C208.946 122.094 209.46 122.842 210.12 123.487C210.436 123.795 210.685 124.149 210.874 124.55C211.157 125.145 211.46 125.73 211.753 126.32C211.831 126.478 211.913 126.509 212.064 126.422C212.235 126.323 212.402 126.214 212.575 126.107C212.47 125.757 212.194 125.524 212.056 125.211L211.972 125.08C211.965 125.056 211.738 124.604 211.64 124.388C210.991 122.969 210.134 121.668 209.309 120.349C209.139 120.076 208.933 119.826 208.676 119.624C208.375 119.389 208.139 119.098 207.946 118.773C207.738 118.424 207.53 118.075 207.349 117.712C207.084 117.18 206.75 116.699 206.373 116.246C205.753 116.066 205.122 115.912 204.474 115.805C204.649 115.972 204.817 116.146 204.984 116.322C205.353 116.713 205.714 117.11 206.097 117.486Z" fill="#FA4616"/>
<path d="M211.364 133.82C211.447 133.667 211.539 133.509 211.576 133.342C211.797 132.325 212.009 131.305 212.212 130.284C212.284 129.924 212.312 129.556 212.264 129.188C212.252 129.099 212.23 129.012 212.214 128.924L212.149 128.639C212.033 128.372 211.937 128.14 211.832 127.913L211.65 127.481C211.569 127.287 211.499 127.114 211.427 126.94L211.273 126.455C211.136 126.129 211.017 125.822 210.882 125.524C210.539 124.768 210.15 124.045 209.53 123.463C209.145 123.1 208.815 122.679 208.566 122.208C208.179 121.477 207.805 120.738 207.427 120.002C207.403 119.955 207.388 119.902 207.364 119.854C207.267 119.664 207.172 119.472 207.07 119.283C206.962 119.082 206.834 118.889 206.736 118.682C206.623 118.442 206.475 118.234 206.276 118.058C205.567 117.434 204.863 116.806 204.156 116.18C203.934 115.984 203.697 115.826 203.451 115.688C203.254 115.668 203.06 115.634 202.861 115.621C205.761 117.829 207.977 121.019 209.295 124.731C209.62 125.278 209.932 125.833 210.117 126.457C210.117 126.457 210.154 126.929 210.135 127.391L210.158 127.763C210.159 127.802 210.166 127.841 210.169 127.88C210.231 128.187 210.291 128.494 210.341 128.805C210.364 128.894 210.384 128.972 210.405 129.048C210.473 129.291 210.547 129.533 210.61 129.777C210.701 130.121 210.695 130.456 210.574 130.784C210.627 131.439 210.661 132.099 210.661 132.767C210.661 133.314 210.642 133.876 210.604 134.435C210.587 134.682 210.549 134.922 210.525 135.166C210.741 134.84 210.95 134.51 211.132 134.162C211.196 134.041 211.3 133.941 211.364 133.82Z" fill="#FA4616"/>
<path d="M218.094 130.314C218.148 130.518 218.177 130.721 218.212 130.924C218.187 130.523 218.147 130.127 218.092 129.734C218.04 129.93 218.041 130.115 218.094 130.314Z" fill="#FA4616"/>
<path d="M214.336 125.609C213.841 125.916 213.346 126.222 212.842 126.534C212.974 126.651 213.166 126.664 213.345 126.701C213.653 126.766 213.965 126.813 214.272 126.881C214.641 126.963 215.012 127.021 215.392 127.012C215.644 127.006 215.897 126.992 216.149 126.986C216.539 126.978 216.915 127.05 217.276 127.195C217.376 127.235 217.48 127.261 217.583 127.294C217.285 126.298 216.896 125.341 216.423 124.434C216.015 124.649 215.604 124.859 215.199 125.077C214.901 125.237 214.623 125.432 214.336 125.609Z" fill="#FA4616"/>
<path opacity="0.75" d="M215.605 124.205C215.584 124.048 215.567 123.921 215.545 123.765C215.527 123.629 215.284 123.377 215.284 123.377C215.257 123.333 215.246 123.279 215.222 123.213L215.174 123.081C214.969 122.634 214.769 122.195 214.565 121.758C214.523 121.669 214.479 121.582 214.437 121.494C214.096 121.087 213.735 120.699 213.356 120.326C213.611 120.732 213.843 121.154 214.053 121.59C214.275 122.053 214.487 122.521 214.704 122.987C214.729 123.042 214.748 123.1 214.778 123.18L214.855 123.354C214.909 123.488 214.953 123.592 215.008 123.728L215.133 124.027C215.153 124.167 215.17 124.283 215.19 124.412C214.94 124.561 214.692 124.709 214.434 124.862L214.095 124.174C214.001 124.027 213.92 123.901 213.821 123.746L213.71 123.563C213.667 123.504 213.622 123.453 213.588 123.395C213.269 122.845 212.947 122.297 212.636 121.742C212.546 121.583 212.48 121.409 212.417 121.237C212.121 120.414 211.693 119.667 211.132 118.995C210.961 118.789 210.807 118.568 210.652 118.349C210.554 118.212 210.44 118.09 210.332 117.964C209.932 117.723 209.52 117.503 209.099 117.295C209.19 117.369 209.276 117.447 209.371 117.516C209.731 117.775 210.03 118.089 210.292 118.442C210.548 118.787 210.803 119.133 211.072 119.466C211.495 119.989 211.781 120.58 211.95 121.223C212.171 122.064 212.57 122.819 213.035 123.545C213.079 123.616 213.123 123.688 213.188 123.794L213.309 123.97C213.37 124.053 213.437 124.135 213.494 124.221C213.611 124.366 213.851 125.01 213.979 125.17C213.663 125.388 213.364 125.594 213.044 125.813C212.914 125.528 212.763 125.284 212.483 125.152C212.485 125.136 212.313 124.961 212.314 124.946C212.227 124.768 212.15 124.613 212.069 124.451L212.008 124.297C211.966 124.22 211.931 124.163 211.903 124.103C211.551 123.346 211.203 122.587 210.849 121.831C210.501 121.086 210.072 120.387 209.58 119.728C209.396 119.48 209.178 119.266 208.918 119.095C208.618 118.898 208.376 118.643 208.186 118.34C207.903 117.885 207.617 117.43 207.338 116.972C207.221 116.781 207.084 116.606 206.95 116.429C206.759 116.367 206.569 116.305 206.374 116.25C206.752 116.702 207.086 117.184 207.351 117.716C207.532 118.079 207.74 118.428 207.947 118.777C208.14 119.102 208.377 119.393 208.677 119.628C208.934 119.83 209.139 120.08 209.311 120.353C210.135 121.672 210.992 122.973 211.642 124.392C211.741 124.608 211.966 125.06 211.973 125.084L212.057 125.215C212.196 125.529 212.472 125.761 212.576 126.111C212.403 126.218 212.237 126.327 212.065 126.426C211.915 126.514 211.833 126.481 211.755 126.324C211.461 125.734 211.159 125.149 210.876 124.554C210.686 124.153 210.436 123.799 210.122 123.491C209.462 122.845 208.948 122.098 208.52 121.286C208.344 120.954 208.143 120.636 207.964 120.307C207.804 120.012 207.66 119.709 207.484 119.364C207.587 119.405 207.639 119.426 207.677 119.441C207.58 119.32 207.462 119.207 207.387 119.071C207.055 118.463 206.588 117.97 206.098 117.49C205.716 117.115 205.354 116.717 204.985 116.327C204.819 116.151 204.65 115.976 204.475 115.81C204.139 115.755 203.796 115.727 203.453 115.693C203.699 115.831 203.937 115.988 204.158 116.185C204.865 116.81 205.569 117.439 206.278 118.063C206.477 118.239 206.625 118.445 206.738 118.686C206.836 118.894 206.963 119.086 207.073 119.288C207.174 119.477 207.269 119.668 207.366 119.859C207.39 119.907 207.405 119.959 207.429 120.007C207.808 120.743 208.18 121.482 208.568 122.213C208.817 122.684 209.147 123.104 209.532 123.467C210.152 124.051 210.541 124.773 210.884 125.529C211.02 125.827 211.139 126.133 211.275 126.46L211.429 126.945C211.501 127.119 211.572 127.291 211.652 127.486L211.834 127.918C211.94 128.145 212.036 128.376 212.151 128.644L212.216 128.929C212.233 129.016 212.254 129.104 212.266 129.192C212.314 129.561 212.286 129.928 212.215 130.289C212.012 131.31 211.8 132.329 211.578 133.346C211.542 133.514 211.449 133.671 211.366 133.825C211.301 133.946 211.198 134.047 211.134 134.168C210.951 134.515 210.743 134.845 210.528 135.171C210.504 135.413 210.48 135.655 210.45 135.894C210.544 135.737 210.636 135.58 210.731 135.423C210.818 135.28 210.926 135.148 211.031 135.016C211.046 134.995 211.096 135.002 211.134 134.995C211.245 134.786 211.377 134.563 211.483 134.328C211.617 134.029 211.752 133.726 211.848 133.412C212.105 132.578 212.337 131.737 212.583 130.9C212.766 130.277 212.884 129.649 212.776 128.969C212.757 128.831 212.73 128.689 212.73 128.689C212.638 128.436 212.554 128.209 212.462 127.961L212.267 127.551C212.175 127.338 212.081 127.123 211.972 126.875C212.345 126.916 212.679 126.954 213.017 126.992C213.13 127.181 213.182 127.383 213.195 127.624L213.237 128.03C213.289 128.26 213.342 128.492 213.402 128.756L213.421 128.982C213.432 129.055 213.444 129.119 213.451 129.184C213.49 129.526 213.504 129.874 213.571 130.21C213.69 130.809 213.587 131.376 213.417 131.95C213.19 132.707 212.837 133.396 212.398 134.05C212.09 134.509 211.805 134.982 211.606 135.501C211.557 135.629 211.506 135.761 211.488 135.896C211.422 136.408 211.217 136.869 210.973 137.313C210.543 138.092 210.103 138.865 209.661 139.637C209.509 140.149 209.337 140.65 209.153 141.144C209.616 140.479 210.077 139.811 210.547 139.15C211.074 138.41 211.513 137.622 211.861 136.784C211.936 136.602 212.005 136.403 212.011 136.21C212.034 135.565 212.307 135.016 212.607 134.467C212.901 133.93 213.175 133.382 213.449 132.834C213.52 132.692 213.566 132.534 213.608 132.379C213.705 132.026 213.795 131.67 213.881 131.313C213.906 131.21 213.919 131.102 213.926 130.995C213.95 130.644 213.968 130.293 213.987 129.96C213.948 129.91 213.892 129.871 213.888 129.828C213.866 129.561 213.855 129.294 213.84 129.001L213.833 128.796C213.789 128.569 213.743 128.331 213.692 128.072L213.596 127.657C213.549 127.468 213.591 127.293 213.622 127.09C213.923 127.161 214.211 127.229 214.511 127.299C214.53 127.439 214.548 127.573 214.571 127.738L214.632 128.149C214.65 128.248 214.674 128.336 214.682 128.426C214.737 128.998 214.792 129.569 214.836 130.142C214.847 130.277 214.831 130.418 214.802 130.55C214.707 130.981 214.668 131.412 214.753 131.849C214.791 132.043 214.771 132.232 214.661 132.402C214.45 132.728 214.327 133.088 214.218 133.457C214.129 133.758 214.03 134.057 213.923 134.351C213.792 134.713 213.693 135.083 213.657 135.465C213.605 136.03 213.441 136.558 213.2 137.068C213.07 137.345 212.95 137.628 212.844 137.914C212.585 138.618 212.175 139.224 211.643 139.746C211.076 140.302 210.66 140.96 210.292 141.651C210.105 142.003 209.943 142.368 209.767 142.725C209.506 143.254 209.134 143.701 208.705 144.102C208.447 144.342 208.179 144.574 207.903 144.792C207.568 145.057 207.23 145.318 206.889 145.575C206.714 145.835 206.534 146.09 206.348 146.34C207.252 145.752 208.134 145.134 208.967 144.446C209.614 143.912 210.101 143.268 210.46 142.516C210.8 141.802 211.203 141.123 211.638 140.463C211.756 140.285 211.895 140.119 212.031 139.953C212.544 139.332 212.932 138.642 213.218 137.89C213.38 137.461 213.59 137.049 213.751 136.62C213.847 136.364 213.912 136.091 213.949 135.821C214.091 134.792 214.395 133.806 214.71 132.821C214.735 132.741 214.77 132.663 214.814 132.591C214.965 132.337 215.008 132.066 214.987 131.774C214.974 131.593 214.985 131.408 215.015 131.229C215.107 130.667 215.134 130.102 215.104 129.535C215.084 129.168 215.052 128.802 215.025 128.435C215.02 128.368 215.019 128.3 215.015 128.191C215.04 128.057 215.165 127.815 215.165 127.815C215.192 127.736 215.207 127.677 215.233 127.624C215.328 127.429 215.336 127.426 215.547 127.451C215.735 127.473 215.922 127.498 216.12 127.524C216.101 127.686 216.085 127.828 216.066 127.993L216.032 128.374C216.039 128.419 216.052 128.456 216.049 128.491C216.015 128.931 216.086 129.361 216.162 129.791C216.192 129.964 216.196 130.14 216.206 130.315C216.218 130.535 216.221 130.758 216.234 130.978C216.24 131.085 216.258 131.192 216.277 131.297C216.48 132.355 216.337 133.385 216.012 134.399C215.865 134.858 215.721 135.318 215.567 135.775C215.406 136.261 215.17 136.706 214.777 137.05C214.42 137.364 214.205 137.765 214.055 138.206C213.976 138.438 213.892 138.669 213.827 138.905C213.626 139.627 213.309 140.296 212.916 140.931C212.183 142.112 211.37 143.236 210.449 144.28C210.079 144.699 209.708 145.123 209.3 145.503C208.708 146.051 208.062 146.534 207.333 146.896C206.98 147.072 206.683 147.327 206.377 147.572C206.275 147.654 206.162 147.722 206.051 147.794C206.392 147.703 206.725 147.598 207.057 147.486C207.212 147.357 207.378 147.243 207.561 147.15C207.74 147.06 207.943 146.994 208.086 146.863C208.675 146.323 209.381 145.932 209.952 145.371C210.518 144.817 211.025 144.211 211.52 143.595C212.101 142.87 212.627 142.105 213.127 141.324C213.684 140.454 214.113 139.524 214.45 138.55C214.597 138.122 214.829 137.749 215.168 137.443C215.589 137.065 215.873 136.597 216.037 136.057C216.226 135.434 216.428 134.816 216.597 134.187C216.798 133.442 216.839 132.677 216.78 131.908C216.762 131.664 216.729 131.421 216.688 131.179C216.634 130.861 216.619 130.544 216.622 130.22C216.626 129.966 216.546 129.709 216.496 129.455C216.474 129.343 216.426 129.236 216.403 129.124C216.373 128.976 216.337 128.827 216.484 128.702C216.53 128.664 216.536 128.58 216.564 128.507L216.576 128.174C216.592 127.99 216.608 127.81 216.624 127.619C216.869 127.642 217.071 127.732 217.274 127.82C217.313 127.837 217.345 127.901 217.357 127.948C217.394 128.097 217.431 128.246 217.447 128.398C217.466 128.566 217.504 128.705 217.614 128.854C217.769 129.066 217.845 129.335 217.846 129.594C217.816 129.653 217.763 129.711 217.759 129.772C217.749 129.939 217.753 130.109 217.762 130.277C217.779 130.574 217.799 130.872 217.825 131.168C217.909 132.138 217.754 133.071 217.428 133.988C217.159 134.745 216.931 135.516 216.696 136.285C216.545 136.778 216.472 137.285 216.453 137.8C216.448 137.96 216.428 138.12 216.416 138.28C216.393 138.584 216.27 138.841 216.051 139.053C215.486 139.598 215.085 140.26 214.701 140.934C214.132 141.935 213.513 142.905 212.786 143.8C212.467 144.194 212.138 144.58 211.804 144.962C212.636 144.327 213.403 143.617 214.099 142.838C214.107 142.829 214.114 142.82 214.122 142.811C214.553 142.279 214.912 141.698 215.238 141.098C215.551 140.522 215.934 139.999 216.391 139.531C216.616 139.103 216.822 138.664 217.009 138.213C217.022 138.092 217.038 137.971 217.045 137.849C217.068 137.357 217.142 136.875 217.282 136.402C217.515 135.617 217.738 134.828 217.993 134.05C218.086 133.763 218.155 133.475 218.21 133.187C218.24 132.783 218.265 132.378 218.265 131.967C218.265 131.616 218.236 131.272 218.214 130.926C218.179 130.722 218.15 130.519 218.096 130.316C218.043 130.116 218.041 129.932 218.095 129.736C217.98 128.902 217.82 128.083 217.585 127.294C217.483 127.262 217.378 127.236 217.277 127.196C216.916 127.051 216.54 126.978 216.151 126.987C215.898 126.992 215.646 127.007 215.394 127.013C215.015 127.021 214.643 126.963 214.274 126.882C213.966 126.814 213.654 126.766 213.347 126.702C213.167 126.665 212.976 126.652 212.844 126.535C213.347 126.223 213.843 125.917 214.338 125.61C214.625 125.432 214.903 125.238 215.2 125.077C215.605 124.858 216.016 124.648 216.424 124.434C216.335 124.264 216.229 124.104 216.133 123.937C215.958 124.025 215.784 124.113 215.605 124.205Z" fill="#FA4616"/>
<path opacity="0.75" d="M210.135 127.391C210.153 126.929 210.116 126.457 210.116 126.457C209.932 125.833 209.62 125.278 209.295 124.731C209.655 125.745 209.949 126.797 210.169 127.88C210.167 127.841 210.16 127.803 210.158 127.763L210.135 127.391Z" fill="#FA4616"/>
<path opacity="0.75" d="M210.612 129.777C210.547 129.533 210.474 129.291 210.406 129.047C210.385 128.972 210.366 128.894 210.343 128.805C210.448 129.455 210.522 130.117 210.575 130.784C210.697 130.456 210.701 130.121 210.612 129.777Z" fill="#FA4616"/>
<path d="M196.963 129.425C196.852 129.355 196.771 129.271 196.722 129.169C196.713 129.149 196.698 129.13 196.669 129.081C196.628 129.133 196.588 129.162 196.575 129.203C196.551 129.277 196.532 129.355 196.528 129.436C196.519 129.626 196.479 129.8 196.371 129.943C196.301 130.034 196.339 130.151 196.389 130.272C196.43 130.249 196.459 130.22 196.5 130.213C196.75 130.172 196.962 130.081 197.165 129.979C197.202 129.961 197.235 129.939 197.268 129.915C197.323 129.874 197.327 129.818 197.279 129.739C197.204 129.615 197.099 129.511 196.963 129.425Z" fill="#FA4616"/>
<path d="M189.687 142.101C190.003 142.101 190.317 142.076 190.629 142.041C190.343 141.878 190.029 141.774 189.711 141.682C189.235 141.544 188.849 141.288 188.553 140.892C188.35 140.62 188.103 140.392 187.838 140.18C187.635 140.017 187.437 139.847 187.252 139.665C187.714 140.523 188.243 141.341 188.845 142.101H189.687Z" fill="#FA4616"/>
<path d="M197.293 117.851C197.648 117.913 198.001 117.996 198.349 118.089C198.869 118.226 199.383 118.385 199.903 118.524C199.937 118.533 199.97 118.545 200.004 118.555C199.716 117.787 199.382 117.047 199.003 116.34C198.906 116.314 198.811 116.283 198.709 116.271C198.525 116.252 198.342 116.228 198.158 116.222C197.868 116.213 197.579 116.206 197.29 116.199C196.396 116.451 195.533 116.776 194.708 117.166C194.82 117.197 194.933 117.224 195.042 117.267C195.769 117.554 196.526 117.717 197.293 117.851Z" fill="#FA4616"/>
<path d="M187.955 139.73C188.282 139.997 188.606 140.269 188.856 140.614C189.124 140.981 189.473 141.225 189.915 141.342C190.393 141.469 190.823 141.679 191.213 141.959C191.651 141.878 192.084 141.763 192.509 141.615C192.434 141.557 192.352 141.515 192.254 141.504C191.87 141.464 191.578 141.27 191.338 140.983C191.193 140.808 191.01 140.682 190.805 140.589C190.651 140.519 190.494 140.456 190.338 140.392C189.941 140.228 189.639 139.966 189.432 139.582C189.273 139.287 189.081 139.007 188.888 138.733C188.683 138.441 188.515 138.134 188.415 137.792C188.357 137.594 188.305 137.394 188.253 137.194C188.163 136.846 188 136.537 187.761 136.268C187.68 136.177 187.602 136.081 187.515 135.995C187.057 135.539 186.727 135.003 186.457 134.42C186.287 134.053 186.095 133.691 185.867 133.357C185.53 132.864 185.391 132.34 185.46 131.749C185.495 131.453 185.498 131.154 185.511 130.855C185.514 130.799 185.498 130.742 185.488 130.669C185.488 130.669 185.483 130.588 185.495 130.435C185.509 130.252 185.521 130.089 185.532 129.943C185.546 129.754 185.575 129.709 185.575 129.709C185.618 129.536 185.665 129.352 185.714 129.151C185.765 128.95 185.886 128.624 185.886 128.624C185.999 128.24 186.162 127.874 186.386 127.543C186.735 127.029 186.978 126.473 187.145 125.878C187.253 125.492 187.416 125.13 187.654 124.804C187.926 124.433 188.193 124.058 188.463 123.686C188.607 123.487 188.75 123.287 188.9 123.093C189.232 122.662 189.654 122.331 190.105 122.033C190.353 121.869 190.551 121.66 190.716 121.417C190.827 121.252 190.938 121.086 191.053 120.922C191.376 120.46 191.797 120.132 192.354 119.992C192.533 119.948 192.709 119.892 192.886 119.839C194.314 119.409 195.76 119.254 197.241 119.513C197.715 119.596 198.167 119.723 198.584 119.971C198.987 120.21 199.406 120.422 199.805 120.666C200.108 120.85 200.432 120.985 200.762 121.101C200.608 120.422 200.42 119.761 200.2 119.114C200.122 119.1 200.042 119.089 199.959 119.086C199.875 119.082 199.791 119.069 199.707 119.064C199.322 119.038 198.947 118.959 198.575 118.855C198.205 118.751 197.833 118.657 197.458 118.572C196.828 118.429 196.193 118.309 195.566 118.158C195.246 118.08 194.938 117.953 194.625 117.847C194.188 117.698 193.79 117.714 193.406 117.854C188.558 120.706 185.305 125.955 185.305 131.966C185.305 134.057 185.713 136.048 186.432 137.884C186.706 138.198 186.963 138.524 187.185 138.881C187.389 139.208 187.654 139.485 187.955 139.73Z" fill="#FA4616"/>
<path d="M198.87 120.62C198.666 120.532 198.461 120.444 198.254 120.362C198.047 120.28 197.844 120.165 197.629 120.135C196.691 120.002 195.748 119.883 194.805 120.067C193.922 120.239 193.044 120.44 192.165 120.635C191.953 120.682 191.754 120.778 191.599 120.933C191.427 121.105 191.25 121.28 191.113 121.48C190.854 121.859 190.555 122.187 190.167 122.44C189.646 122.781 189.234 123.233 188.89 123.749C188.673 124.074 188.449 124.396 188.218 124.711C187.883 125.166 187.624 125.655 187.476 126.205C187.341 126.71 187.124 127.183 186.826 127.618C186.727 127.763 186.643 127.919 186.561 128.075C186.323 128.525 186.185 129.012 186.063 129.5C185.997 129.763 185.99 130.042 185.957 130.314C185.943 130.426 185.985 130.532 185.976 130.649C185.942 131.114 185.938 131.581 185.917 132.048C185.905 132.325 185.977 132.579 186.127 132.811C186.21 132.939 186.306 133.059 186.387 133.189C186.565 133.475 186.763 133.752 186.905 134.056C187.169 134.618 187.501 135.127 187.949 135.557C188.463 136.05 188.799 136.637 188.934 137.339C188.995 137.655 189.107 137.957 189.269 138.24C189.493 138.632 189.714 139.026 189.93 139.423C190.036 139.619 190.181 139.77 190.375 139.875C190.49 139.937 190.607 139.996 190.728 140.044C191.114 140.196 191.452 140.413 191.714 140.74C191.841 140.898 192.001 141.012 192.195 141.085C192.352 141.145 192.504 141.223 192.65 141.306C192.72 141.347 192.799 141.409 192.827 141.479C192.828 141.483 192.831 141.486 192.833 141.49C193.213 141.34 193.588 141.171 193.955 140.969C193.793 140.97 193.629 140.936 193.465 140.854C193.099 140.668 192.706 140.561 192.31 140.463C192.199 140.436 192.087 140.404 191.98 140.361C191.739 140.263 191.533 140.119 191.409 139.883C191.085 139.266 190.744 138.658 190.581 137.969C190.471 137.501 190.255 137.08 189.901 136.738C189.535 136.385 189.334 135.952 189.235 135.453C189.159 135.072 189.046 134.695 188.916 134.327C188.746 133.842 188.574 133.36 188.468 132.856C188.401 132.531 188.272 132.228 188.104 131.941C187.979 131.73 187.865 131.513 187.748 131.297C187.541 130.916 187.453 130.503 187.502 130.076C187.616 129.093 187.852 128.149 188.471 127.338C188.778 126.936 189.055 126.51 189.353 126.101C189.64 125.707 189.811 125.271 189.861 124.789C189.926 124.157 190.23 123.647 190.652 123.191C191.167 122.635 191.775 122.197 192.401 121.776C193.096 121.309 193.823 121.2 194.642 121.372C195.445 121.54 196.248 121.731 197.07 121.802C197.444 121.834 197.782 121.973 198.106 122.165C198.268 122.261 198.454 122.328 198.638 122.374C198.822 122.421 199.017 122.433 199.209 122.445C199.593 122.467 199.978 122.475 200.362 122.495C200.627 122.508 200.855 122.578 201.055 122.691C200.995 122.281 200.923 121.875 200.84 121.475C200.41 121.342 199.998 121.169 199.605 120.944C199.374 120.812 199.117 120.725 198.87 120.62Z" fill="#FA4616"/>
<path d="M200.391 123.027C200.176 123.015 199.961 123.005 199.746 122.994C199.447 122.978 199.146 122.973 198.848 122.945C198.525 122.914 198.205 122.85 197.929 122.668C197.58 122.437 197.195 122.331 196.781 122.293C196.507 122.268 196.233 122.217 195.961 122.169C195.371 122.065 194.782 121.953 194.191 121.847C193.782 121.774 193.398 121.848 193.036 122.055C192.4 122.42 191.809 122.844 191.271 123.34C190.776 123.796 190.428 124.324 190.368 125.017C190.338 125.361 190.232 125.694 190.055 125.996C189.894 126.273 189.721 126.546 189.54 126.812C189.295 127.174 189.039 127.529 188.785 127.884C188.541 128.226 188.379 128.605 188.284 129.011C188.203 129.353 188.129 129.698 188.059 130.043C187.99 130.389 188.02 130.728 188.162 131.055C188.266 131.294 188.377 131.531 188.467 131.775C188.607 132.155 188.736 132.539 188.861 132.925C188.975 133.281 189.064 133.647 189.191 134C189.36 134.469 189.526 134.938 189.608 135.431C189.678 135.847 189.866 136.198 190.169 136.489C190.574 136.878 190.832 137.35 190.963 137.89C191.118 138.531 191.43 139.103 191.729 139.681C191.827 139.869 191.985 139.983 192.181 140.048C192.254 140.073 192.328 140.092 192.403 140.113C192.788 140.218 193.179 140.306 193.536 140.494C193.582 140.519 193.642 140.537 193.691 140.53C194.019 140.488 194.358 140.461 194.644 140.285C194.936 140.106 195.244 139.969 195.571 139.862C196.236 139.315 196.863 138.678 197.443 137.952C197.102 138.021 196.782 138.147 196.481 138.321C196.002 138.598 195.525 138.879 195.041 139.147C194.65 139.365 194.233 139.522 193.79 139.605C193.533 139.653 193.306 139.622 193.108 139.428C193.006 139.328 192.874 139.255 192.75 139.179C192.587 139.081 192.502 138.941 192.463 138.757C192.431 138.61 192.391 138.456 192.314 138.329C192.158 138.071 192.067 137.8 192.082 137.501C192.1 137.158 192.004 136.854 191.816 136.57C191.607 136.256 191.503 135.902 191.484 135.53C191.458 135.019 191.31 134.555 191.022 134.13C190.749 133.729 190.603 133.279 190.554 132.799C190.502 132.289 190.362 131.808 190.114 131.358C189.897 130.963 189.823 130.54 189.855 130.093C189.875 129.818 189.879 129.542 189.889 129.267C189.901 128.929 189.991 128.617 190.194 128.343C190.54 127.873 190.882 127.402 191.236 126.939C191.441 126.672 191.676 126.427 191.879 126.158C192.108 125.852 192.329 125.538 192.531 125.214C192.697 124.948 192.822 124.657 192.981 124.387C193.297 123.854 193.739 123.476 194.376 123.4C195.094 123.314 195.815 123.251 196.536 123.189C196.741 123.172 196.951 123.188 197.157 123.202C197.628 123.235 198.025 123.434 198.385 123.732C198.585 123.897 198.806 124.039 199.022 124.184C199.182 124.291 199.351 124.383 199.512 124.487C199.729 124.628 199.881 124.827 200.018 125.044C200.153 125.256 200.308 125.455 200.459 125.657C200.532 125.755 200.623 125.841 200.693 125.941C200.855 126.174 201.06 126.349 201.288 126.492C201.292 126.312 201.302 126.131 201.302 125.95C201.302 125.143 201.254 124.348 201.171 123.565C201.162 123.548 201.15 123.532 201.142 123.515C200.984 123.209 200.736 123.046 200.391 123.027Z" fill="#FA4616"/>
<path d="M200.684 126.529C200.396 126.114 200.116 125.691 199.866 125.253C199.698 124.961 199.491 124.731 199.183 124.598C198.764 124.417 198.381 124.178 198.02 123.901C197.8 123.733 197.544 123.647 197.269 123.638C197.07 123.631 196.869 123.635 196.671 123.657C195.983 123.734 195.296 123.82 194.608 123.903C194.524 123.913 194.44 123.923 194.357 123.941C194.042 124.008 193.812 124.171 193.704 124.489C193.577 124.862 193.377 125.197 193.132 125.507C192.993 125.681 192.863 125.861 192.724 126.036C192.419 126.422 192.073 126.769 191.669 127.057C191.545 127.145 191.426 127.25 191.334 127.369C191.024 127.769 190.726 128.179 190.425 128.585C190.279 128.782 190.212 129.008 190.202 129.251C190.192 129.534 190.186 129.817 190.172 130.1C190.152 130.492 190.234 130.861 190.429 131.204C190.706 131.69 190.871 132.212 190.947 132.764C191.004 133.18 191.134 133.569 191.365 133.922C191.671 134.388 191.838 134.896 191.866 135.454C191.882 135.787 191.973 136.104 192.157 136.387C192.376 136.726 192.484 137.093 192.459 137.498C192.446 137.718 192.508 137.921 192.618 138.112C192.672 138.205 192.746 138.304 192.75 138.403C192.764 138.769 192.982 138.97 193.271 139.15C193.42 139.244 193.557 139.321 193.735 139.318C193.796 139.317 193.86 139.319 193.918 139.335C194.071 139.377 194.207 139.337 194.335 139.258C194.721 139.022 195.124 138.807 195.489 138.543C196.174 138.048 196.907 137.658 197.71 137.391C197.787 137.365 197.858 137.327 197.933 137.297C198.494 136.508 199.005 135.635 199.449 134.679C199.61 134.334 199.76 133.979 199.899 133.619C199.722 133.827 199.535 134.029 199.337 134.222C199.061 134.492 198.735 134.696 198.385 134.86C198.092 134.997 197.802 135.137 197.509 135.273C197.289 135.375 197.135 135.532 197.053 135.764C196.955 136.037 196.782 136.264 196.558 136.445C196.034 136.87 195.506 137.29 194.966 137.697C194.69 137.906 194.375 138.052 194.033 138.133C193.947 138.154 193.866 138.207 193.79 138.255C193.505 138.435 193.292 138.293 193.25 138.019C193.209 137.761 193.176 137.509 193.198 137.245C193.216 137.018 193.197 136.786 193.176 136.559C193.152 136.3 193.109 136.042 193.071 135.785C192.983 135.172 192.888 134.559 192.805 133.945C192.764 133.634 192.749 133.32 192.71 133.009C192.666 132.66 192.657 132.298 192.547 131.97C192.264 131.117 192.235 130.258 192.375 129.384C192.445 128.946 192.529 128.51 192.616 128.075C192.696 127.678 192.786 127.283 192.877 126.887C192.942 126.6 193.057 126.334 193.226 126.091C193.624 125.52 194.143 125.083 194.761 124.768C195.213 124.538 195.703 124.493 196.201 124.554C196.922 124.642 197.592 124.868 198.19 125.292C198.592 125.577 198.796 125.953 198.767 126.446C198.759 126.576 198.752 126.707 198.736 126.835C198.692 127.168 198.817 127.408 199.13 127.532C199.336 127.614 199.549 127.681 199.762 127.743C200.138 127.851 200.523 127.934 200.892 128.06C200.998 128.096 201.092 128.146 201.184 128.196C201.222 127.823 201.25 127.448 201.269 127.071C201.047 126.928 200.841 126.758 200.684 126.529Z" fill="#FA4616"/>
<path d="M198.913 129.908C198.599 129.651 198.276 129.403 197.942 129.172C197.63 128.956 197.45 128.674 197.412 128.301C197.397 128.156 197.388 128.012 197.377 127.866C197.364 127.707 197.305 127.568 197.184 127.462C196.989 127.29 196.791 127.124 196.568 126.934C196.43 127.096 196.298 127.242 196.176 127.395C195.73 127.954 195.492 128.586 195.504 129.304C195.509 129.564 195.517 129.824 195.523 130.084C195.537 130.586 195.477 131.075 195.279 131.544C195.144 131.864 195.073 132.2 195.048 132.546C195.037 132.699 195.02 132.851 195.012 133.004C194.993 133.371 194.89 133.711 194.691 134.021C194.541 134.255 194.431 134.504 194.378 134.78C194.353 134.906 194.312 135.035 194.246 135.145C194.086 135.41 194.163 135.639 194.328 135.895C194.644 135.787 194.931 135.693 195.1 135.38C195.302 135.01 195.499 134.638 195.638 134.24C195.78 133.832 195.973 133.45 196.231 133.103C196.647 132.543 197.184 132.143 197.868 131.983C198.454 131.846 198.856 131.477 199.213 131.036C199.397 130.809 199.403 130.55 199.253 130.307C199.161 130.161 199.046 130.018 198.913 129.908ZM197.456 130.054C197.327 130.126 197.189 130.191 197.049 130.252C196.934 130.302 196.805 130.334 196.71 130.411C196.629 130.477 196.485 130.453 196.347 130.406C196.275 130.381 196.247 130.327 196.239 130.27C196.217 130.104 196.215 129.949 196.312 129.826C196.393 129.723 196.403 129.583 196.404 129.441C196.404 129.35 196.418 129.263 196.434 129.178C196.443 129.133 196.471 129.094 196.495 129.043C196.527 129.011 196.56 128.965 196.608 128.933C196.698 128.872 196.804 128.913 196.874 129.028C196.886 129.048 196.897 129.069 196.904 129.088C196.937 129.181 197.006 129.251 197.108 129.31C197.306 129.423 197.426 129.578 197.508 129.75C197.572 129.884 197.565 129.993 197.456 130.054Z" fill="#FA4616"/>
<path d="M199.99 128.195C199.601 128.071 199.217 127.94 198.874 127.71C198.595 127.523 198.453 127.272 198.467 126.936C198.472 126.798 198.47 126.661 198.471 126.523C198.474 126.154 198.312 125.884 197.996 125.688C197.584 125.435 197.14 125.28 196.672 125.17C195.745 124.951 194.945 125.156 194.244 125.808C193.827 126.196 193.529 126.632 193.391 127.191C193.173 128.084 192.973 128.979 192.812 129.883C192.699 130.52 192.697 131.139 192.879 131.768C192.983 132.124 193.027 132.502 193.069 132.873C193.147 133.565 193.195 134.26 193.273 134.952C193.333 135.476 193.434 135.996 193.493 136.521C193.527 136.816 193.522 137.116 193.518 137.413C193.515 137.607 193.543 137.79 193.609 137.981C193.721 137.954 193.824 137.919 193.93 137.907C194.183 137.879 194.405 137.786 194.597 137.621C195.033 137.245 195.474 136.875 195.897 136.487C196.207 136.203 196.43 135.858 196.537 135.442C196.607 135.169 196.775 134.96 197.018 134.823C197.224 134.706 197.438 134.594 197.661 134.516C198.323 134.284 198.875 133.91 199.336 133.38C199.801 132.845 200.235 132.298 200.502 131.63C200.525 131.571 200.569 131.524 200.598 131.467C200.839 130.55 201.016 129.601 201.133 128.636C201.071 128.597 201.02 128.549 200.948 128.517C200.643 128.379 200.312 128.297 199.99 128.195ZM199.772 131.212C199.694 131.369 199.603 131.526 199.487 131.654C199.091 132.094 198.64 132.447 198.035 132.572C197.434 132.696 196.982 133.061 196.629 133.546C196.462 133.774 196.32 134.022 196.182 134.269C195.849 134.866 195.488 135.443 194.982 135.915C194.8 136.084 194.563 136.128 194.331 136.17C194.208 136.192 194.107 136.124 194.044 136.016C193.869 135.711 193.774 135.403 193.956 135.06C194.03 134.92 194.058 134.757 194.105 134.604C194.17 134.394 194.213 134.173 194.305 133.974C194.468 133.619 194.563 133.255 194.548 132.864C194.527 132.272 194.644 131.709 194.897 131.172C195.064 130.819 195.122 130.446 195.107 130.056C195.095 129.727 195.087 129.398 195.098 129.069C195.118 128.458 195.313 127.9 195.651 127.384C195.854 127.155 196.048 126.917 196.265 126.701C196.485 126.482 196.625 126.493 196.859 126.706C197.023 126.855 197.19 127.004 197.347 127.161C197.544 127.357 197.659 127.593 197.669 127.876C197.673 127.998 197.684 128.121 197.695 128.243C197.717 128.527 197.834 128.757 198.085 128.908C198.381 129.087 198.677 129.265 198.971 129.447C199.128 129.544 199.288 129.637 199.433 129.75C199.893 130.111 200.027 130.69 199.772 131.212Z" fill="#FA4616"/>
<path opacity="0.75" d="M198.709 116.271C198.811 116.282 198.906 116.313 199.003 116.34C198.964 116.269 198.931 116.194 198.892 116.124L198.744 115.858C198.251 115.949 197.765 116.065 197.289 116.199C197.578 116.206 197.868 116.213 198.157 116.221C198.342 116.228 198.525 116.252 198.709 116.271Z" fill="#FA4616"/>
<path opacity="0.75" d="M187.838 140.18C188.103 140.392 188.35 140.62 188.553 140.892C188.848 141.288 189.235 141.543 189.711 141.682C190.029 141.774 190.343 141.878 190.629 142.041C190.825 142.019 191.02 141.994 191.213 141.959C190.823 141.679 190.394 141.468 189.916 141.342C189.474 141.225 189.124 140.982 188.857 140.614C188.606 140.269 188.283 139.998 187.956 139.73C187.655 139.485 187.39 139.208 187.187 138.88C186.965 138.524 186.707 138.197 186.434 137.884C186.673 138.496 186.945 139.092 187.253 139.666C187.437 139.847 187.635 140.017 187.838 140.18Z" fill="#FA4616"/>
<path opacity="0.75" d="M192.828 141.479C192.8 141.409 192.721 141.347 192.651 141.306C192.505 141.223 192.353 141.145 192.196 141.085C192.002 141.012 191.842 140.898 191.715 140.74C191.454 140.413 191.116 140.196 190.73 140.044C190.609 139.996 190.491 139.937 190.377 139.875C190.182 139.77 190.037 139.618 189.931 139.423C189.715 139.027 189.495 138.633 189.271 138.24C189.109 137.957 188.996 137.655 188.935 137.339C188.8 136.637 188.464 136.051 187.951 135.557C187.502 135.127 187.17 134.618 186.907 134.056C186.764 133.752 186.567 133.475 186.389 133.189C186.308 133.059 186.212 132.939 186.128 132.811C185.978 132.579 185.907 132.325 185.918 132.048C185.939 131.581 185.944 131.114 185.977 130.649C185.986 130.532 185.944 130.426 185.958 130.314C185.99 130.042 185.998 129.763 186.064 129.5C186.186 129.011 186.324 128.524 186.562 128.075C186.645 127.919 186.728 127.763 186.827 127.618C187.124 127.183 187.342 126.71 187.477 126.205C187.624 125.655 187.883 125.167 188.219 124.711C188.451 124.396 188.673 124.074 188.891 123.749C189.236 123.233 189.647 122.781 190.168 122.44C190.555 122.187 190.855 121.859 191.114 121.48C191.251 121.28 191.428 121.105 191.601 120.933C191.755 120.779 191.954 120.682 192.167 120.635C193.045 120.44 193.922 120.239 194.806 120.067C195.748 119.883 196.692 120.002 197.63 120.135C197.845 120.165 198.049 120.28 198.255 120.362C198.462 120.444 198.666 120.532 198.872 120.62C199.118 120.725 199.376 120.812 199.607 120.943C200.001 121.167 200.414 121.341 200.842 121.474C200.816 121.349 200.791 121.224 200.763 121.1C200.433 120.984 200.111 120.85 199.806 120.665C199.407 120.422 198.988 120.209 198.585 119.97C198.168 119.722 197.717 119.596 197.242 119.513C195.761 119.254 194.314 119.409 192.888 119.838C192.711 119.891 192.535 119.946 192.355 119.991C191.798 120.131 191.377 120.458 191.054 120.922C190.94 121.085 190.829 121.251 190.717 121.416C190.552 121.659 190.355 121.868 190.106 122.032C189.656 122.33 189.234 122.661 188.902 123.093C188.752 123.287 188.609 123.486 188.465 123.685C188.194 124.057 187.927 124.432 187.656 124.803C187.418 125.13 187.254 125.492 187.146 125.878C186.98 126.472 186.737 127.029 186.388 127.542C186.163 127.873 186 128.239 185.888 128.624C185.888 128.624 185.766 128.949 185.716 129.15C185.665 129.351 185.62 129.535 185.576 129.709C185.576 129.709 185.547 129.753 185.533 129.942C185.522 130.088 185.51 130.25 185.496 130.434C185.484 130.587 185.489 130.669 185.489 130.669C185.499 130.742 185.515 130.799 185.513 130.855C185.499 131.153 185.496 131.452 185.462 131.748C185.392 132.339 185.531 132.863 185.868 133.357C186.096 133.69 186.289 134.052 186.458 134.419C186.729 135.002 187.058 135.539 187.516 135.995C187.602 136.081 187.681 136.176 187.763 136.268C188.002 136.537 188.164 136.845 188.254 137.193C188.305 137.393 188.359 137.594 188.417 137.792C188.517 138.133 188.684 138.44 188.889 138.732C189.083 139.007 189.274 139.287 189.433 139.581C189.64 139.966 189.942 140.228 190.34 140.391C190.496 140.455 190.653 140.519 190.807 140.588C191.012 140.681 191.194 140.807 191.34 140.982C191.579 141.27 191.872 141.463 192.255 141.504C192.355 141.514 192.435 141.556 192.51 141.614C192.619 141.576 192.727 141.531 192.836 141.489C192.832 141.486 192.83 141.483 192.828 141.479Z" fill="#FA4616"/>
<path opacity="0.75" d="M194.625 117.846C194.938 117.953 195.246 118.079 195.566 118.157C196.193 118.309 196.828 118.428 197.457 118.571C197.832 118.655 198.205 118.75 198.575 118.854C198.946 118.958 199.321 119.037 199.707 119.063C199.791 119.068 199.875 119.082 199.959 119.085C200.041 119.089 200.122 119.1 200.2 119.114C200.137 118.926 200.074 118.738 200.004 118.554C199.971 118.544 199.938 118.532 199.903 118.523C199.383 118.384 198.869 118.225 198.35 118.088C198.001 117.996 197.648 117.913 197.293 117.85C196.527 117.716 195.77 117.553 195.043 117.266C194.934 117.223 194.821 117.195 194.709 117.165C194.264 117.375 193.829 117.604 193.407 117.852C193.79 117.714 194.189 117.698 194.625 117.846Z" fill="#FA4616"/>
<path opacity="0.75" d="M194.645 140.285C194.359 140.461 194.02 140.488 193.692 140.53C193.643 140.537 193.583 140.519 193.537 140.494C193.181 140.305 192.789 140.217 192.404 140.113C192.33 140.092 192.255 140.073 192.182 140.048C191.986 139.982 191.828 139.869 191.73 139.681C191.431 139.103 191.119 138.532 190.964 137.89C190.833 137.351 190.575 136.879 190.17 136.489C189.867 136.199 189.679 135.847 189.609 135.431C189.527 134.938 189.361 134.469 189.192 134C189.065 133.648 188.977 133.281 188.862 132.925C188.737 132.539 188.608 132.155 188.468 131.775C188.378 131.531 188.267 131.294 188.163 131.055C188.021 130.728 187.991 130.389 188.06 130.043C188.13 129.698 188.204 129.353 188.285 129.011C188.38 128.605 188.542 128.226 188.786 127.884C189.04 127.528 189.296 127.174 189.541 126.812C189.722 126.546 189.894 126.273 190.056 125.996C190.233 125.694 190.339 125.361 190.369 125.017C190.429 124.324 190.777 123.796 191.272 123.34C191.811 122.844 192.402 122.42 193.037 122.055C193.398 121.848 193.782 121.774 194.192 121.847C194.783 121.952 195.372 122.064 195.962 122.169C196.234 122.217 196.507 122.267 196.782 122.293C197.195 122.331 197.581 122.437 197.93 122.668C198.206 122.85 198.526 122.914 198.849 122.945C199.147 122.973 199.448 122.978 199.747 122.994C199.962 123.005 200.177 123.015 200.392 123.027C200.737 123.046 200.985 123.209 201.143 123.516C201.152 123.533 201.164 123.549 201.172 123.566C201.141 123.272 201.101 122.981 201.058 122.691C200.858 122.577 200.629 122.508 200.364 122.495C199.98 122.475 199.595 122.467 199.212 122.445C199.02 122.434 198.825 122.421 198.64 122.374C198.456 122.328 198.272 122.26 198.109 122.165C197.786 121.973 197.447 121.835 197.073 121.802C196.25 121.73 195.448 121.54 194.644 121.372C193.824 121.201 193.099 121.31 192.404 121.776C191.777 122.197 191.17 122.635 190.655 123.191C190.233 123.647 189.928 124.157 189.863 124.789C189.814 125.271 189.642 125.707 189.355 126.101C189.057 126.51 188.781 126.935 188.474 127.338C187.855 128.149 187.619 129.092 187.505 130.076C187.455 130.503 187.543 130.916 187.751 131.297C187.868 131.513 187.982 131.73 188.106 131.941C188.274 132.228 188.402 132.531 188.471 132.856C188.576 133.36 188.748 133.842 188.919 134.327C189.049 134.695 189.161 135.071 189.237 135.453C189.336 135.951 189.538 136.385 189.903 136.738C190.258 137.08 190.473 137.5 190.584 137.969C190.747 138.658 191.087 139.266 191.412 139.883C191.536 140.118 191.742 140.263 191.983 140.361C192.089 140.404 192.201 140.436 192.313 140.463C192.709 140.561 193.101 140.668 193.468 140.853C193.632 140.936 193.795 140.971 193.957 140.969C194.517 140.661 195.055 140.286 195.573 139.862C195.245 139.969 194.937 140.106 194.645 140.285Z" fill="#FA4616"/>
<path opacity="0.55" d="M197.711 137.391C196.909 137.658 196.176 138.048 195.49 138.543C195.124 138.807 194.722 139.022 194.336 139.258C194.207 139.337 194.072 139.377 193.919 139.335C193.861 139.319 193.797 139.317 193.736 139.318C193.559 139.32 193.421 139.243 193.272 139.15C192.983 138.97 192.766 138.77 192.751 138.403C192.747 138.304 192.672 138.205 192.619 138.112C192.509 137.921 192.448 137.718 192.461 137.498C192.485 137.093 192.377 136.727 192.158 136.387C191.975 136.103 191.884 135.786 191.867 135.454C191.84 134.896 191.672 134.388 191.366 133.922C191.135 133.569 191.005 133.18 190.948 132.764C190.873 132.212 190.707 131.69 190.43 131.204C190.235 130.861 190.153 130.492 190.173 130.1C190.187 129.817 190.193 129.533 190.204 129.251C190.212 129.008 190.279 128.783 190.426 128.585C190.727 128.178 191.025 127.769 191.335 127.369C191.428 127.25 191.546 127.145 191.671 127.057C192.075 126.769 192.419 126.422 192.726 126.036C192.864 125.861 192.994 125.681 193.133 125.507C193.378 125.198 193.577 124.862 193.705 124.489C193.814 124.171 194.043 124.008 194.358 123.941C194.441 123.924 194.525 123.913 194.609 123.903C195.296 123.82 195.983 123.734 196.672 123.657C196.87 123.635 197.071 123.631 197.27 123.638C197.545 123.647 197.802 123.733 198.021 123.901C198.383 124.177 198.765 124.416 199.184 124.598C199.493 124.731 199.699 124.961 199.867 125.253C200.118 125.691 200.398 126.113 200.685 126.529C200.842 126.757 201.048 126.928 201.276 127.069C201.285 126.877 201.286 126.685 201.291 126.493C201.063 126.349 200.858 126.174 200.695 125.941C200.625 125.841 200.535 125.755 200.462 125.657C200.311 125.455 200.156 125.256 200.021 125.044C199.883 124.827 199.732 124.628 199.515 124.487C199.354 124.382 199.184 124.29 199.025 124.184C198.809 124.039 198.588 123.898 198.388 123.732C198.029 123.434 197.631 123.235 197.16 123.202C196.953 123.188 196.744 123.172 196.538 123.19C195.817 123.251 195.097 123.314 194.379 123.4C193.742 123.476 193.3 123.854 192.984 124.387C192.825 124.657 192.7 124.948 192.534 125.214C192.331 125.538 192.111 125.853 191.881 126.158C191.679 126.427 191.444 126.672 191.239 126.939C190.885 127.402 190.542 127.873 190.197 128.343C189.995 128.617 189.903 128.929 189.892 129.267C189.882 129.542 189.877 129.818 189.858 130.093C189.826 130.54 189.9 130.963 190.117 131.358C190.365 131.808 190.505 132.289 190.557 132.799C190.605 133.279 190.752 133.729 191.024 134.13C191.313 134.554 191.461 135.019 191.487 135.53C191.505 135.902 191.609 136.256 191.818 136.57C192.007 136.854 192.103 137.158 192.085 137.501C192.069 137.8 192.161 138.071 192.317 138.329C192.394 138.456 192.434 138.61 192.465 138.757C192.505 138.941 192.59 139.081 192.752 139.179C192.877 139.255 193.009 139.328 193.111 139.428C193.309 139.622 193.535 139.653 193.792 139.605C194.236 139.522 194.652 139.365 195.044 139.147C195.527 138.879 196.005 138.598 196.483 138.321C196.785 138.147 197.104 138.022 197.446 137.952C197.614 137.741 197.777 137.522 197.937 137.297C197.86 137.327 197.788 137.365 197.711 137.391Z" fill="#FA4616"/>
<path opacity="0.45" d="M200.504 131.631C200.237 132.299 199.803 132.846 199.338 133.381C198.877 133.91 198.324 134.285 197.662 134.517C197.439 134.595 197.225 134.707 197.019 134.823C196.776 134.961 196.608 135.17 196.538 135.443C196.432 135.858 196.209 136.204 195.899 136.488C195.475 136.876 195.034 137.246 194.599 137.622C194.408 137.787 194.185 137.88 193.931 137.908C193.825 137.92 193.722 137.955 193.611 137.982C193.545 137.791 193.517 137.608 193.52 137.414C193.523 137.116 193.528 136.816 193.495 136.522C193.435 135.997 193.335 135.477 193.275 134.952C193.196 134.261 193.148 133.565 193.071 132.874C193.029 132.502 192.985 132.125 192.881 131.768C192.699 131.14 192.7 130.521 192.814 129.884C192.975 128.979 193.175 128.084 193.393 127.192C193.53 126.632 193.828 126.197 194.246 125.809C194.947 125.157 195.747 124.951 196.674 125.17C197.141 125.281 197.586 125.435 197.997 125.689C198.314 125.885 198.476 126.154 198.473 126.524C198.472 126.661 198.473 126.799 198.468 126.937C198.455 127.273 198.596 127.523 198.875 127.71C199.219 127.94 199.603 128.072 199.992 128.196C200.313 128.297 200.645 128.38 200.951 128.519C201.022 128.551 201.074 128.598 201.136 128.638C201.154 128.49 201.176 128.344 201.191 128.196C201.098 128.145 201.004 128.097 200.899 128.06C200.53 127.933 200.144 127.852 199.769 127.743C199.555 127.681 199.342 127.614 199.136 127.532C198.823 127.408 198.699 127.168 198.743 126.835C198.76 126.706 198.766 126.576 198.773 126.446C198.802 125.952 198.599 125.576 198.196 125.292C197.599 124.868 196.929 124.642 196.208 124.554C195.71 124.493 195.221 124.538 194.768 124.768C194.148 125.083 193.63 125.52 193.233 126.091C193.064 126.334 192.95 126.6 192.884 126.887C192.793 127.282 192.703 127.678 192.623 128.075C192.535 128.51 192.451 128.946 192.381 129.384C192.241 130.258 192.271 131.117 192.554 131.969C192.663 132.298 192.673 132.661 192.717 133.009C192.756 133.32 192.77 133.634 192.812 133.945C192.895 134.559 192.989 135.171 193.078 135.785C193.115 136.042 193.158 136.3 193.182 136.559C193.203 136.786 193.223 137.019 193.204 137.245C193.182 137.508 193.215 137.76 193.256 138.019C193.299 138.293 193.512 138.435 193.796 138.255C193.873 138.207 193.953 138.154 194.039 138.133C194.382 138.052 194.696 137.906 194.973 137.697C195.512 137.29 196.041 136.87 196.565 136.445C196.788 136.264 196.962 136.037 197.06 135.764C197.142 135.532 197.295 135.376 197.515 135.273C197.808 135.138 198.099 134.998 198.391 134.86C198.742 134.696 199.067 134.492 199.344 134.222C199.542 134.028 199.728 133.827 199.906 133.619C200.177 132.925 200.41 132.205 200.603 131.467C200.57 131.524 200.527 131.571 200.504 131.631Z" fill="#FA4616"/>
<path opacity="0.35" d="M198.972 129.446C198.678 129.264 198.382 129.087 198.086 128.907C197.835 128.756 197.718 128.526 197.695 128.242C197.685 128.12 197.674 127.998 197.669 127.876C197.66 127.592 197.545 127.356 197.348 127.16C197.191 127.003 197.024 126.855 196.86 126.705C196.625 126.492 196.486 126.481 196.265 126.701C196.048 126.916 195.855 127.154 195.651 127.383C195.314 127.899 195.119 128.457 195.099 129.069C195.088 129.397 195.096 129.727 195.108 130.055C195.123 130.445 195.065 130.819 194.898 131.171C194.645 131.708 194.528 132.271 194.549 132.864C194.563 133.254 194.469 133.618 194.306 133.973C194.214 134.172 194.172 134.393 194.106 134.604C194.059 134.756 194.031 134.92 193.957 135.059C193.774 135.403 193.87 135.711 194.045 136.015C194.107 136.123 194.209 136.191 194.332 136.169C194.564 136.127 194.801 136.083 194.982 135.914C195.489 135.442 195.849 134.866 196.183 134.268C196.32 134.021 196.463 133.773 196.629 133.545C196.982 133.061 197.434 132.695 198.036 132.571C198.641 132.446 199.092 132.093 199.488 131.653C199.604 131.524 199.695 131.368 199.772 131.211C200.028 130.69 199.893 130.11 199.434 129.748C199.289 129.636 199.128 129.543 198.972 129.446ZM199.212 131.038C198.855 131.479 198.452 131.847 197.867 131.984C197.183 132.145 196.645 132.544 196.229 133.105C195.971 133.451 195.78 133.833 195.636 134.241C195.497 134.64 195.3 135.01 195.099 135.382C194.93 135.694 194.644 135.789 194.327 135.897C194.162 135.641 194.085 135.412 194.244 135.146C194.31 135.037 194.352 134.907 194.376 134.781C194.43 134.506 194.539 134.257 194.689 134.022C194.887 133.712 194.992 133.372 195.011 133.005C195.019 132.853 195.036 132.7 195.047 132.548C195.071 132.202 195.142 131.865 195.277 131.545C195.475 131.078 195.534 130.588 195.522 130.086C195.515 129.826 195.507 129.565 195.503 129.306C195.49 128.587 195.728 127.955 196.174 127.397C196.297 127.243 196.428 127.097 196.566 126.935C196.789 127.125 196.987 127.292 197.183 127.463C197.304 127.57 197.364 127.708 197.375 127.868C197.386 128.012 197.395 128.158 197.41 128.303C197.449 128.676 197.629 128.958 197.941 129.173C198.275 129.404 198.598 129.652 198.912 129.91C199.045 130.019 199.16 130.162 199.251 130.309C199.401 130.552 199.396 130.81 199.212 131.038Z" fill="#FA4616"/>
<path opacity="0.25" d="M197.107 129.31C197.005 129.251 196.936 129.181 196.903 129.088C196.896 129.068 196.885 129.048 196.873 129.028C196.802 128.913 196.696 128.872 196.607 128.933C196.559 128.965 196.526 129.011 196.494 129.043C196.47 129.095 196.443 129.133 196.434 129.178C196.417 129.263 196.403 129.35 196.403 129.441C196.402 129.583 196.393 129.723 196.311 129.826C196.214 129.949 196.218 130.104 196.239 130.27C196.247 130.327 196.274 130.381 196.346 130.406C196.484 130.454 196.628 130.478 196.71 130.411C196.805 130.334 196.933 130.303 197.048 130.252C197.188 130.191 197.326 130.126 197.456 130.054C197.564 129.993 197.572 129.883 197.508 129.75C197.425 129.578 197.306 129.423 197.107 129.31ZM197.268 129.916C197.236 129.939 197.202 129.961 197.165 129.98C196.962 130.082 196.751 130.172 196.501 130.214C196.459 130.221 196.431 130.25 196.39 130.273C196.339 130.151 196.302 130.035 196.372 129.943C196.479 129.802 196.519 129.627 196.528 129.437C196.532 129.356 196.551 129.278 196.575 129.204C196.589 129.163 196.628 129.134 196.669 129.082C196.699 129.13 196.714 129.15 196.722 129.17C196.771 129.272 196.853 129.356 196.964 129.425C197.1 129.511 197.204 129.615 197.28 129.74C197.327 129.818 197.323 129.875 197.268 129.916Z" fill="#FA4616"/>
</g>
<defs>
<clipPath id="clip0_10107_3117">
<rect width="160" height="44" fill="white" transform="translate(58.2627 115.567)"/>
</clipPath>
</defs>
</svg>
