<svg width="276" height="276" viewBox="0 0 276 276" fill="none" xmlns="http://www.w3.org/2000/svg">
<g clip-path="url(#clip0_10107_3161)">
<path d="M60.4189 109.945V170.398L83.0747 154.37V109.945H60.4189Z" fill="#CFD600"/>
<path d="M60.4267 177.969L37.7637 161.945V110.002H60.4267V177.969ZM135.377 154.397H139.183V134.321L135.377 137.008V154.386V154.397ZM133.543 130.088V129.129C132.851 129.843 131.646 130.398 130.292 130.398C127.595 130.398 124.898 128.745 124.898 125.248C124.898 122.05 127.489 120.461 130.761 120.461C132.083 120.461 132.936 120.738 133.543 121.037V120.322C133.543 119.299 132.851 118.478 131.475 118.478C129.738 118.478 128.832 118.723 127.51 119.438L126.049 116.793C127.734 115.834 129.13 115.333 131.475 115.333C134.972 115.333 137.338 117.145 137.338 120.397V130.088H133.543ZM133.543 125.845V124.033C132.882 123.617 132.254 123.425 130.9 123.425C129.471 123.425 128.693 124.086 128.693 125.237C128.693 126.261 129.269 127.167 130.9 127.167C132.136 127.167 133.128 126.538 133.543 125.845ZM102.981 138.639C104.719 138.639 105.817 139.407 106.51 140.729L110.091 139.076C108.876 136.571 106.68 134.811 103.045 134.811C98.0031 134.811 94.4853 138.884 94.4853 144.759C94.4853 150.633 97.8752 154.706 102.907 154.706C106.403 154.706 108.716 153.085 110.038 150.356L106.787 148.426C105.764 150.132 104.751 150.878 103.013 150.878C100.124 150.878 98.4402 148.234 98.4402 144.769C98.4402 141.304 100.092 138.66 102.981 138.66V138.639ZM117.884 122.263C117.884 119.757 118.843 119.128 120.336 119.128C121.189 119.128 121.935 119.512 122.542 120.067L123.534 116.346C123.033 115.823 122.105 115.322 120.858 115.322C119.504 115.322 118.545 115.898 117.884 116.591V115.631H114.089V130.088H117.884V122.263ZM103.674 123.691H106.734C106.51 125.376 105.604 126.613 102.96 126.613C100.071 126.613 98.3869 124.001 98.3869 120.44C98.3869 116.879 100.039 114.331 102.928 114.331C105.017 114.331 105.902 115.407 106.616 116.836L110.283 115.322C109.015 112.348 106.925 110.503 102.981 110.503C97.9391 110.503 94.4214 114.576 94.4214 120.45C94.4214 126.325 97.8112 130.398 102.843 130.398C107.299 130.398 110.582 127.594 110.582 122.636V120.099H103.674V123.702V123.691ZM124.866 147.179C124.866 151.614 122.084 154.695 118.31 154.695C114.537 154.695 111.786 151.614 111.786 147.179C111.786 142.744 114.537 139.63 118.31 139.63C122.084 139.63 124.866 142.744 124.866 147.179ZM121.018 147.179C121.018 144.972 120.133 143.298 118.321 143.298C116.509 143.298 115.645 144.951 115.645 147.179C115.645 149.407 116.498 151.038 118.321 151.038C120.144 151.038 121.018 149.194 121.018 147.179ZM127.744 154.397H131.55V134.332L127.744 137.018V154.397ZM222.298 120.397V130.088H218.503V129.129C217.81 129.843 216.606 130.398 215.252 130.398C212.555 130.398 209.858 128.745 209.858 125.248C209.858 122.05 212.448 120.461 215.721 120.461C217.043 120.461 217.896 120.738 218.503 121.037V120.322C218.503 119.299 217.81 118.478 216.435 118.478C214.698 118.478 213.792 118.723 212.47 119.438L211.009 116.793C212.694 115.834 214.09 115.333 216.435 115.333C219.932 115.333 222.298 117.145 222.298 120.397ZM218.503 124.022C217.842 123.606 217.213 123.414 215.86 123.414C214.431 123.414 213.653 124.075 213.653 125.227C213.653 126.25 214.229 127.156 215.86 127.156C217.096 127.156 218.088 126.527 218.503 125.834V124.022ZM186.374 126.73C184.562 126.73 183.368 125.184 183.368 122.871C183.368 120.557 184.551 118.99 186.374 118.99C187.92 118.99 188.826 119.843 189.679 121.058L192.184 118.521C190.969 116.676 189.21 115.322 186.459 115.322C182.441 115.322 179.52 118.435 179.52 122.871C179.52 127.306 182.526 130.387 186.289 130.387C189.156 130.387 190.809 129.033 192.205 127.167L189.785 124.886C188.794 126.069 187.856 126.73 186.374 126.73ZM201.98 115.322C200.467 115.322 199.251 115.898 198.59 116.591V110.002L194.796 112.689V130.078H198.59V122.178C198.59 119.672 199.497 118.904 201.074 118.904C202.652 118.904 203.526 119.672 203.526 122.263V130.088H207.321V121.932C207.321 117.86 205.669 115.322 201.98 115.322ZM184.722 147.179C184.722 147.733 184.69 148.117 184.669 148.394H176.023C176.162 150.377 177.622 151.124 178.997 151.124C180.042 151.124 180.927 150.74 181.471 150.111L183.539 153.032C182.334 154.109 180.618 154.717 178.997 154.717C174.84 154.717 172.196 151.774 172.196 147.2C172.196 142.626 174.979 139.652 178.635 139.652C182.494 139.652 184.722 143.064 184.722 147.2V147.179ZM181.034 145.526C180.927 144.236 180.149 142.936 178.443 142.936C177.068 142.936 176.215 144.066 176.077 145.526H181.034ZM238.224 123.03C238.224 127.359 236.188 130.387 232.606 130.387C231.338 130.387 230.24 129.897 229.547 129.257V133.767L225.752 136.453V115.631H229.547V116.538C230.261 115.909 231.231 115.322 232.606 115.322C235.687 115.322 238.224 117.636 238.224 123.03ZM234.365 123.116C234.365 120.141 233.374 118.904 231.892 118.904C230.709 118.904 230.101 119.395 229.547 120.12V125.568C230.123 126.368 231.007 126.805 232.105 126.805C233.566 126.805 234.365 125.536 234.365 123.116ZM160.748 130.088V119.214H163.199V115.631H160.748V114.416C160.748 113.616 161.025 113.265 162.155 113.265C162.709 113.265 163.093 113.371 163.477 113.563V110.503C162.816 110.226 162.016 110.087 161.078 110.087C158.434 110.087 156.953 111.186 156.953 113.883V115.621H155.215V119.203H156.953V130.078H160.748V130.088ZM154.597 147.179C154.597 147.733 154.565 148.117 154.544 148.394H145.898C146.037 150.377 147.497 151.124 148.872 151.124C149.917 151.124 150.802 150.74 151.346 150.111L153.414 153.032C152.209 154.109 150.493 154.717 148.872 154.717C144.715 154.717 142.071 151.774 142.071 147.2C142.071 142.626 144.854 139.652 148.51 139.652C152.369 139.652 154.597 143.064 154.597 147.2V147.179ZM150.908 145.526C150.802 144.236 150.024 142.936 148.318 142.936C146.943 142.936 146.09 144.066 145.952 145.526H150.908ZM145.515 130.387C142.818 130.387 140.121 128.734 140.121 125.237C140.121 122.039 142.711 120.45 145.984 120.45C147.305 120.45 148.158 120.728 148.766 121.026V120.312C148.766 119.288 148.073 118.467 146.698 118.467C144.96 118.467 144.054 118.713 142.732 119.427L141.272 116.783C142.956 115.823 144.353 115.322 146.698 115.322C150.194 115.322 152.561 117.135 152.561 120.386V130.078H148.766V129.118C148.073 129.833 146.868 130.387 145.515 130.387ZM146.122 127.167C147.359 127.167 148.35 126.538 148.766 125.845V124.033C148.105 123.617 147.476 123.425 146.122 123.425C144.694 123.425 143.916 124.086 143.916 125.237C143.916 126.261 144.491 127.167 146.122 127.167ZM177.324 125.877C177.324 122.988 175.096 122.05 172.506 121.197C169.947 120.376 169.499 120.12 169.499 119.512C169.499 118.904 169.915 118.574 171.45 118.574C172.665 118.574 174.232 118.958 175.661 119.725L176.876 116.719C175.33 115.866 173.348 115.312 171.535 115.312C168.146 115.312 165.758 116.602 165.758 119.608C165.758 122.615 167.986 123.521 171.461 124.566C173.06 125.035 173.582 125.365 173.582 126.026C173.582 126.773 173.145 127.125 171.653 127.125C169.809 127.125 168.178 126.655 166.643 125.802L165.374 128.692C166.92 129.715 169.148 130.376 171.429 130.376C174.68 130.376 177.324 129.193 177.324 125.856V125.877ZM165.673 139.94H169.478V153.629C169.478 156.71 169.276 159.237 166.088 160.602C163.498 161.711 161.025 160.676 161.025 160.676V157.531C161.025 157.531 161.622 157.84 162.837 157.883C165.065 157.947 165.694 156.305 165.694 154.685V153.49C164.969 154.12 164.01 154.706 162.634 154.706C159.554 154.706 157.017 152.392 157.017 146.998C157.017 142.669 159.053 139.641 162.634 139.641C163.903 139.641 165.001 140.132 165.694 140.771V139.95L165.673 139.94ZM165.673 144.45C165.097 143.65 164.212 143.213 163.114 143.213C161.654 143.213 160.854 144.481 160.854 146.902C160.854 149.876 161.846 151.113 163.338 151.113C164.521 151.113 165.129 150.612 165.683 149.898V144.45H165.673Z" fill="#454C9B"/>
<path d="M57.1208 127.085H73.6681V125.869C73.6681 121.25 69.9234 117.516 65.3144 117.516H55.6378C51.0183 117.516 47.2842 121.26 47.2842 125.869V146.96C47.2842 151.58 51.0289 155.314 55.6378 155.314H65.3144C69.934 155.314 73.6681 151.569 73.6681 146.96V134.446H60.4601V142.085H64.2369V145.861H57.1208C56.8754 145.861 56.6834 145.659 56.6834 145.424V127.523C56.6834 127.277 56.8861 127.085 57.1208 127.085Z" fill="white"/>
</g>
<defs>
<clipPath id="clip0_10107_3161">
<rect width="200.461" height="68.0247" fill="white" transform="translate(37.7637 109.945)"/>
</clipPath>
</defs>
</svg>
