<svg width="276" height="276" viewBox="0 0 276 276" fill="none" xmlns="http://www.w3.org/2000/svg">
<g clip-path="url(#clip0_10107_3075)">
<path d="M73.9324 135.772C74.0038 135.673 74.0788 135.573 74.1538 135.474C74.6825 134.751 75.2934 134.088 75.9899 133.496C76.2007 133.315 76.4186 133.134 76.6472 132.964C77.7331 133.312 78.7512 133.687 79.7013 134.092C80.6515 134.499 81.4731 134.96 82.1733 135.481C82.8591 135.995 83.4056 136.591 83.8093 137.275C85.1131 134.854 87.0635 132.826 89.4318 131.419C88.6781 130.727 87.7922 130.05 86.767 129.387C87.2957 129.054 87.7958 128.678 88.2637 128.26C89.096 127.516 89.8283 126.633 90.4606 125.616C90.4891 125.569 90.5142 125.52 90.5427 125.474C89.9962 125.534 89.4389 125.566 88.8745 125.566C86.6598 125.566 84.5594 125.091 82.6626 124.247C82.6341 124.29 82.6126 124.336 82.584 124.378C82.2125 124.938 81.7482 125.46 81.1945 125.949C80.7623 126.328 80.28 126.69 79.7335 127.026C77.5224 126.261 75.9649 125.339 75.054 124.265C74.1431 123.191 73.6895 122.042 73.6895 120.812C73.6895 120.351 73.7859 119.873 73.9788 119.373C74.1717 118.873 74.4718 118.405 74.879 117.962C74.9969 117.834 75.129 117.714 75.2648 117.6C75.3148 117.558 75.3648 117.522 75.4184 117.483C74.3146 115.395 73.6859 113.017 73.6859 110.496C73.6859 110.439 73.6895 110.383 73.6895 110.326C73.5037 110.39 73.318 110.454 73.1322 110.525C71.4855 111.159 70.0781 112.003 68.9171 113.059C67.7526 114.116 66.8524 115.356 66.213 116.774C65.5736 118.196 65.2521 119.674 65.2521 121.213C65.2521 123.247 65.6486 124.921 66.4452 126.225C67.2347 127.526 68.467 128.852 70.1316 130.196C70.0923 130.224 70.0566 130.256 70.0209 130.284C69.2886 130.837 68.5956 131.422 67.9527 132.043C67.2739 132.698 66.6631 133.418 66.1202 134.209C65.6201 134.939 65.2236 135.744 64.9199 136.619C66.8453 135.924 68.9171 135.541 71.0818 135.541C72.0534 135.545 73.0036 135.627 73.9324 135.772Z" fill="#1A5733"/>
<path d="M128.646 142.064C128.686 141.958 128.728 141.859 128.761 141.752C129.171 140.508 129.382 139.104 129.382 137.53C129.382 135.538 129.064 133.78 128.436 132.252C127.643 130.327 126.349 128.767 124.556 127.579C121.338 125.445 116.708 124.378 110.661 124.378C108.993 124.378 107.103 124.456 104.992 124.609C104.331 124.658 103.681 124.722 103.034 124.79C101.609 124.945 100.216 125.151 98.8584 125.413V129.384C102.384 129.763 105.549 131.334 107.928 133.691V132.22C108.392 132.181 108.889 132.142 109.41 132.103C109.932 132.064 110.525 132.046 111.182 132.046C114.09 132.046 116.29 132.461 117.783 133.287C119.277 134.116 120.023 135.51 120.023 137.47C120.023 137.491 120.02 137.509 120.02 137.53C120.005 139.537 119.269 140.962 117.812 141.798C116.63 142.479 114.819 142.883 112.386 143.018V143.964C112.39 144.095 112.397 144.23 112.397 144.361C112.397 144.492 112.39 144.62 112.386 144.748V150.221H112.404C113.154 151.111 113.904 152.104 114.654 153.192C116.344 146.981 121.927 142.355 128.646 142.064Z" fill="#1A5733"/>
<path d="M168.529 135.974V126.711V126.112C164.735 125.165 161.513 122.801 159.459 119.621V125.782H154.015C152.969 128.955 150.893 131.66 148.175 133.514H159.459V134.648V136.311C161.106 135.818 162.845 135.552 164.649 135.552C165.982 135.552 167.278 135.701 168.529 135.974Z" fill="#1A5733"/>
<path d="M107.928 155.294V155.028C107.86 155.096 107.799 155.163 107.731 155.227C107.796 155.248 107.86 155.273 107.928 155.294Z" fill="#1A5733"/>
<path d="M135.155 135.506V142.805V143.202C138.56 144.609 141.339 147.211 142.957 150.48H143.721H144.225V147.144V135.439C142.76 135.903 141.203 136.158 139.581 136.158C138.042 136.158 136.556 135.931 135.155 135.506Z" fill="#1A5733"/>
<path d="M190.201 122.039C191.148 122.333 193.777 123.244 196.785 125.105C197.049 125.268 197.324 125.456 197.603 125.658C198.717 124.524 199.807 123.396 200.882 122.266C200.957 122.188 201.028 122.11 201.103 122.032C198.16 121.663 195.477 120.458 193.309 118.66C192.269 119.809 191.23 120.936 190.201 122.039Z" fill="#1A5733"/>
<path d="M98.8584 160.601V164.819H107.928V163.752V161.406C106.256 160.565 104.37 160.09 102.373 160.09C101.152 160.09 99.9729 160.271 98.8584 160.601Z" fill="#1A5733"/>
<path d="M177.838 125.509V126.679V140.6V141.259C180.199 143.769 181.842 146.953 182.439 150.48H186.907V133.542C188.308 134.623 189.704 135.868 191.105 137.275C191.73 137.906 192.341 138.551 192.941 139.207C194.452 136.715 196.67 134.694 199.317 133.411C199.267 133.358 199.217 133.305 199.163 133.251C197.652 131.716 196.116 130.295 194.555 128.99C194.202 128.732 193.859 128.494 193.53 128.288C190.03 126.122 186.961 125.339 186.911 125.357V119.788V115.434C185.654 120.043 182.257 123.772 177.838 125.509Z" fill="#1A5733"/>
<path d="M79.2981 144.34C79.0802 144.354 78.8552 144.365 78.623 144.365C77.5764 144.365 76.6833 144.212 75.9475 143.904C75.2116 143.596 74.6115 143.209 74.1436 142.748C73.7328 142.341 73.4256 141.89 73.2112 141.408C72.5183 141.288 71.8074 141.22 71.0787 141.22C68.7997 141.22 66.6636 141.841 64.8311 142.915C64.8632 143.028 64.8882 143.138 64.9275 143.252C64.9739 143.397 65.0204 143.542 65.074 143.691C65.5383 145.021 66.3242 146.244 67.428 147.36C68.5318 148.477 69.9856 149.413 71.7895 150.164C73.5756 150.909 75.8082 151.281 78.4873 151.288C78.5123 151.288 78.5373 151.288 78.5623 151.288C80.2233 151.288 81.7379 151.129 83.1239 150.834C82.563 148.279 81.1949 146.024 79.2981 144.34Z" fill="#00953E"/>
<path d="M192.941 139.203C193.07 139.342 193.199 139.476 193.324 139.618C193.934 140.295 194.538 140.987 195.124 141.688C196.403 143.223 197.599 144.748 198.707 146.258C199.814 147.768 200.779 149.175 201.593 150.476H212.377C209.612 146.063 206.733 142.025 203.74 138.363C202.293 136.594 200.818 134.946 199.318 133.407C196.667 134.691 194.452 136.711 192.941 139.203Z" fill="#00953E"/>
<path d="M168.53 143.156V141.848C167.308 141.444 166.004 141.224 164.65 141.224C162.796 141.224 161.039 141.635 159.46 142.365V150.476H168.53V143.156Z" fill="#76B82A"/>
<path d="M75.4112 117.48C75.7077 117.253 76.0363 117.058 76.4114 116.895C77.0294 116.625 77.7688 116.491 78.6189 116.491C79.5084 116.491 80.2657 116.636 80.8872 116.923C81.5052 117.21 82.0196 117.565 82.4268 117.987C82.834 118.409 83.1234 118.859 83.2984 119.341C83.4735 119.819 83.5592 120.27 83.5592 120.692C83.5592 122.088 83.252 123.269 82.6483 124.244C84.5451 125.091 86.6455 125.562 88.8602 125.562C89.4246 125.562 89.9783 125.53 90.5284 125.47C91.4607 123.914 91.9287 122.244 91.9287 120.454C91.9287 119.185 91.6858 117.909 91.1999 116.622C90.7141 115.335 89.9318 114.172 88.8459 113.137C87.76 112.102 86.374 111.244 84.688 110.574C83.0127 109.904 80.9873 109.567 78.6225 109.567C77.5473 109.567 76.5293 109.66 75.5576 109.84C74.9111 109.961 74.286 110.12 73.6823 110.319C73.6823 110.376 73.6787 110.432 73.6787 110.489C73.6787 113.013 74.3074 115.388 75.4112 117.48Z" fill="#76B82A"/>
<path d="M154.016 125.782H153.773H144.225V110.489H135.155V134.999V135.506C136.556 135.928 138.042 136.158 139.581 136.158C141.199 136.158 142.76 135.903 144.225 135.439V135.329V133.514H148.097H148.176C150.89 131.66 152.969 128.951 154.016 125.782Z" fill="#76B82A"/>
<path d="M194.016 117.891C193.941 117.976 193.862 118.058 193.787 118.139C193.627 118.316 193.469 118.487 193.309 118.66C195.477 120.458 198.16 121.659 201.103 122.032C201.8 121.298 202.489 120.568 203.168 119.837C205.943 116.849 208.701 113.729 211.444 110.489H200.681C198.645 112.772 196.423 115.239 194.016 117.891Z" fill="#999999"/>
<path d="M98.8584 151.278V154.766C99.9943 154.542 101.17 154.418 102.373 154.418C104.238 154.418 106.038 154.702 107.732 155.227C107.799 155.163 107.864 155.096 107.928 155.028V154.993V134.435V133.684C105.545 131.33 102.384 129.756 98.8584 129.377V151.278Z" fill="#E50051"/>
<path d="M83.8057 137.275C83.8128 137.286 83.82 137.296 83.8271 137.303C84.2343 137.998 84.4379 138.789 84.4379 139.675C84.4379 139.966 84.4094 140.253 84.3522 140.529C84.3093 140.742 84.2522 140.947 84.1772 141.153C86.1525 143.223 87.635 145.754 88.4423 148.569C88.4959 148.53 88.5566 148.495 88.6137 148.452C88.8602 148.268 89.096 148.076 89.321 147.878C90.5212 146.8 91.425 145.538 92.0251 144.095C92.6252 142.649 92.9253 141.061 92.9253 139.327C92.9253 137.247 92.4502 135.428 91.5 133.868C90.9892 133.032 90.2962 132.216 89.4246 131.419C87.0599 132.826 85.1095 134.85 83.8057 137.275Z" fill="#E50051"/>
<path d="M112.386 143.964V144.751C112.389 144.624 112.396 144.493 112.396 144.365C112.396 144.227 112.389 144.096 112.386 143.964Z" fill="#E50051"/>
<path d="M168.53 126.112V110.489H159.46V117.005V119.617C161.514 122.801 164.74 125.165 168.53 126.112Z" fill="#1961AC"/>
<path d="M177.838 112.886V118.852V125.513C182.253 123.776 185.654 120.046 186.907 115.438V114.364V110.489H177.838V112.886Z" fill="#1961AC"/>
<path d="M73.2144 141.405C73.1858 141.341 73.1536 141.277 73.1286 141.21C73.0643 141.036 73.0108 140.873 72.9643 140.71C72.8607 140.345 72.8072 139.997 72.8072 139.678C72.8072 138.175 73.1751 136.881 73.9109 135.804C73.9181 135.793 73.9252 135.786 73.9324 135.775C73.0036 135.626 72.0534 135.548 71.0818 135.548C68.9171 135.548 66.8453 135.931 64.9199 136.626C64.8949 136.701 64.8663 136.768 64.8413 136.842C64.8163 136.913 64.802 136.991 64.7806 137.062C64.5163 137.966 64.377 138.948 64.377 140.019C64.377 140.912 64.5341 141.88 64.8342 142.911C66.6667 141.837 68.8028 141.217 71.0818 141.217C71.8105 141.217 72.5214 141.284 73.2144 141.405Z" fill="#D5CA9F"/>
<path d="M102.373 154.418C101.17 154.418 99.9943 154.539 98.8584 154.766V156.627V160.601C99.9729 160.271 101.152 160.09 102.373 160.09C104.37 160.09 106.26 160.565 107.928 161.406V155.291C107.86 155.269 107.796 155.244 107.732 155.223C106.035 154.702 104.238 154.418 102.373 154.418Z" fill="#D5CA9F"/>
<path d="M88.4425 148.569C87.6352 145.754 86.1527 143.22 84.1774 141.153C83.9487 141.777 83.5701 142.365 83.0414 142.915C82.4235 143.553 81.5626 143.978 80.4695 144.191C80.1051 144.262 79.7158 144.312 79.2979 144.336C81.1946 146.02 82.5628 148.278 83.1236 150.831C83.2736 150.799 83.4272 150.774 83.5737 150.739C83.9988 150.636 84.4167 150.522 84.8132 150.388C86.2063 149.93 87.4101 149.317 88.4425 148.569Z" fill="#D5CA9F"/>
<path d="M168.53 141.848V136.616V135.978C167.279 135.705 165.983 135.556 164.65 135.556C162.846 135.556 161.103 135.822 159.46 136.314V139.98V142.366C161.039 141.635 162.796 141.224 164.65 141.224C166.008 141.224 167.311 141.447 168.53 141.848Z" fill="#D5CA9F"/>
<path d="M177.838 150.48H182.121H182.439C181.839 146.949 180.195 143.769 177.838 141.26V150.48Z" fill="#D5CA9F"/>
<path d="M119.438 160.838C120.195 162.185 120.945 163.511 121.685 164.819H131.826C131.129 163.359 130.372 161.866 129.558 160.346C128.743 158.825 127.9 157.364 127.028 155.961C126.157 154.557 125.275 153.21 124.382 151.923C123.488 150.636 122.638 149.491 121.824 148.491C124.267 147.492 126.135 146.116 127.436 144.365C127.943 143.681 128.339 142.908 128.647 142.064C121.927 142.355 116.344 146.981 114.658 153.192C114.687 153.231 114.712 153.27 114.74 153.309C114.965 153.639 115.194 153.975 115.423 154.319C115.98 155.152 116.541 156.017 117.105 156.914C117.902 158.183 118.68 159.491 119.438 160.838Z" fill="#1961AC"/>
<path d="M135.155 143.202V150.48H142.875H142.957C141.339 147.208 138.56 144.61 135.155 143.202Z" fill="#1961AC"/>
<path d="M137.995 158.339C138.452 158.339 138.838 158.396 139.149 158.509C139.46 158.623 139.71 158.782 139.899 158.984C140.085 159.19 140.221 159.438 140.299 159.729C140.378 160.019 140.421 160.338 140.421 160.686V164.28C140.206 164.327 139.885 164.38 139.456 164.444C139.028 164.507 138.538 164.539 137.999 164.539C137.642 164.539 137.313 164.504 137.016 164.436C136.72 164.369 136.466 164.259 136.256 164.107C136.045 163.954 135.88 163.759 135.763 163.518C135.645 163.277 135.584 162.979 135.584 162.621C135.584 162.281 135.652 161.994 135.784 161.76C135.916 161.526 136.098 161.335 136.327 161.186C136.556 161.037 136.82 160.934 137.12 160.867C137.42 160.803 137.734 160.771 138.063 160.771C138.217 160.771 138.374 160.782 138.542 160.799C138.71 160.817 138.888 160.849 139.078 160.895V160.668C139.078 160.509 139.06 160.356 139.02 160.214C138.981 160.073 138.917 159.945 138.82 159.835C138.724 159.725 138.599 159.64 138.442 159.58C138.285 159.52 138.088 159.488 137.852 159.488C137.531 159.488 137.238 159.509 136.974 159.555C136.706 159.601 136.488 159.654 136.323 159.715L136.152 158.601C136.327 158.541 136.584 158.481 136.916 158.421C137.256 158.367 137.613 158.339 137.995 158.339ZM138.109 163.455C138.535 163.455 138.86 163.433 139.081 163.387V161.866C139.006 161.845 138.895 161.82 138.749 161.799C138.602 161.778 138.445 161.764 138.27 161.764C138.117 161.764 137.963 161.774 137.806 161.799C137.649 161.82 137.509 161.863 137.384 161.923C137.259 161.983 137.159 162.068 137.081 162.178C137.006 162.288 136.966 162.426 136.966 162.593C136.966 162.919 137.07 163.143 137.274 163.267C137.481 163.391 137.759 163.455 138.109 163.455Z" fill="black"/>
<path d="M145.629 161.299C145.629 160.679 145.55 160.232 145.393 159.956C145.236 159.679 144.946 159.541 144.518 159.541C144.364 159.541 144.196 159.551 144.014 159.576C143.832 159.598 143.692 159.619 143.603 159.633V164.419H142.221V158.679C142.489 158.605 142.835 158.531 143.267 158.463C143.7 158.396 144.153 158.36 144.632 158.36C145.043 158.36 145.382 158.414 145.643 158.52C145.904 158.626 146.125 158.764 146.3 158.938C146.382 158.878 146.489 158.814 146.622 158.747C146.75 158.679 146.897 158.616 147.054 158.559C147.215 158.502 147.382 158.456 147.561 158.417C147.74 158.378 147.922 158.36 148.104 158.36C148.568 158.36 148.951 158.428 149.251 158.559C149.551 158.69 149.786 158.878 149.958 159.115C150.129 159.353 150.247 159.64 150.312 159.977C150.376 160.314 150.408 160.682 150.408 161.083V164.419H149.036V161.299C149.036 160.679 148.961 160.232 148.808 159.956C148.654 159.679 148.361 159.541 147.929 159.541C147.707 159.541 147.497 159.576 147.3 159.647C147.104 159.718 146.954 159.789 146.854 159.856C146.914 160.044 146.957 160.246 146.979 160.459C147 160.672 147.014 160.899 147.014 161.14V164.419H145.632V161.299H145.629Z" fill="black"/>
<path d="M157.61 161.459C157.61 161.934 157.538 162.363 157.399 162.746C157.256 163.128 157.056 163.455 156.792 163.727C156.527 164 156.209 164.21 155.838 164.351C155.463 164.497 155.041 164.568 154.57 164.568C154.113 164.568 153.677 164.532 153.262 164.465C152.848 164.397 152.502 164.319 152.227 164.238V155.843L153.609 155.617V158.69C153.77 158.609 153.966 158.531 154.198 158.463C154.431 158.396 154.688 158.36 154.97 158.36C155.388 158.36 155.763 158.435 156.095 158.58C156.427 158.726 156.702 158.938 156.924 159.211C157.145 159.484 157.313 159.81 157.431 160.193C157.549 160.576 157.61 160.998 157.61 161.459ZM156.192 161.437C156.192 160.856 156.074 160.395 155.842 160.055C155.609 159.715 155.241 159.544 154.738 159.544C154.509 159.544 154.295 159.58 154.091 159.647C153.888 159.715 153.727 159.793 153.605 159.874V163.288C153.705 163.309 153.83 163.33 153.988 163.352C154.145 163.369 154.331 163.38 154.552 163.38C155.063 163.38 155.463 163.21 155.752 162.863C156.049 162.515 156.192 162.04 156.192 161.437Z" fill="black"/>
<path d="M161.143 158.339C161.6 158.339 161.986 158.396 162.296 158.509C162.607 158.623 162.857 158.782 163.047 158.984C163.232 159.19 163.368 159.438 163.447 159.729C163.525 160.019 163.568 160.338 163.568 160.686V164.28C163.354 164.327 163.032 164.38 162.604 164.444C162.171 164.507 161.686 164.539 161.146 164.539C160.789 164.539 160.46 164.504 160.164 164.436C159.867 164.369 159.614 164.259 159.403 164.107C159.192 163.954 159.028 163.759 158.91 163.518C158.792 163.277 158.731 162.979 158.731 162.621C158.731 162.281 158.799 161.994 158.931 161.76C159.064 161.526 159.246 161.335 159.474 161.186C159.703 161.037 159.967 160.934 160.267 160.867C160.568 160.803 160.882 160.771 161.21 160.771C161.364 160.771 161.525 160.782 161.689 160.799C161.857 160.817 162.036 160.849 162.225 160.895V160.668C162.225 160.509 162.207 160.356 162.168 160.214C162.129 160.069 162.064 159.945 161.968 159.835C161.871 159.725 161.746 159.64 161.589 159.58C161.432 159.52 161.235 159.488 161 159.488C160.678 159.488 160.385 159.509 160.121 159.555C159.857 159.601 159.639 159.654 159.471 159.715L159.299 158.601C159.474 158.541 159.732 158.481 160.064 158.421C160.403 158.367 160.76 158.339 161.143 158.339ZM161.257 163.455C161.686 163.455 162.007 163.433 162.229 163.387V161.866C162.154 161.845 162.043 161.82 161.896 161.799C161.75 161.778 161.593 161.764 161.418 161.764C161.264 161.764 161.11 161.774 160.953 161.799C160.796 161.82 160.657 161.863 160.532 161.923C160.407 161.983 160.303 162.068 160.228 162.178C160.153 162.288 160.114 162.426 160.114 162.593C160.114 162.919 160.217 163.143 160.421 163.267C160.628 163.391 160.907 163.455 161.257 163.455Z" fill="black"/>
<path d="M166.868 163.433C167.233 163.433 167.501 163.391 167.669 163.302C167.836 163.213 167.919 163.065 167.919 162.855C167.919 162.66 167.829 162.497 167.651 162.366C167.472 162.239 167.176 162.097 166.765 161.948C166.515 161.856 166.283 161.76 166.072 161.657C165.861 161.554 165.682 161.437 165.529 161.299C165.375 161.161 165.257 160.998 165.168 160.806C165.079 160.615 165.036 160.377 165.036 160.097C165.036 159.551 165.236 159.123 165.643 158.811C166.047 158.499 166.597 158.339 167.29 158.339C167.64 158.339 167.976 158.371 168.297 158.435C168.619 158.499 168.858 158.562 169.019 158.623L168.769 159.736C168.615 159.668 168.422 159.605 168.186 159.548C167.951 159.491 167.676 159.463 167.365 159.463C167.083 159.463 166.854 159.509 166.679 159.605C166.504 159.7 166.415 159.846 166.415 160.041C166.415 160.14 166.433 160.225 166.465 160.303C166.5 160.377 166.558 160.448 166.643 160.512C166.729 160.576 166.836 160.64 166.976 160.704C167.111 160.767 167.279 160.835 167.479 160.902C167.808 161.023 168.086 161.143 168.315 161.26C168.544 161.377 168.733 161.508 168.879 161.657C169.026 161.806 169.137 161.973 169.205 162.161C169.272 162.348 169.308 162.575 169.308 162.841C169.308 163.408 169.097 163.837 168.672 164.128C168.251 164.419 167.643 164.564 166.861 164.564C166.336 164.564 165.911 164.522 165.593 164.433C165.272 164.344 165.047 164.277 164.918 164.224L165.157 163.079C165.364 163.164 165.607 163.242 165.893 163.316C166.175 163.394 166.504 163.433 166.868 163.433Z" fill="black"/>
<path d="M172.205 163.433C172.57 163.433 172.838 163.391 173.005 163.302C173.173 163.213 173.255 163.065 173.255 162.855C173.255 162.66 173.166 162.497 172.988 162.366C172.809 162.239 172.512 162.097 172.102 161.948C171.852 161.856 171.619 161.76 171.409 161.657C171.198 161.554 171.019 161.437 170.866 161.299C170.712 161.161 170.594 160.998 170.505 160.806C170.416 160.615 170.373 160.377 170.373 160.097C170.373 159.551 170.573 159.123 170.98 158.811C171.384 158.499 171.934 158.339 172.627 158.339C172.977 158.339 173.313 158.371 173.634 158.435C173.956 158.499 174.195 158.562 174.356 158.623L174.106 159.736C173.952 159.668 173.759 159.605 173.523 159.548C173.288 159.491 173.013 159.463 172.702 159.463C172.42 159.463 172.191 159.509 172.016 159.605C171.841 159.7 171.752 159.846 171.752 160.041C171.752 160.14 171.769 160.225 171.802 160.303C171.837 160.377 171.894 160.448 171.98 160.512C172.066 160.576 172.173 160.64 172.312 160.704C172.448 160.767 172.616 160.835 172.816 160.902C173.145 161.023 173.423 161.143 173.652 161.26C173.881 161.377 174.07 161.508 174.216 161.657C174.363 161.806 174.474 161.973 174.541 162.161C174.609 162.348 174.645 162.575 174.645 162.841C174.645 163.408 174.434 163.837 174.009 164.128C173.588 164.419 172.98 164.564 172.198 164.564C171.673 164.564 171.248 164.522 170.93 164.433C170.609 164.344 170.383 164.277 170.255 164.224L170.494 163.079C170.701 163.164 170.944 163.242 171.23 163.316C171.516 163.394 171.841 163.433 172.205 163.433Z" fill="black"/>
<path d="M178.035 158.339C178.492 158.339 178.878 158.396 179.189 158.509C179.5 158.623 179.75 158.782 179.939 158.984C180.125 159.19 180.261 159.438 180.339 159.729C180.418 160.019 180.461 160.338 180.461 160.686V164.28C180.246 164.327 179.925 164.38 179.496 164.444C179.064 164.507 178.578 164.539 178.039 164.539C177.682 164.539 177.353 164.504 177.056 164.436C176.76 164.369 176.506 164.259 176.296 164.107C176.085 163.954 175.921 163.759 175.803 163.518C175.685 163.277 175.624 162.979 175.624 162.621C175.624 162.281 175.692 161.994 175.824 161.76C175.956 161.526 176.138 161.335 176.367 161.186C176.596 161.037 176.86 160.934 177.16 160.867C177.46 160.803 177.774 160.771 178.103 160.771C178.257 160.771 178.417 160.782 178.582 160.799C178.75 160.817 178.928 160.849 179.118 160.895V160.668C179.118 160.509 179.1 160.356 179.06 160.214C179.021 160.069 178.957 159.945 178.86 159.835C178.764 159.725 178.639 159.64 178.482 159.58C178.325 159.52 178.128 159.488 177.892 159.488C177.571 159.488 177.278 159.509 177.014 159.555C176.749 159.601 176.531 159.654 176.363 159.715L176.192 158.601C176.367 158.541 176.624 158.481 176.956 158.421C177.296 158.367 177.653 158.339 178.035 158.339ZM178.15 163.455C178.578 163.455 178.9 163.433 179.121 163.387V161.866C179.046 161.845 178.935 161.82 178.789 161.799C178.642 161.778 178.485 161.764 178.31 161.764C178.157 161.764 178.003 161.774 177.846 161.799C177.689 161.82 177.549 161.863 177.424 161.923C177.299 161.983 177.196 162.068 177.121 162.178C177.046 162.288 177.006 162.426 177.006 162.593C177.006 162.919 177.11 163.143 177.314 163.267C177.521 163.391 177.799 163.455 178.15 163.455Z" fill="black"/>
<path d="M187.319 164.238C187.044 164.319 186.701 164.397 186.283 164.465C185.868 164.532 185.433 164.568 184.975 164.568C184.504 164.568 184.079 164.497 183.707 164.351C183.332 164.21 183.014 164 182.754 163.735C182.489 163.465 182.289 163.143 182.146 162.76C182.007 162.377 181.936 161.948 181.936 161.473C181.936 161.005 181.996 160.58 182.114 160.197C182.232 159.814 182.407 159.488 182.636 159.215C182.864 158.942 183.143 158.733 183.472 158.584C183.8 158.435 184.175 158.364 184.604 158.364C184.893 158.364 185.147 158.399 185.368 158.467C185.59 158.534 185.779 158.612 185.94 158.694V155.847L187.322 155.62V164.238H187.319ZM183.35 161.437C183.35 162.044 183.497 162.519 183.786 162.863C184.075 163.206 184.475 163.38 184.986 163.38C185.208 163.38 185.397 163.369 185.551 163.352C185.708 163.334 185.833 163.313 185.933 163.288V159.885C185.811 159.803 185.651 159.725 185.447 159.651C185.243 159.58 185.029 159.544 184.8 159.544C184.297 159.544 183.929 159.715 183.697 160.055C183.468 160.392 183.35 160.853 183.35 161.437Z" fill="black"/>
<path d="M188.862 161.48C188.862 160.959 188.941 160.502 189.098 160.108C189.255 159.715 189.462 159.388 189.72 159.126C189.98 158.864 190.277 158.669 190.613 158.538C190.948 158.406 191.291 158.339 191.641 158.339C192.463 158.339 193.106 158.594 193.567 159.098C194.028 159.605 194.26 160.36 194.26 161.367C194.26 161.441 194.26 161.526 194.253 161.622C194.245 161.717 194.242 161.803 194.235 161.877H190.291C190.33 162.352 190.498 162.721 190.798 162.983C191.098 163.245 191.534 163.373 192.106 163.373C192.442 163.373 192.749 163.345 193.027 163.281C193.306 163.221 193.524 163.157 193.685 163.089L193.867 164.213C193.792 164.252 193.685 164.291 193.552 164.334C193.42 164.376 193.267 164.412 193.095 164.447C192.924 164.483 192.738 164.511 192.542 164.532C192.345 164.553 192.142 164.568 191.934 164.568C191.409 164.568 190.952 164.49 190.563 164.334C190.173 164.178 189.855 163.965 189.602 163.688C189.352 163.412 189.162 163.086 189.041 162.714C188.923 162.338 188.862 161.927 188.862 161.48ZM192.874 160.87C192.874 160.682 192.849 160.502 192.795 160.331C192.742 160.161 192.663 160.012 192.559 159.888C192.456 159.764 192.331 159.665 192.181 159.594C192.031 159.523 191.856 159.488 191.649 159.488C191.434 159.488 191.248 159.527 191.088 159.608C190.927 159.686 190.791 159.793 190.681 159.92C190.57 160.048 190.484 160.197 190.423 160.363C190.363 160.53 190.32 160.7 190.298 160.874H192.874V160.87Z" fill="black"/>
<path d="M200.736 164.238C200.468 164.305 200.121 164.376 199.696 164.447C199.268 164.518 198.8 164.553 198.289 164.553C197.81 164.553 197.407 164.486 197.081 164.348C196.756 164.213 196.499 164.022 196.303 163.781C196.106 163.54 195.971 163.249 195.885 162.912C195.799 162.575 195.76 162.207 195.76 161.806V158.488H197.142V161.597C197.142 162.232 197.235 162.685 197.421 162.958C197.607 163.231 197.932 163.366 198.4 163.366C198.567 163.366 198.742 163.359 198.932 163.345C199.118 163.33 199.257 163.309 199.35 163.288V158.488H200.732V164.238H200.736Z" fill="black"/>
<path d="M206.019 159.722C205.905 159.683 205.748 159.644 205.544 159.601C205.34 159.559 205.108 159.537 204.84 159.537C204.687 159.537 204.526 159.551 204.355 159.583C204.183 159.612 204.062 159.64 203.994 159.661V164.415H202.611V158.772C202.879 158.672 203.211 158.58 203.612 158.495C204.012 158.41 204.455 158.364 204.944 158.364C205.037 158.364 205.14 158.371 205.265 158.382C205.39 158.392 205.508 158.41 205.63 158.428C205.751 158.445 205.869 158.47 205.983 158.495C206.098 158.523 206.191 158.545 206.258 158.57L206.019 159.722Z" fill="black"/>
<path d="M208.83 163.433C209.195 163.433 209.463 163.391 209.63 163.302C209.798 163.213 209.88 163.065 209.88 162.855C209.88 162.66 209.791 162.497 209.613 162.366C209.434 162.239 209.137 162.097 208.727 161.948C208.477 161.856 208.244 161.76 208.034 161.657C207.823 161.554 207.644 161.437 207.491 161.299C207.337 161.161 207.219 160.998 207.13 160.806C207.041 160.615 206.998 160.377 206.998 160.097C206.998 159.551 207.198 159.123 207.605 158.811C208.009 158.499 208.559 158.339 209.252 158.339C209.602 158.339 209.938 158.371 210.259 158.435C210.581 158.499 210.82 158.562 210.981 158.623L210.731 159.736C210.577 159.668 210.384 159.605 210.148 159.548C209.913 159.491 209.638 159.463 209.327 159.463C209.045 159.463 208.816 159.509 208.641 159.605C208.466 159.7 208.377 159.846 208.377 160.041C208.377 160.14 208.394 160.225 208.427 160.303C208.462 160.377 208.519 160.448 208.605 160.512C208.691 160.576 208.798 160.64 208.937 160.704C209.073 160.767 209.241 160.835 209.441 160.902C209.77 161.023 210.048 161.143 210.277 161.26C210.506 161.377 210.695 161.508 210.841 161.657C210.988 161.806 211.099 161.973 211.166 162.161C211.234 162.348 211.27 162.575 211.27 162.841C211.27 163.408 211.059 163.837 210.634 164.128C210.213 164.419 209.605 164.564 208.823 164.564C208.298 164.564 207.873 164.522 207.555 164.433C207.234 164.344 207.008 164.277 206.88 164.224L207.119 163.079C207.326 163.164 207.569 163.242 207.855 163.316C208.137 163.394 208.466 163.433 208.83 163.433Z" fill="black"/>
</g>
<defs>
<clipPath id="clip0_10107_3075">
<rect width="148" height="56" fill="white" transform="translate(64.377 109.567)"/>
</clipPath>
</defs>
</svg>
