<svg width="276" height="276" viewBox="0 0 276 276" fill="none" xmlns="http://www.w3.org/2000/svg">
<g clip-path="url(#clip0_10107_3256)">
<path d="M73.2354 136.327C72.4432 135.418 71.4788 134.719 70.3767 134.299C69.2745 133.845 67.7935 133.426 66.0024 132.971C64.5903 132.657 63.4881 132.342 62.6615 132.027C61.8349 131.748 61.146 131.328 60.5949 130.804C60.0438 130.28 59.7683 129.616 59.7683 128.742C59.7683 127.868 60.2505 126.645 61.2493 125.946C62.2482 125.212 63.6948 124.862 65.658 124.862C67.6212 124.862 67.8968 125.037 69.0334 125.387C70.2045 125.736 71.2722 126.226 72.3055 126.89L73.4421 124.094C72.4432 123.394 71.2722 122.835 69.8945 122.486C68.5168 122.101 67.1046 121.927 65.658 121.927C63.6259 121.927 61.9037 122.241 60.526 122.87C59.1483 123.499 58.115 124.338 57.4262 125.387C56.7373 126.435 56.3929 127.624 56.3929 128.917C56.3929 130.21 56.7718 131.713 57.5984 132.657C58.3906 133.565 59.355 134.264 60.4571 134.719C61.5593 135.173 63.0403 135.627 64.8658 136.047C66.3124 136.396 67.449 136.711 68.2412 136.991C69.0334 137.27 69.6878 137.69 70.2389 138.179C70.79 138.703 71.0655 139.402 71.0655 140.241C71.0655 141.08 70.5833 142.303 69.5845 143.002C68.5857 143.701 67.1046 144.051 65.1069 144.051C63.1092 144.051 62.1104 143.806 60.6638 143.247C59.2172 142.723 58.0461 142.059 57.1162 141.185L55.8418 143.911C56.8062 144.82 58.1495 145.554 59.8372 146.148C61.5249 146.707 63.2815 146.987 65.1069 146.987C66.9324 146.987 68.8956 146.672 70.3078 146.043C71.7199 145.414 72.7532 144.575 73.4421 143.527C74.1309 142.478 74.4754 141.29 74.4754 139.996C74.4754 138.703 74.0965 137.235 73.2699 136.327H73.2354Z" fill="#0A293B"/>
<path d="M92.2826 128.148V130.944C91.5248 129.965 90.6293 129.231 89.5271 128.707C88.425 128.218 87.2195 127.938 85.9106 127.938C84.6018 127.938 82.5352 128.323 81.1575 129.127C79.7454 129.93 78.6432 131.049 77.851 132.447C77.0588 133.88 76.6455 135.523 76.6455 137.41C76.6455 139.297 77.0244 140.94 77.851 142.373C78.6432 143.806 79.7454 144.925 81.1575 145.729C82.5697 146.532 84.154 146.917 85.9106 146.917C87.6672 146.917 88.5283 146.637 89.6649 146.113C90.8015 145.589 91.7315 144.785 92.4548 143.771V146.707H95.6235V128.113H92.317L92.2826 128.148ZM91.5248 140.835C91.0082 141.814 90.2504 142.583 89.3205 143.142C88.3905 143.701 87.3228 143.981 86.1862 143.981C85.0496 143.981 83.9474 143.701 83.0174 143.142C82.0875 142.583 81.3297 141.814 80.8131 140.835C80.262 139.822 79.9865 138.703 79.9865 137.41C79.9865 136.117 80.262 134.998 80.8131 133.985C81.3642 133.006 82.0875 132.237 83.0174 131.678C83.9474 131.119 85.0151 130.874 86.1862 130.874C87.3572 130.874 88.3905 131.154 89.3205 131.678C90.2504 132.202 91.0082 132.971 91.5248 133.985C92.0415 134.998 92.317 136.117 92.317 137.41C92.317 138.703 92.0415 139.822 91.5248 140.835Z" fill="#0A293B"/>
<path d="M99.1367 120.703V146.742H102.443V120.703H99.1367Z" fill="#0A293B"/>
<path d="M122.834 132.517C122.007 131.084 120.87 129.965 119.458 129.162C118.012 128.358 116.393 127.938 114.567 127.938C112.742 127.938 111.123 128.323 109.642 129.162C108.195 129.965 107.059 131.084 106.232 132.517C105.406 133.95 104.992 135.593 104.992 137.41C104.992 139.228 105.406 140.87 106.232 142.303C107.059 143.736 108.195 144.855 109.642 145.694C111.089 146.497 112.742 146.917 114.567 146.917C116.393 146.917 118.012 146.497 119.458 145.694C120.905 144.89 122.041 143.736 122.834 142.303C123.66 140.87 124.074 139.228 124.074 137.41C124.074 135.593 123.66 133.95 122.834 132.517ZM119.906 140.835C119.355 141.814 118.632 142.583 117.702 143.142C116.772 143.701 115.704 143.981 114.533 143.981C113.362 143.981 112.294 143.701 111.364 143.142C110.434 142.583 109.676 141.814 109.16 140.835C108.609 139.822 108.333 138.703 108.333 137.41C108.333 136.117 108.609 134.998 109.16 133.985C109.711 133.006 110.434 132.237 111.364 131.678C112.294 131.119 113.362 130.874 114.533 130.874C115.704 130.874 116.772 131.154 117.702 131.678C118.632 132.202 119.355 132.971 119.906 133.985C120.423 134.998 120.698 136.117 120.698 137.41C120.698 138.703 120.423 139.822 119.906 140.835Z" fill="#0A293B"/>
<path d="M142.603 130C141.226 128.637 139.366 127.938 137.058 127.938C134.75 127.938 134.303 128.183 133.166 128.707C132.029 129.231 131.134 129.965 130.445 130.909V128.113H127.276V146.707H130.583V137.13C130.583 135.138 131.1 133.635 132.133 132.552C133.166 131.503 134.578 130.944 136.369 130.944C138.16 130.944 139.194 131.398 140.02 132.307C140.881 133.216 141.295 134.579 141.295 136.362V146.672H144.601V135.977C144.601 133.321 143.912 131.329 142.535 129.965L142.603 130Z" fill="#0A293B"/>
<path d="M157.999 143.212C157.276 143.806 156.415 144.086 155.416 144.086C154.417 144.086 153.797 143.806 153.28 143.282C152.798 142.758 152.523 141.989 152.523 140.975V132.027L149.216 133.391V141.115C149.216 143.002 149.733 144.435 150.732 145.414C151.73 146.427 153.177 146.917 155.002 146.917C156.828 146.917 156.518 146.812 157.207 146.567C157.93 146.358 158.516 146.008 158.998 145.589L157.965 143.177L157.999 143.212ZM157.792 130.909V128.148H152.523V124.094H149.216V128.148H146.116V130.909H157.792Z" fill="#0A293B"/>
<path d="M177.769 132.517C176.943 131.084 175.806 129.965 174.394 129.162C172.947 128.358 171.328 127.938 169.503 127.938C167.677 127.938 166.059 128.323 164.578 129.162C163.131 129.965 161.994 131.084 161.168 132.517C160.341 133.95 159.928 135.593 159.928 137.41C159.928 139.228 160.341 140.87 161.168 142.303C161.994 143.736 163.131 144.855 164.578 145.694C166.024 146.497 167.677 146.917 169.503 146.917C171.328 146.917 172.947 146.497 174.394 145.694C175.84 144.89 176.977 143.736 177.769 142.303C178.596 140.87 179.009 139.228 179.009 137.41C179.009 135.593 178.596 133.95 177.769 132.517ZM174.876 140.835C174.325 141.814 173.602 142.583 172.672 143.142C171.742 143.701 170.674 143.981 169.503 143.981C168.332 143.981 167.264 143.701 166.334 143.142C165.404 142.583 164.681 141.814 164.13 140.835C163.579 139.822 163.303 138.703 163.303 137.41C163.303 136.117 163.579 134.998 164.13 133.985C164.681 133.006 165.404 132.237 166.334 131.678C167.264 131.119 168.332 130.874 169.503 130.874C170.674 130.874 171.742 131.154 172.672 131.678C173.602 132.202 174.325 132.971 174.876 133.985C175.393 134.998 175.668 136.117 175.668 137.41C175.668 138.703 175.393 139.822 174.876 140.835Z" fill="#0A293B"/>
<path d="M200.02 132.482C199.227 131.049 198.125 129.93 196.713 129.161C195.301 128.358 193.717 127.973 191.96 127.973C190.203 127.973 189.342 128.218 188.206 128.777C187.069 129.301 186.139 130.07 185.416 131.119V128.183H182.247V153.593H185.554V143.981C186.311 144.96 187.241 145.728 188.343 146.218C189.446 146.742 190.651 146.987 191.96 146.987C193.269 146.987 195.301 146.602 196.713 145.798C198.125 144.995 199.227 143.876 200.02 142.443C200.812 141.01 201.225 139.367 201.225 137.48C201.225 135.593 200.846 133.95 200.02 132.517V132.482ZM197.023 140.835C196.472 141.814 195.749 142.583 194.819 143.142C193.889 143.701 192.821 143.981 191.65 143.981C190.479 143.981 189.446 143.701 188.516 143.142C187.586 142.583 186.828 141.814 186.311 140.835C185.795 139.822 185.519 138.703 185.519 137.41C185.519 136.117 185.795 134.998 186.346 134.02C186.897 133.041 187.62 132.272 188.55 131.713C189.48 131.154 190.513 130.874 191.684 130.874C192.855 130.874 193.923 131.154 194.853 131.678C195.783 132.202 196.541 132.971 197.057 133.985C197.609 134.998 197.884 136.117 197.884 137.41C197.884 138.703 197.609 139.822 197.057 140.835H197.023Z" fill="#0A293B"/>
<path d="M222.2 132.482C221.408 131.049 220.306 129.93 218.894 129.161C217.482 128.358 215.897 127.973 214.106 127.973C212.315 127.973 211.489 128.218 210.386 128.777C209.25 129.301 208.32 130.07 207.596 131.119V128.183H204.428V153.593H207.734V143.981C208.492 144.96 209.422 145.728 210.524 146.218C211.626 146.742 212.832 146.987 214.141 146.987C215.449 146.987 217.516 146.602 218.928 145.798C220.34 144.995 221.442 143.876 222.235 142.443C223.027 141.01 223.44 139.367 223.44 137.48C223.44 135.593 223.061 133.95 222.235 132.517L222.2 132.482ZM219.238 140.835C218.687 141.814 217.964 142.583 217.034 143.142C216.104 143.701 215.036 143.981 213.865 143.981C212.694 143.981 211.661 143.701 210.731 143.142C209.801 142.583 209.043 141.814 208.526 140.835C208.01 139.822 207.734 138.703 207.734 137.41C207.734 136.117 208.01 134.998 208.561 134.02C209.112 133.041 209.835 132.272 210.765 131.713C211.695 131.154 212.728 130.874 213.9 130.874C215.071 130.874 216.138 131.154 217.068 131.678C217.998 132.202 218.756 132.971 219.273 133.985C219.824 134.998 220.065 136.117 220.065 137.41C220.065 138.703 219.789 139.822 219.273 140.835H219.238Z" fill="#0A293B"/>
<path d="M243.865 137.515C243.865 135.663 243.486 133.985 242.694 132.552C241.902 131.119 240.834 129.965 239.491 129.162C238.113 128.358 236.563 127.938 234.806 127.938C233.05 127.938 231.465 128.323 230.088 129.162C228.71 129.965 227.608 131.084 226.816 132.552C226.023 134.02 225.645 135.628 225.645 137.41C225.645 139.193 226.058 140.87 226.884 142.338C227.711 143.806 228.848 144.925 230.363 145.729C231.844 146.532 233.566 146.952 235.495 146.952C237.424 146.952 238.388 146.707 239.628 146.183C240.868 145.659 241.902 144.925 242.728 143.946L240.903 141.779C239.559 143.282 237.803 144.016 235.598 144.016C233.394 144.016 232.292 143.527 231.086 142.513C229.881 141.534 229.158 140.206 228.951 138.563H243.83C243.865 138.144 243.899 137.795 243.899 137.55L243.865 137.515ZM228.917 136.117C229.089 134.509 229.743 133.251 230.811 132.272C231.879 131.294 233.222 130.804 234.806 130.804C236.391 130.804 237.734 131.294 238.802 132.307C239.869 133.321 240.489 134.579 240.696 136.152H228.951L228.917 136.117Z" fill="#0A293B"/>
<path d="M252.82 128.777C251.683 129.336 250.857 130.175 250.271 131.224V128.113H247.103V146.707H250.409V137.445C250.409 135.453 250.926 133.88 251.959 132.796C252.992 131.713 254.404 131.154 256.195 131.154C257.986 131.154 256.781 131.154 256.953 131.189V127.938C255.334 127.938 253.957 128.218 252.854 128.777H252.82Z" fill="#0A293B"/>
<path d="M23.293 144.4C22.983 144.4 22.6386 144.261 22.3975 144.016C17.7477 139.297 17.7477 131.608 22.3975 126.855L38.4823 110.567L39.3778 111.476C41.651 113.783 42.891 116.824 42.891 120.039C42.891 123.255 41.651 126.33 39.3778 128.602C38.8956 129.092 38.1034 129.092 37.6212 128.602C37.139 128.113 37.139 127.309 37.6212 126.82C39.4123 125.002 40.3767 122.591 40.3767 120.039C40.3767 117.488 39.6878 115.88 38.4134 114.202L24.1885 128.672C20.5031 132.412 20.5031 138.494 24.1885 142.233C24.6707 142.723 24.6707 143.527 24.1885 144.016C23.9474 144.261 23.6374 144.4 23.293 144.4Z" fill="#F0826C"/>
<path d="M28.4248 139.193C28.1149 139.193 27.7704 139.053 27.5293 138.808C22.8795 134.09 22.8795 126.4 27.5293 121.647C28.0115 121.158 28.8037 121.158 29.2859 121.647C29.7681 122.136 29.7681 122.94 29.2859 123.43C25.6005 127.169 25.6005 133.251 29.2859 136.991C29.7681 137.48 29.7681 138.284 29.2859 138.773C29.0448 139.018 28.7348 139.158 28.3904 139.158L28.4248 139.193Z" fill="#F0826C"/>
<path d="M34.1078 133.496C33.7979 133.496 33.4534 133.356 33.2123 133.111C30.9735 130.839 29.768 127.694 29.8714 124.303C29.9747 121.018 31.2835 117.837 33.5223 115.565C34.0045 115.076 34.7967 115.076 35.2789 115.565C35.7611 116.055 35.7611 116.859 35.2789 117.348C33.4879 119.165 32.4201 121.717 32.3513 124.373C32.2824 127.065 33.2123 129.546 34.9689 131.329C35.4511 131.818 35.4511 132.622 34.9689 133.111C34.7278 133.356 34.4178 133.496 34.0734 133.496H34.1078Z" fill="#F0826C"/>
<path d="M27.4258 164.567L26.5303 163.659C21.8805 158.94 21.8805 151.251 26.5303 146.498C27.0125 146.008 27.8047 146.008 28.2869 146.498C28.7691 146.987 28.7691 147.791 28.2869 148.28C24.9115 151.705 24.6359 157.158 27.4603 160.898L41.7196 146.428C43.5106 144.61 44.475 142.198 44.475 139.647C44.475 137.096 43.4762 134.684 41.7196 132.866C41.2374 132.377 41.2374 131.573 41.7196 131.084C42.2018 130.595 42.994 130.595 43.4762 131.084C45.7494 133.391 46.9894 136.431 46.9894 139.647C46.9894 142.863 45.7494 145.938 43.4762 148.21L27.3914 164.532L27.4258 164.567Z" fill="#F0826C"/>
<path d="M37.4837 153.802C37.1737 153.802 36.8293 153.663 36.5882 153.418C36.106 152.929 36.106 152.125 36.5882 151.635C38.3792 149.818 39.3436 147.406 39.3436 144.855C39.3436 142.303 38.3448 139.892 36.5882 138.074C36.106 137.585 36.106 136.781 36.5882 136.292C37.0704 135.802 37.8626 135.802 38.3448 136.292C40.618 138.598 41.858 141.639 41.858 144.855C41.858 148.07 40.618 151.146 38.3448 153.418C36.0716 155.69 37.7937 153.802 37.4493 153.802H37.4837Z" fill="#F0826C"/>
<path d="M31.4564 159.919C31.1464 159.919 30.802 159.779 30.5609 159.534C30.0787 159.045 30.0787 158.241 30.5609 157.752C34.3151 153.942 34.4529 147.406 30.8709 143.771C30.3887 143.282 30.3887 142.478 30.8709 141.989C31.3531 141.499 32.1452 141.499 32.6274 141.989C37.2428 146.672 37.0706 154.711 32.3175 159.569C32.0764 159.814 31.7664 159.954 31.4219 159.954L31.4564 159.919Z" fill="#F0826C"/>
</g>
<defs>
<clipPath id="clip0_10107_3256">
<rect width="238" height="54" fill="white" transform="translate(18.9189 110.567)"/>
</clipPath>
</defs>
</svg>
