<svg width="276" height="276" viewBox="0 0 276 276" fill="none" xmlns="http://www.w3.org/2000/svg">
<path d="M86.6763 160.26C83.1483 156.203 81.9639 149.752 81.2583 144.535C79.595 132.363 78.2846 121.124 66.6925 115.63C54.8735 110.565 40.3077 114.572 34.2596 126.164C26.4727 140.554 31.8908 160.764 44.5918 170.013C40.4589 164.746 37.9641 158.068 36.8805 151.516C35.4188 143.653 36.6285 135.186 40.3581 129.894C42.9789 126.189 46.4062 124.224 49.405 123.241C54.5711 121.553 59.9388 122.51 62.5092 123.594C65.1048 124.703 67.3729 126.693 68.9605 129.289C74.2274 138.008 72.7909 149.021 77.831 157.992C83.9295 168.828 100.058 171.222 109.634 162.327C101.419 167.316 92.2456 166.636 86.6763 160.26Z" fill="#193291"/>
<path d="M130.575 124.199H136.245V138.159C136.699 136.698 137.782 134.707 139.446 132.414L145.368 124.173H152.071L143.377 135.791C145.217 137.63 149.853 144.132 153.281 151.037H146.678C144.914 147.458 141.991 142.57 139.673 139.873L139.143 140.579C137.908 142.116 136.245 144.434 136.245 148.744V151.062H130.575V124.199ZM157.363 124.199H162.479C165.982 128.382 172.03 137.933 173.844 141.335V124.199H179.111V151.062H173.869C171.324 146.047 165.452 136.446 162.63 132.741V151.062H157.363V124.199ZM186.722 124.199H192.366V146.375H201.943V151.062H186.696V124.199H186.722ZM208.369 128.936H201.237V124.199H221.145V128.936H214.014V151.062H208.343V128.936H208.369ZM225.152 150.986V124.425C226.084 124.199 231.049 123.846 233.342 123.846C240.625 123.846 243.8 126.24 243.8 131.229C243.8 133.775 242.062 135.841 239.844 136.572C242.692 137.227 245.111 139.772 245.111 143.351C245.111 148.265 242.389 151.39 233.191 151.39C229.361 151.415 227.168 151.213 225.152 150.986ZM230.822 128.659V135.135H233.09C236.669 135.135 238.004 133.699 238.004 131.683C238.004 129.642 236.971 128.483 233.393 128.483C232.385 128.483 231.629 128.558 230.822 128.659ZM230.822 139.445V146.677C231.679 146.753 232.939 146.803 234.552 146.803C238.256 146.803 239.289 145.19 239.289 143.074C239.289 140.982 237.979 139.445 234.174 139.445H230.822Z" fill="#FF5000"/>
<path d="M120.142 134.808C119.991 130.347 118.504 125.081 116.236 120.771C114.522 117.52 112.153 115.026 110.062 113.463C115.203 120.393 116.79 127.298 116.412 134.405C116.185 138.664 114.951 143.83 111.952 147.887C108.902 151.995 104.442 153.859 100.486 152.675C96.8567 151.566 96.1511 147.106 95.7479 144.586C95.2439 141.36 94.9163 139.369 93.9335 133.699C91.489 119.637 86.197 113.362 77.9061 109.003C67.0951 103.333 51.3197 105.298 41.668 114.421C53.1593 106.231 71.3288 107.264 79.2165 119.612C82.2657 124.4 84.1053 129.39 84.8866 133.119C85.819 137.605 86.3734 142.696 86.9026 145.77C87.9862 152.07 88.591 153.985 90.1534 156.505C91.0102 157.891 93.8327 161.495 99.1751 161.772C105.551 162.1 112.254 158.824 116.589 151.213C119.839 145.518 120.293 139.445 120.142 134.808Z" fill="#FF5000"/>
</svg>
