<svg width="278" height="276" viewBox="0 0 278 276" fill="none" xmlns="http://www.w3.org/2000/svg">
<path d="M50.3226 120.898H66.3559C67.9157 120.898 69.1853 122.175 69.1853 123.743L67.8432 151.975C67.8432 153.507 69.1128 154.638 70.6726 154.638H85.1461C86.7059 154.638 87.9755 153.507 87.9755 151.975L86.9236 123.743C86.9236 122.175 88.1932 120.898 89.753 120.898H106.258C107.818 120.898 109.087 119.621 109.087 118.053V105.87C109.087 104.338 107.818 103.062 106.258 103.062H50.3226C48.7628 103.062 47.4932 104.338 47.4932 105.87V118.053C47.4932 119.621 48.7628 120.898 50.3226 120.898Z" fill="#1D806B"/>
<path d="M204.017 113.931C191.14 113.931 182.216 123.597 182.216 135.488C182.216 147.343 191.575 157.082 204.453 157.082C217.33 157.082 230.099 150.699 230.752 134.795C231.368 119.512 216.895 113.931 204.017 113.931Z" fill="#1D806B"/>
<path d="M146.486 120.679V120.643H138.578C137.055 120.643 135.785 119.403 135.785 117.834V97.3351C135.785 95.7666 134.516 94.49 132.956 94.49H120.84C119.28 94.49 118.011 95.7666 118.011 97.3351V151.61C118.011 153.179 119.28 154.638 120.84 154.638H132.956C134.516 154.638 135.785 153.179 135.785 151.61V141.324C135.785 139.756 137.055 138.516 138.578 138.516H149.025C150.585 138.516 151.456 139.719 151.855 141.324L154.902 151.793C155.337 153.288 156.172 154.638 157.731 154.638H169.847C171.407 154.638 172.676 153.361 172.676 151.793L169.593 125.531C169.593 122.831 167.453 120.679 164.769 120.679H146.486Z" fill="#1D806B"/>
<path d="M67.8429 177.873C67.8187 177.848 67.8066 177.824 67.8066 177.8V170.067C67.8066 170.018 67.8187 169.982 67.8429 169.958C67.8671 169.933 67.8913 169.921 67.9155 169.921H68.9674C69.0158 169.921 69.0521 169.933 69.0762 169.958C69.1004 169.982 69.1125 170.018 69.1125 170.067V173.204C69.1125 173.253 69.1246 173.277 69.1488 173.277C69.1488 173.277 69.1609 173.265 69.1851 173.24L70.89 170.031C70.9142 169.958 70.9746 169.921 71.0713 169.921H72.1959C72.2442 169.921 72.2684 169.933 72.2684 169.958C72.2926 170.006 72.2926 170.043 72.2684 170.067L70.5635 173.277C70.5635 173.326 70.5635 173.35 70.5635 173.35L72.4135 177.763C72.4135 177.788 72.4135 177.812 72.4135 177.836C72.4135 177.885 72.3772 177.909 72.3047 177.909H71.1802C71.0834 177.909 71.023 177.873 70.9988 177.8L69.6566 174.517C69.6566 174.493 69.6445 174.481 69.6204 174.481C69.6204 174.481 69.6083 174.493 69.5841 174.517L69.1488 175.283C69.1246 175.307 69.1125 175.332 69.1125 175.356V177.8C69.1125 177.824 69.1004 177.848 69.0762 177.873C69.0521 177.897 69.0158 177.909 68.9674 177.909H67.9155C67.8913 177.909 67.8671 177.897 67.8429 177.873Z" fill="#1D806B"/>
<path fill-rule="evenodd" clip-rule="evenodd" d="M76.8754 177.8L76.6578 176.596C76.6578 176.548 76.6336 176.523 76.5852 176.523H74.9166C74.8682 176.523 74.844 176.548 74.844 176.596L74.6264 177.8C74.6264 177.873 74.578 177.909 74.4813 177.909H73.4656C73.3447 177.909 73.2963 177.861 73.3205 177.763L75.0254 170.067C75.0254 169.97 75.0738 169.921 75.1705 169.921H76.3676C76.4401 169.921 76.4885 169.97 76.5127 170.067L78.1813 177.763V177.8C78.1813 177.873 78.145 177.909 78.0725 177.909H77.0205C76.9238 177.909 76.8754 177.873 76.8754 177.8ZM75.098 175.502H76.3676C76.4159 175.502 76.4401 175.478 76.4401 175.429L75.7872 171.818C75.763 171.794 75.7509 171.781 75.7509 171.781C75.7267 171.781 75.7146 171.794 75.7146 171.818L75.0617 175.429C75.0375 175.478 75.0496 175.502 75.098 175.502Z" fill="#1D806B"/>
<path d="M82.5704 169.958C82.5946 169.933 82.6308 169.921 82.6792 169.921H83.7312C83.7553 169.921 83.7795 169.933 83.8037 169.958C83.8279 169.982 83.84 170.018 83.84 170.067V177.8C83.84 177.824 83.8279 177.848 83.8037 177.873C83.7795 177.897 83.7553 177.909 83.7312 177.909H82.5341C82.4374 177.909 82.389 177.873 82.389 177.8L80.6841 172.949C80.6841 172.924 80.672 172.924 80.6478 172.949C80.6236 172.949 80.6115 172.961 80.6115 172.985V177.8C80.6115 177.824 80.5995 177.848 80.5753 177.873C80.5511 177.897 80.5269 177.909 80.5027 177.909H79.4508C79.4024 177.909 79.3661 177.897 79.3419 177.873C79.3178 177.848 79.3057 177.824 79.3057 177.8V170.067C79.3057 170.018 79.3178 169.982 79.3419 169.958C79.3661 169.933 79.4024 169.921 79.4508 169.921H80.6115C80.6841 169.921 80.7325 169.958 80.7566 170.031L82.4615 174.845C82.4857 174.87 82.4978 174.882 82.4978 174.882C82.522 174.882 82.5341 174.87 82.5341 174.845V170.067C82.5341 170.018 82.5462 169.982 82.5704 169.958Z" fill="#1D806B"/>
<path d="M89.5351 169.958C89.5593 169.982 89.5714 170.018 89.5714 170.067V170.942C89.5714 170.967 89.5593 170.991 89.5351 171.015C89.4868 171.04 89.4505 171.052 89.4263 171.052H87.9753C87.9512 171.052 87.9391 171.076 87.9391 171.125V177.8C87.9391 177.824 87.9149 177.848 87.8665 177.873C87.8423 177.897 87.8182 177.909 87.794 177.909H86.742C86.6936 177.909 86.6574 177.897 86.6332 177.873C86.609 177.848 86.5969 177.824 86.5969 177.8V171.125C86.5969 171.076 86.5848 171.052 86.5606 171.052H85.1822C85.1338 171.052 85.0976 171.04 85.0734 171.015C85.0492 170.991 85.0371 170.967 85.0371 170.942V170.067C85.0371 170.018 85.0492 169.982 85.0734 169.958C85.0976 169.933 85.1338 169.921 85.1822 169.921H89.4263C89.4505 169.921 89.4868 169.933 89.5351 169.958Z" fill="#1D806B"/>
<path fill-rule="evenodd" clip-rule="evenodd" d="M91.2039 177.508C90.817 177.119 90.6235 176.596 90.6235 175.94V172.11C90.6235 171.453 90.817 170.918 91.2039 170.505C91.615 170.116 92.1471 169.921 92.8 169.921C93.4529 169.921 93.9729 170.116 94.3598 170.505C94.7709 170.918 94.9765 171.453 94.9765 172.11V175.94C94.9765 176.596 94.7709 177.119 94.3598 177.508C93.9729 177.897 93.4529 178.092 92.8 178.092C92.1471 178.092 91.615 177.897 91.2039 177.508ZM93.4167 176.706C93.586 176.511 93.6706 176.268 93.6706 175.976V172.037C93.6706 171.745 93.586 171.514 93.4167 171.344C93.2474 171.149 93.0418 171.052 92.8 171.052C92.534 171.052 92.3284 171.149 92.1833 171.344C92.0141 171.514 91.9294 171.745 91.9294 172.037V175.976C91.9294 176.268 92.0141 176.511 92.1833 176.706C92.3284 176.876 92.534 176.961 92.8 176.961C93.0418 176.961 93.2474 176.876 93.4167 176.706Z" fill="#1D806B"/>
<path fill-rule="evenodd" clip-rule="evenodd" d="M96.79 177.508C96.3789 177.119 96.1733 176.596 96.1733 175.94V172.11C96.1733 171.453 96.3789 170.918 96.79 170.505C97.1769 170.116 97.6969 169.921 98.3498 169.921C99.0028 169.921 99.5348 170.116 99.9459 170.505C100.333 170.918 100.526 171.453 100.526 172.11V175.94C100.526 176.596 100.333 177.119 99.9459 177.508C99.5348 177.897 99.0028 178.092 98.3498 178.092C97.6969 178.092 97.1769 177.897 96.79 177.508ZM98.9665 176.706C99.1358 176.511 99.2204 176.268 99.2204 175.976V172.037C99.2204 171.745 99.1358 171.514 98.9665 171.344C98.8214 171.149 98.6158 171.052 98.3498 171.052C98.0838 171.052 97.8782 171.149 97.7331 171.344C97.588 171.514 97.5155 171.745 97.5155 172.037V175.976C97.5155 176.268 97.588 176.511 97.7331 176.706C97.8782 176.876 98.0838 176.961 98.3498 176.961C98.6158 176.961 98.8214 176.876 98.9665 176.706Z" fill="#1D806B"/>
<path fill-rule="evenodd" clip-rule="evenodd" d="M104.843 177.8L103.863 174.517C103.863 174.493 103.851 174.481 103.827 174.481H103.21C103.186 174.481 103.174 174.505 103.174 174.554V177.8C103.174 177.824 103.162 177.848 103.138 177.873C103.09 177.897 103.053 177.909 103.029 177.909H101.977C101.929 177.909 101.892 177.897 101.868 177.873C101.844 177.848 101.832 177.824 101.832 177.8V170.067C101.832 170.018 101.844 169.982 101.868 169.958C101.892 169.933 101.929 169.921 101.977 169.921H104.117C104.528 169.921 104.879 170.018 105.169 170.213C105.484 170.407 105.725 170.687 105.895 171.052C106.064 171.392 106.149 171.794 106.149 172.256C106.149 172.718 106.052 173.119 105.858 173.459C105.689 173.824 105.447 174.092 105.133 174.262C105.085 174.262 105.073 174.286 105.097 174.335L106.185 177.763C106.209 177.788 106.221 177.8 106.221 177.8C106.221 177.873 106.173 177.909 106.076 177.909H104.988C104.915 177.909 104.867 177.873 104.843 177.8ZM103.174 171.125V173.386C103.174 173.435 103.186 173.459 103.21 173.459H103.9C104.19 173.459 104.42 173.35 104.589 173.131C104.758 172.912 104.843 172.62 104.843 172.256C104.843 171.891 104.758 171.599 104.589 171.38C104.42 171.161 104.19 171.052 103.9 171.052H103.21C103.186 171.052 103.174 171.076 103.174 171.125Z" fill="#1D806B"/>
<path d="M111.155 169.921H112.171C112.219 169.921 112.255 169.933 112.279 169.958C112.304 169.982 112.316 170.018 112.316 170.067V177.8C112.316 177.824 112.304 177.848 112.279 177.873C112.255 177.897 112.219 177.909 112.171 177.909H111.155C111.107 177.909 111.07 177.897 111.046 177.873C111.022 177.848 111.01 177.824 111.01 177.8V172.401C111.01 172.353 110.998 172.329 110.973 172.329C110.973 172.329 110.961 172.341 110.937 172.365L109.958 174.189C109.909 174.237 109.873 174.262 109.849 174.262C109.825 174.262 109.789 174.237 109.74 174.189L108.761 172.365C108.737 172.341 108.724 172.329 108.724 172.329C108.7 172.329 108.688 172.353 108.688 172.401V177.8C108.688 177.824 108.676 177.848 108.652 177.873C108.628 177.897 108.591 177.909 108.543 177.909H107.491C107.467 177.909 107.443 177.897 107.419 177.873C107.394 177.848 107.382 177.824 107.382 177.8V170.067C107.382 170.018 107.394 169.982 107.419 169.958C107.443 169.933 107.467 169.921 107.491 169.921H108.543C108.616 169.921 108.676 169.958 108.724 170.031L109.813 171.964C109.837 171.988 109.861 171.988 109.885 171.964L110.973 170.031C110.998 169.958 111.058 169.921 111.155 169.921Z" fill="#1D806B"/>
<path d="M117.648 171.015C117.624 171.04 117.587 171.052 117.539 171.052H115.072C115.048 171.052 115.036 171.076 115.036 171.125V173.277C115.036 173.326 115.048 173.35 115.072 173.35H116.523C116.572 173.35 116.608 173.362 116.632 173.386C116.656 173.411 116.668 173.435 116.668 173.459V174.371C116.668 174.395 116.656 174.42 116.632 174.444C116.608 174.468 116.572 174.481 116.523 174.481H115.072C115.048 174.481 115.036 174.505 115.036 174.554V176.706C115.036 176.754 115.048 176.779 115.072 176.779H117.539C117.587 176.779 117.624 176.791 117.648 176.815C117.672 176.839 117.684 176.876 117.684 176.924V177.8C117.684 177.824 117.672 177.848 117.648 177.873C117.624 177.897 117.587 177.909 117.539 177.909H113.839C113.815 177.909 113.791 177.897 113.766 177.873C113.718 177.848 113.694 177.824 113.694 177.8V170.067C113.694 170.018 113.718 169.982 113.766 169.958C113.791 169.933 113.815 169.921 113.839 169.921H117.539C117.587 169.921 117.624 169.933 117.648 169.958C117.672 169.982 117.684 170.018 117.684 170.067V170.942C117.684 170.967 117.672 170.991 117.648 171.015Z" fill="#1D806B"/>
<path d="M119.462 177.362C119.075 176.949 118.881 176.402 118.881 175.721V170.067C118.881 170.018 118.893 169.982 118.918 169.958C118.942 169.933 118.978 169.921 119.026 169.921H120.078C120.103 169.921 120.127 169.933 120.151 169.958C120.175 169.982 120.187 170.018 120.187 170.067V175.83C120.187 176.146 120.272 176.402 120.441 176.596C120.586 176.766 120.78 176.851 121.022 176.851C121.288 176.851 121.493 176.766 121.638 176.596C121.783 176.402 121.856 176.146 121.856 175.83V170.067C121.856 170.018 121.868 169.982 121.892 169.958C121.916 169.933 121.953 169.921 122.001 169.921H123.053C123.077 169.921 123.101 169.933 123.125 169.958C123.15 169.982 123.162 170.018 123.162 170.067V175.721C123.162 176.402 122.968 176.949 122.581 177.362C122.194 177.8 121.674 178.019 121.022 178.019C120.369 178.019 119.849 177.8 119.462 177.362Z" fill="#1D806B"/>
<path fill-rule="evenodd" clip-rule="evenodd" d="M128.276 177.362C127.865 177.727 127.333 177.909 126.68 177.909H124.685C124.661 177.909 124.625 177.897 124.576 177.873C124.552 177.848 124.54 177.824 124.54 177.8V170.067C124.54 170.018 124.552 169.982 124.576 169.958C124.625 169.933 124.661 169.921 124.685 169.921H126.499C127.2 169.921 127.756 170.104 128.167 170.468C128.579 170.833 128.784 171.368 128.784 172.073C128.784 172.851 128.506 173.411 127.95 173.751C127.926 173.775 127.926 173.8 127.95 173.824C128.24 174.019 128.47 174.274 128.639 174.59C128.808 174.906 128.893 175.283 128.893 175.721C128.893 176.426 128.687 176.973 128.276 177.362ZM125.882 171.125V173.24C125.882 173.289 125.894 173.313 125.918 173.313H126.499C126.813 173.313 127.055 173.216 127.224 173.022C127.418 172.827 127.515 172.56 127.515 172.219C127.515 171.854 127.418 171.575 127.224 171.38C127.055 171.161 126.813 171.052 126.499 171.052H125.918C125.894 171.052 125.882 171.076 125.882 171.125ZM127.297 176.45C127.466 176.231 127.551 175.927 127.551 175.538C127.551 175.149 127.466 174.845 127.297 174.626C127.128 174.383 126.886 174.262 126.571 174.262H125.918C125.894 174.262 125.882 174.286 125.882 174.335V176.706C125.882 176.754 125.894 176.779 125.918 176.779H126.571C126.886 176.779 127.128 176.669 127.297 176.45Z" fill="#1D806B"/>
<path d="M130.127 177.873C130.102 177.848 130.09 177.824 130.09 177.8V170.067C130.09 170.018 130.102 169.982 130.127 169.958C130.151 169.933 130.187 169.921 130.235 169.921H131.251C131.299 169.921 131.336 169.933 131.36 169.958C131.384 169.982 131.396 170.018 131.396 170.067V177.8C131.396 177.824 131.384 177.848 131.36 177.873C131.336 177.897 131.299 177.909 131.251 177.909H130.235C130.187 177.909 130.151 177.897 130.127 177.873Z" fill="#1D806B"/>
<path d="M132.847 177.873C132.823 177.848 132.811 177.824 132.811 177.8V170.067C132.811 170.018 132.823 169.982 132.847 169.958C132.871 169.933 132.895 169.921 132.919 169.921H133.971C134.02 169.921 134.056 169.933 134.08 169.958C134.104 169.982 134.116 170.018 134.116 170.067V176.706C134.116 176.754 134.141 176.779 134.189 176.779H136.619C136.668 176.779 136.704 176.791 136.728 176.815C136.752 176.839 136.764 176.876 136.764 176.924V177.8C136.764 177.824 136.752 177.848 136.728 177.873C136.704 177.897 136.668 177.909 136.619 177.909H132.919C132.895 177.909 132.871 177.897 132.847 177.873Z" fill="#1D806B"/>
<path fill-rule="evenodd" clip-rule="evenodd" d="M141.19 177.8L140.972 176.596C140.972 176.548 140.948 176.523 140.9 176.523H139.267C139.219 176.523 139.195 176.548 139.195 176.596L138.977 177.8C138.953 177.873 138.905 177.909 138.832 177.909H137.78C137.683 177.909 137.647 177.861 137.671 177.763L139.34 170.067C139.364 169.97 139.412 169.921 139.485 169.921H140.682C140.779 169.921 140.827 169.97 140.827 170.067L142.532 177.763V177.8C142.532 177.873 142.484 177.909 142.387 177.909H141.335C141.262 177.909 141.214 177.873 141.19 177.8ZM139.449 175.502H140.718C140.767 175.502 140.779 175.478 140.755 175.429L140.102 171.818C140.102 171.794 140.09 171.781 140.065 171.781C140.065 171.781 140.053 171.794 140.029 171.818L139.376 175.429C139.376 175.478 139.4 175.502 139.449 175.502Z" fill="#1D806B"/>
<path d="M143.693 177.873C143.669 177.848 143.657 177.824 143.657 177.8V170.067C143.657 170.018 143.669 169.982 143.693 169.958C143.717 169.933 143.753 169.921 143.802 169.921H144.818C144.866 169.921 144.902 169.933 144.926 169.958C144.951 169.982 144.963 170.018 144.963 170.067V177.8C144.963 177.824 144.951 177.848 144.926 177.873C144.902 177.897 144.866 177.909 144.818 177.909H143.802C143.753 177.909 143.717 177.897 143.693 177.873Z" fill="#1D806B"/>
<path fill-rule="evenodd" clip-rule="evenodd" d="M149.388 177.8L148.409 174.517C148.385 174.493 148.36 174.481 148.336 174.481H147.756C147.708 174.481 147.683 174.505 147.683 174.554V177.8C147.683 177.824 147.671 177.848 147.647 177.873C147.623 177.897 147.587 177.909 147.538 177.909H146.523C146.474 177.909 146.438 177.897 146.414 177.873C146.39 177.848 146.377 177.824 146.377 177.8V170.067C146.377 170.018 146.39 169.982 146.414 169.958C146.438 169.933 146.474 169.921 146.523 169.921H148.663C149.05 169.921 149.4 170.018 149.715 170.213C150.005 170.407 150.247 170.687 150.44 171.052C150.609 171.392 150.694 171.794 150.694 172.256C150.694 172.718 150.597 173.119 150.404 173.459C150.235 173.824 149.981 174.092 149.642 174.262C149.618 174.262 149.606 174.286 149.606 174.335L150.73 177.763C150.73 177.788 150.73 177.8 150.73 177.8C150.73 177.873 150.694 177.909 150.622 177.909H149.533C149.461 177.909 149.412 177.873 149.388 177.8ZM147.683 171.125V173.386C147.683 173.435 147.708 173.459 147.756 173.459H148.445C148.711 173.459 148.929 173.35 149.098 173.131C149.267 172.912 149.352 172.62 149.352 172.256C149.352 171.891 149.267 171.599 149.098 171.38C148.929 171.161 148.711 171.052 148.445 171.052H147.756C147.708 171.052 147.683 171.076 147.683 171.125Z" fill="#1D806B"/>
<path d="M154.394 177.873C154.345 177.848 154.321 177.812 154.321 177.763V170.067C154.321 170.018 154.345 169.982 154.394 169.958C154.418 169.933 154.442 169.921 154.466 169.921H155.518C155.567 169.921 155.603 169.933 155.627 169.958C155.651 169.982 155.663 170.018 155.663 170.067V173.204C155.663 173.228 155.663 173.253 155.663 173.277C155.688 173.277 155.712 173.265 155.736 173.24L157.441 170.031C157.465 169.958 157.513 169.921 157.586 169.921H158.711C158.783 169.921 158.819 169.933 158.819 169.958C158.844 170.006 158.844 170.043 158.819 170.067L157.114 173.277C157.114 173.326 157.114 173.35 157.114 173.35L158.928 177.763C158.952 177.763 158.964 177.788 158.964 177.836C158.964 177.885 158.916 177.909 158.819 177.909H157.695C157.622 177.909 157.574 177.873 157.55 177.8L156.208 174.517C156.208 174.493 156.195 174.481 156.171 174.481C156.171 174.481 156.159 174.493 156.135 174.517L155.663 175.283C155.663 175.307 155.663 175.332 155.663 175.356V177.763C155.663 177.812 155.651 177.848 155.627 177.873C155.603 177.897 155.567 177.909 155.518 177.909H154.466C154.442 177.909 154.418 177.897 154.394 177.873Z" fill="#1D806B"/>
<path fill-rule="evenodd" clip-rule="evenodd" d="M163.39 177.8L163.172 176.596C163.172 176.548 163.16 176.523 163.136 176.523H161.468C161.419 176.523 161.395 176.548 161.395 176.596L161.177 177.8C161.177 177.873 161.129 177.909 161.032 177.909H159.98C159.884 177.909 159.847 177.861 159.872 177.763L161.54 170.031C161.564 169.958 161.613 169.921 161.685 169.921H162.919C162.991 169.921 163.039 169.958 163.064 170.031L164.732 177.763V177.8C164.732 177.873 164.696 177.909 164.623 177.909H163.535C163.463 177.909 163.414 177.873 163.39 177.8ZM161.649 175.502H162.919C162.967 175.502 162.979 175.478 162.955 175.429L162.302 171.818C162.302 171.794 162.29 171.781 162.266 171.781C162.266 171.781 162.254 171.794 162.229 171.818L161.613 175.429C161.589 175.478 161.601 175.502 161.649 175.502Z" fill="#1D806B"/>
<path d="M169.121 169.958C169.145 169.933 169.182 169.921 169.23 169.921H170.246C170.294 169.921 170.33 169.933 170.354 169.958C170.379 169.982 170.391 170.018 170.391 170.067V177.763C170.391 177.812 170.379 177.848 170.354 177.873C170.33 177.897 170.294 177.909 170.246 177.909H169.049C168.976 177.909 168.928 177.873 168.904 177.8L167.235 172.949C167.211 172.924 167.199 172.924 167.199 172.949C167.174 172.949 167.162 172.961 167.162 172.985V177.763C167.162 177.812 167.15 177.848 167.126 177.873C167.102 177.897 167.066 177.909 167.017 177.909H166.002C165.953 177.909 165.917 177.897 165.893 177.873C165.869 177.848 165.856 177.812 165.856 177.763V170.067C165.856 170.018 165.869 169.982 165.893 169.958C165.917 169.933 165.953 169.921 166.002 169.921H167.162C167.235 169.921 167.283 169.958 167.307 170.031L169.012 174.845C169.012 174.87 169.024 174.882 169.049 174.882C169.073 174.882 169.085 174.87 169.085 174.845V170.067C169.085 170.018 169.097 169.982 169.121 169.958Z" fill="#1D806B"/>
<path d="M174.925 177.435C174.514 177.022 174.309 176.499 174.309 175.867V171.964C174.309 171.307 174.514 170.784 174.925 170.395C175.312 170.031 175.82 169.848 176.449 169.848C177.102 169.848 177.634 170.031 178.045 170.395C178.432 170.784 178.625 171.307 178.625 171.964V172.11C178.625 172.134 178.613 172.17 178.589 172.219C178.565 172.243 178.529 172.256 178.48 172.256L177.428 172.292C177.331 172.292 177.283 172.243 177.283 172.146V171.891C177.283 171.623 177.211 171.404 177.065 171.234C176.92 171.064 176.715 170.979 176.449 170.979C176.207 170.979 176.013 171.064 175.868 171.234C175.723 171.404 175.651 171.623 175.651 171.891V175.976C175.651 176.244 175.723 176.462 175.868 176.633C176.013 176.778 176.207 176.851 176.449 176.851C176.715 176.851 176.92 176.778 177.065 176.633C177.211 176.462 177.283 176.244 177.283 175.976V175.684C177.283 175.636 177.295 175.599 177.319 175.575C177.344 175.55 177.38 175.538 177.428 175.538L178.48 175.575C178.529 175.575 178.565 175.587 178.589 175.611C178.613 175.66 178.625 175.696 178.625 175.721V175.867C178.625 176.499 178.432 177.022 178.045 177.435C177.634 177.824 177.102 178.019 176.449 178.019C175.82 178.019 175.312 177.824 174.925 177.435Z" fill="#1D806B"/>
<path d="M179.931 177.873C179.883 177.848 179.858 177.812 179.858 177.763V170.067C179.858 170.018 179.883 169.982 179.931 169.958C179.955 169.933 179.979 169.921 180.003 169.921H181.055C181.104 169.921 181.14 169.933 181.164 169.958C181.188 169.982 181.201 170.018 181.201 170.067V177.763C181.201 177.812 181.188 177.848 181.164 177.873C181.14 177.897 181.104 177.909 181.055 177.909H180.003C179.979 177.909 179.955 177.897 179.931 177.873Z" fill="#1D806B"/>
<path fill-rule="evenodd" clip-rule="evenodd" d="M185.59 177.8L184.61 174.517C184.61 174.493 184.598 174.481 184.574 174.481H183.958C183.933 174.481 183.921 174.505 183.921 174.554V177.763C183.921 177.812 183.909 177.848 183.885 177.873C183.861 177.897 183.825 177.909 183.776 177.909H182.724C182.7 177.909 182.676 177.897 182.652 177.873C182.603 177.848 182.579 177.812 182.579 177.763V170.067C182.579 170.018 182.603 169.982 182.652 169.958C182.676 169.933 182.7 169.921 182.724 169.921H184.864C185.276 169.921 185.626 170.018 185.916 170.213C186.231 170.407 186.473 170.687 186.642 171.052C186.811 171.392 186.896 171.794 186.896 172.256C186.896 172.718 186.811 173.119 186.642 173.459C186.448 173.824 186.194 174.092 185.88 174.262C185.832 174.262 185.82 174.286 185.844 174.335L186.932 177.763C186.956 177.763 186.968 177.776 186.968 177.8C186.968 177.873 186.92 177.909 186.823 177.909H185.735C185.662 177.909 185.614 177.873 185.59 177.8ZM183.921 171.125V173.386C183.921 173.435 183.933 173.459 183.958 173.459H184.647C184.937 173.459 185.167 173.35 185.336 173.131C185.505 172.912 185.59 172.62 185.59 172.256C185.59 171.891 185.505 171.599 185.336 171.38C185.167 171.161 184.937 171.052 184.647 171.052H183.958C183.933 171.052 183.921 171.076 183.921 171.125Z" fill="#1D806B"/>
<path d="M188.637 177.435C188.226 177.022 188.021 176.499 188.021 175.867V171.964C188.021 171.307 188.226 170.784 188.637 170.395C189.024 170.031 189.532 169.848 190.161 169.848C190.814 169.848 191.346 170.031 191.757 170.395C192.144 170.784 192.337 171.307 192.337 171.964V172.11C192.337 172.134 192.325 172.17 192.301 172.219C192.277 172.243 192.24 172.256 192.192 172.256L191.14 172.292C191.043 172.292 190.995 172.243 190.995 172.146V171.891C190.995 171.623 190.922 171.404 190.777 171.234C190.632 171.064 190.427 170.979 190.161 170.979C189.919 170.979 189.725 171.064 189.58 171.234C189.435 171.404 189.363 171.623 189.363 171.891V175.976C189.363 176.244 189.435 176.462 189.58 176.633C189.725 176.778 189.919 176.851 190.161 176.851C190.427 176.851 190.632 176.778 190.777 176.633C190.922 176.462 190.995 176.244 190.995 175.976V175.684C190.995 175.636 191.007 175.599 191.031 175.575C191.055 175.55 191.092 175.538 191.14 175.538L192.192 175.575C192.24 175.575 192.277 175.587 192.301 175.611C192.325 175.66 192.337 175.696 192.337 175.721V175.867C192.337 176.499 192.144 177.022 191.757 177.435C191.346 177.824 190.814 178.019 190.161 178.019C189.532 178.019 189.024 177.824 188.637 177.435Z" fill="#1D806B"/>
<path d="M194.151 177.362C193.764 176.949 193.57 176.389 193.57 175.684V170.067C193.57 170.018 193.582 169.982 193.607 169.958C193.631 169.933 193.667 169.921 193.715 169.921H194.731C194.779 169.921 194.816 169.933 194.84 169.958C194.864 169.982 194.876 170.018 194.876 170.067V175.83C194.876 176.146 194.949 176.402 195.094 176.596C195.263 176.766 195.469 176.851 195.711 176.851C195.952 176.851 196.158 176.766 196.327 176.596C196.472 176.402 196.545 176.146 196.545 175.83V170.067C196.545 170.018 196.557 169.982 196.581 169.958C196.605 169.933 196.642 169.921 196.69 169.921H197.742C197.766 169.921 197.79 169.933 197.814 169.958C197.839 169.982 197.851 170.018 197.851 170.067V175.684C197.851 176.389 197.657 176.949 197.27 177.362C196.883 177.8 196.363 178.019 195.711 178.019C195.058 178.019 194.538 177.8 194.151 177.362Z" fill="#1D806B"/>
<path d="M199.265 177.873C199.241 177.848 199.229 177.812 199.229 177.763V170.067C199.229 170.018 199.241 169.982 199.265 169.958C199.289 169.933 199.326 169.921 199.374 169.921H200.426C200.45 169.921 200.474 169.933 200.499 169.958C200.547 169.982 200.571 170.018 200.571 170.067V176.706C200.571 176.754 200.583 176.779 200.607 176.779H203.074C203.098 176.779 203.122 176.791 203.147 176.815C203.195 176.839 203.219 176.876 203.219 176.924V177.763C203.219 177.812 203.195 177.848 203.147 177.873C203.122 177.897 203.098 177.909 203.074 177.909H199.374C199.326 177.909 199.289 177.897 199.265 177.873Z" fill="#1D806B"/>
<path fill-rule="evenodd" clip-rule="evenodd" d="M207.645 177.8L207.427 176.596C207.427 176.548 207.403 176.523 207.355 176.523H205.686C205.638 176.523 205.614 176.548 205.614 176.596L205.396 177.8C205.396 177.873 205.348 177.909 205.251 177.909H204.235C204.114 177.909 204.066 177.861 204.09 177.763L205.795 170.031C205.795 169.958 205.843 169.921 205.94 169.921H207.137C207.21 169.921 207.258 169.958 207.282 170.031L208.951 177.763V177.8C208.951 177.873 208.915 177.909 208.842 177.909H207.79C207.693 177.909 207.645 177.873 207.645 177.8ZM205.867 175.502H207.137C207.185 175.502 207.21 175.478 207.21 175.429L206.557 171.818C206.533 171.794 206.52 171.781 206.52 171.781C206.496 171.781 206.484 171.794 206.484 171.818L205.831 175.429C205.831 175.478 205.843 175.502 205.867 175.502Z" fill="#1D806B"/>
<path d="M210.111 177.873C210.087 177.848 210.075 177.812 210.075 177.763V170.067C210.075 170.018 210.087 169.982 210.111 169.958C210.16 169.933 210.196 169.921 210.22 169.921H211.272C211.321 169.921 211.357 169.933 211.381 169.958C211.405 169.982 211.417 170.018 211.417 170.067V177.763C211.417 177.812 211.405 177.848 211.381 177.873C211.357 177.897 211.321 177.909 211.272 177.909H210.22C210.196 177.909 210.16 177.897 210.111 177.873Z" fill="#1D806B"/>
<path fill-rule="evenodd" clip-rule="evenodd" d="M215.807 177.8L214.827 174.517C214.827 174.493 214.815 174.481 214.791 174.481H214.174C214.15 174.481 214.138 174.505 214.138 174.554V177.763C214.138 177.812 214.126 177.848 214.102 177.873C214.053 177.897 214.017 177.909 213.993 177.909H212.941C212.917 177.909 212.881 177.897 212.832 177.873C212.808 177.848 212.796 177.812 212.796 177.763V170.067C212.796 170.018 212.808 169.982 212.832 169.958C212.881 169.933 212.917 169.921 212.941 169.921H215.081C215.492 169.921 215.843 170.018 216.133 170.213C216.448 170.407 216.689 170.687 216.859 171.052C217.028 171.392 217.113 171.794 217.113 172.256C217.113 172.718 217.028 173.119 216.859 173.459C216.665 173.824 216.411 174.092 216.097 174.262C216.049 174.262 216.036 174.286 216.061 174.335L217.149 177.763C217.173 177.763 217.185 177.776 217.185 177.8C217.185 177.873 217.137 177.909 217.04 177.909H215.952C215.879 177.909 215.831 177.873 215.807 177.8ZM214.138 171.125V173.386C214.138 173.435 214.15 173.459 214.174 173.459H214.864C215.154 173.459 215.383 173.35 215.553 173.131C215.722 172.912 215.807 172.62 215.807 172.256C215.807 171.891 215.722 171.599 215.553 171.38C215.383 171.161 215.154 171.052 214.864 171.052H214.174C214.15 171.052 214.138 171.076 214.138 171.125Z" fill="#1D806B"/>
</svg>
