<svg width="157" height="62" viewBox="0 0 157 62" fill="none" xmlns="http://www.w3.org/2000/svg">
<path d="M157 13.5888V50.7983C157 56.9857 151.866 62.0011 145.532 62.0011H5.64043C2.52513 62.0011 0 59.5344 0 56.4911V27.7499C0 25.0027 2.03495 22.6557 4.81163 22.2052L140.824 0.186982C149.296 -1.18345 157 5.19928 157 13.5857" fill="#FCB8FA"/>
<path d="M142.707 59.0965H42.2404V19.0674L141.001 3.94857C147.677 2.92784 153.714 7.96849 153.714 14.5717V48.3441C153.714 54.2826 148.786 59.0965 142.707 59.0965Z" fill="black"/>
<path d="M53.8437 19.7951V34.8824L51.0316 35.1313V20.2015L45.2815 21.0269V56.6707L51.0316 56.6171V41.6873L53.8437 41.5046V56.5919L59.9776 56.5352V18.913L53.8437 19.7951Z" fill="white"/>
<path d="M71.5583 17.2464L69.9233 31.5556L69.8459 32.7811L69.6911 32.7968L69.6137 31.5871L68.0044 17.7568L61.3707 18.7114L66.45 43.0042V56.4753L73.1676 56.4155V42.6261L78.6854 16.2194L71.5583 17.2464Z" fill="white"/>
<path d="M120.765 18.4688V10.1643L102.286 12.8233V56.1477L120.765 55.9776V47.6762L111.203 47.9976V37.8092L120.21 37.2295V28.9975L111.203 29.7977V19.6124L120.765 18.4688Z" fill="white"/>
<path d="M91.3047 36.0575L87.8153 36.3159V21.6287L91.3047 21.2034V36.0575ZM80.0464 16.0241V56.3525L87.7572 56.28V43.209L91.3337 43.0231C96.0099 42.7805 99.6734 39.0063 99.6734 34.4319V23.1629C99.6734 17.9143 94.9005 13.8881 89.5825 14.6537L80.0464 16.0272V16.0241Z" fill="white"/>
<path d="M137.963 47.8086L133.352 47.9535V16.0745L137.963 15.5106V47.8086ZM123.151 9.82093V55.9555L140.359 55.798C145.19 55.7539 149.083 51.9167 149.083 47.1974V16.0524C149.083 10.8039 144.31 6.77764 138.992 7.54319L123.148 9.82408L123.151 9.82093Z" fill="white"/>
<path d="M16.2796 59.0965H26.2543V52.0175L20.501 52.1813V44.1824L25.906 43.8453V36.8199L20.501 37.3114V29.3094L26.2543 28.5942V21.5152L16.2796 23.04V59.0965Z" fill="black"/>
<path d="M27.783 21.2789V28.4052L31.7561 27.9106V59.0965H36.5548V27.3151L40.8182 26.7859V19.2847L27.783 21.2789Z" fill="black"/>
<path d="M10.7552 38.1967V30.4719L6.41767 31.0106V52.7862L10.7552 52.6633V46.2774L8.09142 46.4255V40.2381L14.78 39.6836V59.0933H10.7585V57.0676L10.0586 57.7386C9.15242 58.6082 7.9334 59.0933 6.666 59.0933H5.97263C4.14731 59.0933 2.67029 57.6473 2.67029 55.8673V28.8021C2.67029 26.6851 4.2505 24.8799 6.39187 24.5522L10.9681 23.8528C12.9708 23.5473 14.7832 25.0594 14.7832 27.0379V37.8281L10.7617 38.1935L10.7552 38.1967Z" fill="black"/>
</svg>
