<svg xmlns="http://www.w3.org/2000/svg" xmlns:xlink="http://www.w3.org/1999/xlink" width="276" height="276" viewBox="0 0 276 276">
  <defs>
    <clipPath id="clip-path">
      <rect id="Rectangle_345" data-name="Rectangle 345" width="309" height="61.798" fill="none"/>
    </clipPath>
    <clipPath id="clip-Custom_Size_1">
      <rect width="276" height="276"/>
    </clipPath>
  </defs>
  <g id="Custom_Size_1" data-name="Custom Size – 1" clip-path="url(#clip-Custom_Size_1)">
    <g id="layer_1" transform="translate(-16.5 107.101)">
      <g id="Group_681" data-name="Group 681" clip-path="url(#clip-path)">
        <path id="Path_348" data-name="Path 348" d="M257.674,43.834h-30.9V12.93h30.9Z" transform="translate(20.432 1.165)" fill="#004999"/>
        <path id="Path_349" data-name="Path 349" d="M228.471,26.391v3.957H232.9V26.282a8.7,8.7,0,0,1,.392-2.573c.741-2.322,2.693-4.535,5.516-4.535h6.3V14.76h-6.628a8.6,8.6,0,0,0-1.973.2c-4.1.981-6.573,4.5-7.5,7.38a14.669,14.669,0,0,0-.545,4.044" transform="translate(20.584 1.33)" fill="#e4230e"/>
        <path id="Path_350" data-name="Path 350" d="M246.58,19.285l3.728-2.333L246.58,14.63Z" transform="translate(22.217 1.318)" fill="#e4230e"/>
        <path id="Path_351" data-name="Path 351" d="M254.795,29.117V25.16h-4.426v4.066a8.355,8.355,0,0,1-.392,2.573c-.741,2.322-2.693,4.535-5.516,4.535h-6.3v4.415h6.628a8.537,8.537,0,0,0,1.973-.2c4.11-.981,6.573-4.5,7.5-7.391a14.6,14.6,0,0,0,.545-4.044" transform="translate(21.458 2.267)" fill="#e4230e"/>
        <path id="Path_352" data-name="Path 352" d="M235.618,35.31l-3.728,2.333,3.728,2.322Z" transform="translate(20.894 3.181)" fill="#e4230e"/>
        <path id="Path_353" data-name="Path 353" d="M234.721,33.9h3.194V26.465c0-.839.469-1.428.992-1.428.567,0,.992.632.992,1.363v7.5h3.194V26.4c0-.774.458-1.363.992-1.363s.992.621.992,1.363v7.5h3.194V25.767c0-2.769-1.755-4.916-3.815-4.916a3.571,3.571,0,0,0-2.954,1.831,3.562,3.562,0,0,0-2.965-1.842c-2.137,0-3.826,2.278-3.826,5.025V33.91Z" transform="translate(21.148 1.878)" fill="#fff"/>
        <path id="Path_354" data-name="Path 354" d="M134.071,27.58h-5.7v3.041h5.7Z" transform="translate(11.566 2.485)" fill="#004999"/>
        <path id="Path_355" data-name="Path 355" d="M48.227,26.593l1.94-1.428-1.94-1.134Zm-.992-.033V24.02h-2.42s-4.535.153-4.535,5.821v.948h2.594v-1.6a2.623,2.623,0,0,1,2.78-2.627h1.581Zm-3.641,5.723-1.94,1.439,1.94,1.134V32.294Zm.959.022H46.93A2.619,2.619,0,0,0,49.7,29.678v-.927h2.594v.273c0,5.669-4.535,5.821-4.535,5.821h-3.2V32.3Z" transform="translate(3.629 2.164)" fill="#e4230e"/>
        <path id="Path_356" data-name="Path 356" d="M28.351,34.858V28s-.12-4.121,3.216-4.121c0,0,2.213-.174,2.8,1.668,0,0,.294-1.668,2.921-1.668a3.066,3.066,0,0,1,2.921,3.347v7.642H37.17V27.794s.109-1.166-.654-1.166c0,0-.719-.174-.719,1.166v7.075H32.809V27.892s.174-1.014-.654-1.134c0,0-.774-.131-.774,1.123v7H28.34Z" transform="translate(2.553 2.151)" fill="#004999"/>
        <path id="Path_357" data-name="Path 357" d="M52.351,34.859V27.784a3.765,3.765,0,0,1,4-3.913,4.047,4.047,0,0,1,3.935,2.518L57.9,28.166l-.36-.567a1.211,1.211,0,0,0-1.079-.719,1.113,1.113,0,0,0-1.046,1.166v6.8H52.34Z" transform="translate(4.716 2.15)" fill="#004999"/>
        <path id="Path_358" data-name="Path 358" d="M80.17,23.369a1.81,1.81,0,1,0-1.81-1.81,1.812,1.812,0,0,0,1.81,1.81m1.537,11.86H78.633V24.252h3.074Z" transform="translate(7.06 1.779)" fill="#004999"/>
        <path id="Path_359" data-name="Path 359" d="M83.02,34.857V27.194s-.12-3.314,4.142-3.314c0,0,3.913,0,3.913,3.194v7.783H88.034V27.881s.087-1.2-1.047-1.2c0,0-.927-.033-.927,1.286v6.889Z" transform="translate(7.48 2.152)" fill="#004999"/>
        <path id="Path_360" data-name="Path 360" d="M92.02,19.941V35.213h2.954V31.572s0-1.188,1.014-1.188c0,0,.839.033.839,1.188v3.641h2.954V30.766a2.032,2.032,0,0,0-1.733-2.387l2.148-4.153H96.849l-1.755,3.368V19.93H92.02Z" transform="translate(8.291 1.796)" fill="#004999"/>
        <path id="Path_361" data-name="Path 361" d="M100.851,19.94V35.212h3.041V27.9s-.087-1.068,1.188-1.068a1.03,1.03,0,0,1,.981,1.1v7.282h3.107V27.669a2.962,2.962,0,0,0-3.107-3.434,3.075,3.075,0,0,0-2.18.807v-5.1H100.84Z" transform="translate(9.086 1.797)" fill="#004999"/>
        <path id="Path_362" data-name="Path 362" d="M120.61,35.212V23.962a3.653,3.653,0,0,1,3.9-4.022,6.507,6.507,0,0,1,3.074.894l-1.1,2.475-.894-.392s-1.733-.807-1.94.807v.512h2.355v2.573h-2.322v8.416H120.61Z" transform="translate(10.867 1.797)" fill="#004999"/>
        <path id="Path_363" data-name="Path 363" d="M109.54,29.431A5.461,5.461,0,1,1,115,34.893a5.457,5.457,0,0,1-5.461-5.461m5.472,2.551a2.551,2.551,0,1,0-2.551-2.551,2.554,2.554,0,0,0,2.551,2.551" transform="translate(9.87 2.16)" fill="#004999"/>
        <path id="Path_364" data-name="Path 364" d="M63.669,24.01h4.644v2.769H64.149a.459.459,0,0,0-.491.512.474.474,0,0,0,.469.447H65.8A3.227,3.227,0,0,1,69,30.987v.752a3.38,3.38,0,0,1-3.6,3.107H60.541V31.793h4.306c.589,0,.752-.218.752-.469v-.1c0-.24-.2-.447-.61-.447h-1.45a3.234,3.234,0,0,1-3.249-3.4,3.285,3.285,0,0,1,3.379-3.368" transform="translate(5.432 2.163)" fill="#004999"/>
        <path id="Path_365" data-name="Path 365" d="M72.709,24.01h4.644v2.769H73.189a.459.459,0,0,0-.491.512.467.467,0,0,0,.469.447h1.668a3.227,3.227,0,0,1,3.2,3.249v.752a3.38,3.38,0,0,1-3.6,3.107H69.581V31.793h4.306c.589,0,.752-.218.752-.469v-.1c0-.24-.2-.447-.61-.447h-1.45a3.234,3.234,0,0,1-3.249-3.4,3.285,3.285,0,0,1,3.379-3.368" transform="translate(6.247 2.163)" fill="#004999"/>
        <path id="Path_366" data-name="Path 366" d="M137.28,34.859V27.784a3.765,3.765,0,0,1,4-3.913,4.065,4.065,0,0,1,3.946,2.518l-2.387,1.777-.36-.567a1.211,1.211,0,0,0-1.079-.719,1.123,1.123,0,0,0-1.047,1.166v6.8H137.28Z" transform="translate(12.369 2.15)" fill="#004999"/>
        <path id="Path_367" data-name="Path 367" d="M148.6,24.01h-3.041v8.448s.207,2.267,3.227,2.267a2.823,2.823,0,0,0,1.668-.567v.687a1.366,1.366,0,0,1-1.493,1.341,2.037,2.037,0,0,1-1.733-.774l-1.995,2.06S146.331,39,149.263,39a4.378,4.378,0,0,0,4.35-4.775v-10.2H150.6v6.922s.055,1.166-.959,1.166c0,0-1.047.087-1.047-1.221V24.021Z" transform="translate(13.085 2.163)" fill="#004999"/>
        <path id="Path_368" data-name="Path 368" d="M154.5,34.858V28s-.12-4.121,3.216-4.121c0,0,2.213-.174,2.8,1.668,0,0,.305-1.668,2.921-1.668a3.066,3.066,0,0,1,2.921,3.347v7.642H163.32V27.794s.1-1.166-.654-1.166c0,0-.719-.174-.719,1.166v7.075h-2.987V27.892s.174-1.014-.654-1.134c0,0-.774-.131-.774,1.123v7H154.49Z" transform="translate(13.92 2.151)" fill="#004999"/>
        <path id="Path_369" data-name="Path 369" d="M192.627,35.212H189.52V19.94h3.107Z" transform="translate(17.076 1.797)" fill="#004999"/>
        <path id="Path_370" data-name="Path 370" d="M216.8,21.82H213.76v9.571s-.153,3.761,3.488,3.761a4.738,4.738,0,0,0,3.074-1.1l-1.079-2.333-.48.273a1.752,1.752,0,0,1-.741.327s-1.254.207-1.254-1.341V26.8h1.94V24.207H216.8Z" transform="translate(19.26 1.966)" fill="#004999"/>
        <path id="Path_371" data-name="Path 371" d="M178.49,38.491V29.3a5.141,5.141,0,0,1,5.494-5.341s5.4.033,5.4,5.461c0,0,0,5.516-5.461,5.516a3.964,3.964,0,0,1-2.387-.807v4.35H178.49Zm5.451-6.355a2.507,2.507,0,1,0-2.507-2.507,2.508,2.508,0,0,0,2.507,2.507" transform="translate(16.082 2.159)" fill="#004999"/>
        <path id="Path_372" data-name="Path 372" d="M208.108,24.01h4.644v2.769h-4.164a.459.459,0,0,0-.491.512.467.467,0,0,0,.469.447h1.668a3.227,3.227,0,0,1,3.2,3.249v.752a3.38,3.38,0,0,1-3.6,3.107h-4.851V31.793H209.3c.589,0,.752-.218.752-.469v-.1c0-.24-.2-.447-.61-.447h-1.45a3.227,3.227,0,0,1-3.248-3.4,3.285,3.285,0,0,1,3.379-3.368" transform="translate(18.447 2.163)" fill="#004999"/>
        <path id="Path_373" data-name="Path 373" d="M174.378,26.593l1.94-1.428-1.94-1.134Zm-1-.033V24.02h-2.42s-4.535.153-4.535,5.821v.948h2.594v-1.6a2.619,2.619,0,0,1,2.769-2.627h1.581Zm-3.641,5.723-1.94,1.439,1.94,1.134V32.294Zm.97.022h2.376a2.619,2.619,0,0,0,2.769-2.627v-.927h2.594v.273c0,5.669-4.535,5.821-4.535,5.821h-3.2V32.3Z" transform="translate(14.995 2.164)" fill="#e4230e"/>
        <path id="Path_374" data-name="Path 374" d="M198.881,23.97s-5.461.174-5.461,5.669a4.986,4.986,0,0,0,5.32,5.254,6.013,6.013,0,0,0,2.791-.621l.033.5H204.3V30.107s.414-6.137-5.407-6.137m.065,8.219a2.513,2.513,0,1,1,2.507-2.507,2.517,2.517,0,0,1-2.507,2.507" transform="translate(17.427 2.16)" fill="#004999"/>
      </g>
    </g>
  </g>
</svg>
