<svg xmlns="http://www.w3.org/2000/svg" xmlns:xlink="http://www.w3.org/1999/xlink" width="276" zoomAndPan="magnify" viewBox="0 0 206.87999 207.000001" height="276" preserveAspectRatio="xMidYMid meet" version="1.0"><defs><clipPath id="337892365a"><path d="M 148 90 L 168.640625 90 L 168.640625 123.183594 L 148 123.183594 Z M 148 90 " clip-rule="nonzero"/></clipPath><clipPath id="5c585fa249"><path d="M 81 99 L 108 99 L 108 123.183594 L 81 123.183594 Z M 81 99 " clip-rule="nonzero"/></clipPath><clipPath id="4cec039b2f"><path d="M 38.039062 82.875 L 78 82.875 L 78 123 L 38.039062 123 Z M 38.039062 82.875 " clip-rule="nonzero"/></clipPath></defs><g clip-path="url(#337892365a)"><path fill="#e6005a" d="M 168.640625 120.816406 C 168.640625 120.816406 165.125 123.183594 160.265625 123.183594 C 153.820312 123.183594 148.367188 120.78125 148.367188 111.785156 L 148.367188 90.359375 L 154.140625 90.359375 L 154.140625 99.136719 L 159.914062 99.136719 L 159.914062 104.902344 L 154.140625 104.902344 L 154.140625 110.964844 C 154.140625 117.03125 157.777344 118.117188 161.5 118.117188 C 165.878906 118.117188 168.640625 115.246094 168.640625 115.246094 Z M 168.640625 120.816406 " fill-opacity="1" fill-rule="nonzero"/></g><path fill="#e6005a" d="M 119.507812 90.359375 L 113.714844 90.359375 L 113.714844 122.789062 L 119.507812 122.789062 Z M 119.507812 90.359375 " fill-opacity="1" fill-rule="nonzero"/><path fill="#e6005a" d="M 131.054688 90.359375 L 125.28125 90.359375 L 125.28125 122.789062 L 131.054688 122.789062 Z M 131.054688 90.359375 " fill-opacity="1" fill-rule="nonzero"/><path fill="#e6005a" d="M 142.59375 101.890625 L 136.828125 101.890625 L 136.828125 122.789062 L 142.59375 122.789062 Z M 142.59375 101.890625 " fill-opacity="1" fill-rule="nonzero"/><path fill="#e6005a" d="M 142.59375 90.359375 L 136.820312 90.359375 L 136.820312 96.125 L 142.59375 96.125 Z M 142.59375 90.359375 " fill-opacity="1" fill-rule="nonzero"/><g clip-path="url(#5c585fa249)"><path fill="#e6005a" d="M 102.167969 115.246094 C 102.167969 115.246094 99.40625 118.117188 95.027344 118.117188 C 91.304688 118.117188 87.667969 117.035156 87.667969 110.964844 L 87.667969 99.136719 L 81.894531 99.136719 L 81.894531 111.785156 C 81.894531 120.78125 87.347656 123.183594 93.792969 123.183594 C 98.652344 123.183594 102.167969 120.816406 102.167969 120.816406 L 102.167969 122.789062 L 107.941406 122.789062 L 107.941406 99.136719 L 102.167969 99.136719 Z M 102.167969 115.246094 " fill-opacity="1" fill-rule="nonzero"/></g><g clip-path="url(#4cec039b2f)"><path fill="#e6005a" d="M 73.398438 105.683594 C 73.398438 105.683594 75.238281 103.832031 75.238281 100.582031 C 75.238281 93.121094 68.019531 92.234375 60.5 92.234375 C 55.007812 92.234375 45.746094 92.234375 41.792969 84.273438 C 38.417969 77.472656 38.539062 97.6875 56.058594 97.6875 L 63.59375 97.6875 C 65.261719 97.6875 66.53125 97.992188 67.398438 98.597656 C 68.265625 99.203125 68.699219 100.0625 68.699219 101.167969 C 68.699219 102.238281 68.261719 103.1875 67.390625 104.023438 C 64.253906 103.964844 58.464844 103.964844 58.464844 103.964844 C 52.96875 103.964844 43.707031 103.964844 39.757812 96.003906 C 36.378906 89.203125 36.503906 109.144531 54.023438 109.144531 L 65.941406 109.144531 C 67.609375 109.144531 71.046875 109.554688 71.046875 113.289062 C 71.046875 117.023438 67.609375 117.394531 65.941406 117.394531 L 52.988281 117.394531 L 52.988281 113.101562 C 50.789062 113.101562 48.890625 112.765625 47.214844 112.226562 L 47.214844 122.789062 L 65.785156 122.789062 C 75.015625 122.789062 77.585938 118.316406 77.585938 113.464844 C 77.585938 107.640625 73.398438 105.683594 73.398438 105.683594 Z M 73.398438 105.683594 " fill-opacity="1" fill-rule="nonzero"/></g></svg>